<?xml version="1.0" standalone="no"?>
<!DOCTYPE svg PUBLIC "-//W3C//DTD SVG 1.1//EN" "http://www.w3.org/Graphics/SVG/1.1/DTD/svg11.dtd" >
<svg>
<metadata>
Created by FontForge 20120731 at Fri Sep 12 13:51:02 2014
 By World Wide Web Server
Copyright (c) 2005 by Frantisek Storm, www.stormtype.com. All rights reserved.
</metadata>
<defs>
<font id="EtelkaText" horiz-adv-x="587" >
  <font-face 
    font-family="Etelka Text"
    font-weight="400"
    font-stretch="normal"
    units-per-em="1000"
    panose-1="2 0 5 3 3 0 0 2 0 4"
    ascent="800"
    descent="-200"
    x-height="507"
    cap-height="697"
    bbox="-205 -314 1343 966"
    underline-thickness="50"
    underline-position="-100"
    unicode-range="U+0020-FB04"
  />
<missing-glyph horiz-adv-x="515" 
d="M0 0v697h515v-697h-515zM257 407l151 224h-301zM297 349l151 -225v449zM107 66h301l-151 226zM68 573v-449l150 225z" />
    <glyph glyph-name="ff" unicode="ff" horiz-adv-x="677" 
d="M502 544v-37h172v-84h-172v-423h-95v423h-217v-423h-94v423h-87v84h87v34c0 156 105 180 215 180c52 0 106 -11 153 -29c31 24 74 29 117 29c41 0 92 -7 128 -19l-23 -77c-24 8 -65 13 -94 13c-54 0 -90 -18 -90 -94zM190 538v-31h217v40c0 30 4 55 11 74
c-35 11 -71 17 -108 17c-73 0 -120 -15 -120 -100z" />
    <glyph glyph-name="fi" unicode="fi" horiz-adv-x="574" 
d="M502 507v-507h-95v423h-217v-423h-94v423h-87v84h87v34c0 150 98 181 221 181c64 0 127 -12 180 -33l-25 -77c-41 16 -92 26 -147 26c-81 0 -135 -14 -135 -100v-31h312z" />
    <glyph glyph-name="fj" unicode="fj" horiz-adv-x="574" 
d="M502 507v-526c0 -152 -76 -184 -188 -184v82c62 0 93 17 93 101v443h-217v-423h-94v423h-87v84h87v34c0 149 98 180 221 180c64 0 127 -11 180 -32l-25 -77c-41 16 -92 26 -147 26c-81 0 -135 -14 -135 -100v-31h312z" />
    <glyph glyph-name="fk" unicode="fk" horiz-adv-x="849" 
d="M502 0h-95v626c-30 8 -63 12 -97 12c-73 0 -120 -15 -120 -100v-31h158v-84h-158v-423h-94v423h-87v84h87v34c0 150 97 181 215 181c66 0 128 -11 191 -33v-689zM851 0h-115c-124 165 -203 256 -234 268c31 23 108 106 217 239h115c-108 -131 -183 -209 -213 -230
c29 -16 109 -108 230 -277z" />
    <glyph glyph-name="fl" unicode="fl" horiz-adv-x="579" 
d="M502 689v-553c0 -49 11 -77 43 -114l-80 -44c-38 40 -58 80 -58 154v494c-30 8 -63 12 -97 12c-73 0 -120 -15 -120 -100v-31h158v-84h-158v-423h-94v423h-87v84h87v34c0 150 97 181 215 181c66 0 128 -11 191 -33z" />
    <glyph glyph-name="ffi" unicode="ffi" horiz-adv-x="885" 
d="M813 507v-507h-94v423h-217v-423h-95v423h-217v-423h-94v423h-87v84h87v34c0 150 96 180 203 180c53 0 122 -11 174 -33c41 26 95 33 155 33c64 0 127 -11 180 -32l-24 -77c-42 16 -93 26 -148 26c-80 0 -134 -14 -134 -100v-31h311zM190 538v-31h217v34c0 32 5 57 14 78
c-35 13 -76 19 -111 19c-73 0 -120 -15 -120 -100z" />
    <glyph glyph-name="ffk" unicode="ffk" horiz-adv-x="1161" 
d="M1162 0h-115c-124 165 -203 256 -234 268v-268h-94v625c-31 9 -64 13 -98 13c-77 0 -119 -20 -119 -100v-31h157v-84h-157v-423h-95v423h-217v-423h-94v423h-87v84h87v34c0 144 92 179 195 179c63 0 126 -9 181 -32c39 26 92 33 150 33h16c60 0 117 -12 175 -32v-421
c31 23 108 106 217 239h115c-107 -132 -183 -209 -212 -230c28 -16 108 -109 229 -277zM407 541c0 33 5 58 15 79c-36 11 -73 18 -112 18c-80 0 -120 -16 -120 -115v-16h217v34z" />
    <glyph glyph-name="ffl" unicode="ffl" horiz-adv-x="891" 
d="M813 689v-553c0 -52 11 -78 44 -114l-81 -44c-38 39 -57 80 -57 154v493c-31 9 -64 13 -98 13c-77 0 -119 -20 -119 -100v-31h157v-84h-157v-423h-95v423h-217v-423h-94v423h-87v84h87v34c0 150 96 180 203 180c59 0 120 -11 173 -33c39 26 92 33 150 33
c66 0 128 -10 191 -32zM407 541c0 33 5 58 15 79c-36 11 -73 18 -112 18c-80 0 -120 -16 -120 -115v-16h217v34z" />
    <glyph glyph-name="Th" unicode="Th" horiz-adv-x="1059" 
d="M658 697v-214c28 19 85 38 143 38c128 0 188 -45 188 -232v-289h-95v259c0 147 -29 175 -118 175c-61 0 -118 -20 -118 -58v-376h-95v610h-217v-610h-103v610h-239v87h654z" />
    <glyph glyph-name=".notdef" horiz-adv-x="515" 
d="M0 0v697h515v-697h-515zM257 407l151 224h-301zM297 349l151 -225v449zM107 66h301l-151 226zM68 573v-449l150 225z" />
    <glyph glyph-name="space" unicode=" " horiz-adv-x="276" 
 />
    <glyph glyph-name="A" unicode="A" horiz-adv-x="675" 
d="M567 0c-23 58 -50 124 -75 194h-323c-22 -66 -43 -131 -63 -194h-105c73 220 167 476 258 697h165c75 -230 176 -508 257 -697h-114zM351 613h-28c-43 -107 -85 -219 -125 -332h264c-40 110 -78 226 -111 332z" />
    <glyph glyph-name="B" unicode="B" horiz-adv-x="700" 
d="M443 85c61 0 82 46 82 118c0 77 -28 125 -86 125h-243v-243h247zM435 411c58 0 76 45 76 102c0 63 -17 98 -76 98h-239v-200h239zM476 372c133 -6 159 -79 159 -178c0 -134 -65 -194 -177 -194h-364v697h355c139 0 169 -72 169 -166c0 -88 -17 -148 -142 -159z" />
    <glyph glyph-name="C" unicode="C" horiz-adv-x="597" 
d="M58 355c0 285 104 359 323 359c63 0 144 -11 197 -26l-25 -91c-40 15 -109 24 -160 24c-164 0 -225 -32 -225 -267c0 -234 61 -274 225 -274c51 0 120 9 160 23l25 -91c-54 -16 -134 -26 -197 -26c-219 0 -323 85 -323 369z" />
    <glyph glyph-name="D" unicode="D" horiz-adv-x="720" 
d="M95 697h240c219 0 326 -76 326 -346s-106 -351 -326 -351h-240v697zM553 350c0 224 -58 260 -224 260h-133v-523h133c166 0 224 50 224 263z" />
    <glyph glyph-name="E" unicode="E" horiz-adv-x="615" 
d="M95 697h491v-87h-390v-198h277v-86h-277v-239h390v-87h-491v697z" />
    <glyph glyph-name="F" unicode="F" horiz-adv-x="577" 
d="M95 697h482v-87h-381v-233h277v-86h-277v-291h-101v697z" />
    <glyph glyph-name="G" unicode="G" horiz-adv-x="689" 
d="M508 91v215h-167v85h270v-379c-55 -17 -159 -26 -230 -26c-219 0 -323 85 -323 369c0 285 111 359 332 359c63 0 149 -11 203 -26l-25 -90c-40 15 -121 24 -172 24c-167 0 -228 -33 -228 -268c0 -234 61 -276 225 -276c43 0 89 7 115 13z" />
    <glyph glyph-name="H" unicode="H" horiz-adv-x="725" 
d="M196 325v-325h-101v697h101v-279h334v279h101v-697h-101v325h-334z" />
    <glyph glyph-name="I" unicode="I" horiz-adv-x="290" 
d="M95 697h101v-697h-101v697z" />
    <glyph glyph-name="J" unicode="J" horiz-adv-x="451" 
d="M357 697v-505c0 -169 -99 -206 -200 -206c-51 0 -107 13 -147 29l25 92c30 -14 78 -24 115 -24c52 0 104 20 104 118v496h103z" />
    <glyph glyph-name="K" unicode="K" horiz-adv-x="639" 
d="M196 697v-697h-101v697h101zM649 0h-129c-154 231 -278 352 -323 368c48 31 167 149 301 329h128c-142 -180 -252 -291 -291 -320c37 -23 161 -146 314 -377z" />
    <glyph glyph-name="L" unicode="L" horiz-adv-x="548" 
d="M95 697h101v-608h345v-89h-446v697z" />
    <glyph glyph-name="M" unicode="M" horiz-adv-x="892" 
d="M450 212c62 161 137 331 212 485h136v-697h-100v568c-74 -161 -151 -341 -216 -498h-78c-64 159 -139 341 -211 498v-568h-98v697h144c74 -155 149 -325 211 -485z" />
    <glyph glyph-name="N" unicode="N" horiz-adv-x="752" 
d="M195 574v-574h-101v697h136c112 -172 224 -362 325 -547v547h102v-697h-124c-102 189 -217 384 -338 574z" />
    <glyph glyph-name="O" unicode="O" horiz-adv-x="764" 
d="M382 714c219 0 324 -77 324 -361c0 -287 -104 -367 -324 -367c-219 0 -324 80 -324 367c0 284 105 361 324 361zM382 77c166 0 216 48 216 274c0 234 -50 273 -216 273c-165 0 -214 -39 -214 -273c0 -226 49 -274 214 -274z" />
    <glyph glyph-name="P" unicode="P" horiz-adv-x="661" 
d="M196 330h216c69 0 103 51 103 135c0 94 -34 146 -99 146h-220v-281zM196 0h-102v697h337c151 0 196 -105 196 -233c0 -114 -53 -221 -192 -221h-239v-243z" />
    <glyph glyph-name="Q" unicode="Q" horiz-adv-x="784" 
d="M392 714c219 0 324 -77 324 -361c0 -232 -68 -325 -210 -350c46 -9 116 -71 210 -195h-124c-80 118 -157 173 -204 178c-216 1 -320 82 -320 367c0 284 105 361 324 361zM392 77c166 0 216 48 216 274c0 234 -50 273 -216 273c-165 0 -215 -39 -215 -273
c0 -226 50 -274 215 -274z" />
    <glyph glyph-name="R" unicode="R" horiz-adv-x="691" 
d="M94 697h337c151 0 196 -93 196 -203c0 -99 -46 -185 -192 -187c49 -17 125 -117 239 -307h-127c-110 193 -188 284 -237 284h-114v-284h-102v697zM416 611h-220v-241h206c69 0 112 34 112 116s-36 125 -98 125z" />
    <glyph glyph-name="S" unicode="S" horiz-adv-x="623" 
d="M345 714c68 0 148 -12 202 -29l-24 -89c-36 14 -114 25 -178 25c-117 0 -180 -26 -180 -114c0 -61 33 -93 165 -104c164 -15 237 -75 237 -205c0 -156 -106 -212 -291 -212c-70 0 -153 12 -208 30l25 88c43 -14 119 -25 181 -25c117 0 185 25 185 114
c0 61 -32 105 -168 117c-161 13 -235 60 -235 188c0 157 106 216 289 216z" />
    <glyph glyph-name="T" unicode="T" horiz-adv-x="588" 
d="M346 610v-610h-103v610h-239v87h580v-87h-238z" />
    <glyph glyph-name="U" unicode="U" horiz-adv-x="740" 
d="M657 697v-471c0 -197 -105 -240 -287 -240c-181 0 -287 43 -287 240v471h103v-437c0 -145 43 -182 184 -182c142 0 185 41 185 182v437h102z" />
    <glyph glyph-name="V" unicode="V" horiz-adv-x="644" 
d="M322 94c81 194 154 409 214 603h105c-70 -221 -164 -477 -259 -697h-132c-71 227 -172 507 -256 697h113c71 -170 156 -405 215 -603z" />
    <glyph glyph-name="W" unicode="W" horiz-adv-x="940" 
d="M478 536c-31 -156 -88 -354 -143 -536h-129c-59 228 -136 507 -204 697h112c57 -170 114 -369 163 -578c48 160 119 412 152 578h98c44 -164 111 -412 142 -578c68 207 117 383 162 578h104c-55 -221 -129 -477 -204 -697h-130c-35 184 -84 381 -123 536z" />
    <glyph glyph-name="X" unicode="X" horiz-adv-x="661" 
d="M139 697c60 -77 127 -164 198 -257c65 87 128 175 185 257h123c-76 -109 -160 -225 -246 -341c91 -123 182 -249 257 -356h-126c-61 86 -126 177 -194 270c-71 -94 -141 -185 -208 -270h-123c80 101 176 228 269 353c-90 120 -183 242 -264 344h129z" />
    <glyph glyph-name="Y" unicode="Y" horiz-adv-x="622" 
d="M110 697c68 -85 141 -185 209 -286c73 96 144 196 202 286h121c-83 -122 -179 -255 -277 -379v-318h-102v318c-89 128 -191 265 -285 379h132z" />
    <glyph glyph-name="Z" unicode="Z" horiz-adv-x="615" 
d="M19 0v31c138 177 302 406 420 579h-395v87h550v-28c-122 -187 -291 -423 -420 -582h407v-87h-562z" />
    <glyph glyph-name="AE" unicode="&#xc6;" horiz-adv-x="965" 
d="M362 697h574v-87h-390v-198h235v-85h-235v-240h390v-87h-491v194h-327c-45 -66 -88 -131 -127 -194h-122c147 220 327 476 493 697zM445 613h-31c-79 -107 -160 -219 -238 -332h269v332z" />
    <glyph glyph-name="Eth" unicode="&#xd0;" horiz-adv-x="720" 
d="M41 323v73h54v301h240c219 0 326 -76 326 -346s-106 -351 -326 -351h-240v323h-54zM553 350c0 224 -58 258 -224 258h-133v-212h161v-73h-161v-236h133c166 0 224 50 224 263z" />
    <glyph glyph-name="IJ" unicode="&#x132;" horiz-adv-x="740" 
d="M95 697h101v-697h-101v697zM646 697l1 -505c0 -169 -100 -206 -201 -206c-51 0 -107 13 -147 29l25 92c31 -14 78 -24 115 -24c52 0 104 20 104 118v496h103z" />
    <glyph glyph-name="OE" unicode="&#x152;" horiz-adv-x="1104" 
d="M526 697h549v-87h-429c34 -43 53 -108 58 -198h216v-85h-215c-2 -115 -22 -192 -64 -240h434v-87h-561c-38 -10 -82 -14 -132 -14c-219 0 -324 80 -324 367c0 284 105 361 324 361c56 0 103 -5 144 -17zM382 77c166 0 216 48 216 274c0 234 -50 273 -216 273
c-165 0 -214 -39 -214 -273c0 -226 49 -274 214 -274z" />
    <glyph glyph-name="Oslash" unicode="&#xd8;" horiz-adv-x="764" 
d="M628 697h106l-80 -93c35 -56 52 -137 52 -251c0 -288 -105 -367 -324 -367c-92 0 -163 14 -215 51l-32 -37h-104l81 93c-37 57 -54 141 -54 260c0 284 105 361 324 361c92 0 164 -15 216 -53zM382 624c-159 0 -214 -38 -214 -255c0 -76 5 -143 21 -186l345 404
c-33 29 -82 37 -152 37zM382 77c159 0 216 46 216 257c0 77 -5 140 -21 181l-343 -401c32 -28 80 -37 148 -37z" />
    <glyph glyph-name="Thorn" unicode="&#xde;" horiz-adv-x="661" 
d="M95 697h101v-110h236c151 0 195 -105 195 -232c0 -115 -52 -222 -192 -222h-239v-133h-101v697zM196 220h216c69 0 103 52 103 135c0 94 -34 145 -99 145h-220v-280z" />
    <glyph glyph-name="Aacute" unicode="&#xc1;" horiz-adv-x="675" 
d="M567 0c-23 58 -50 124 -75 194h-323c-22 -66 -43 -131 -63 -194h-105c73 220 167 476 258 697h165c75 -230 176 -508 257 -697h-114zM351 613h-28c-43 -107 -85 -219 -125 -332h264c-40 110 -78 226 -111 332zM259 747l132 129h114l-158 -129h-88z" />
    <glyph glyph-name="Abreve" unicode="&#x102;" horiz-adv-x="675" 
d="M567 0c-23 58 -50 124 -75 194h-323c-22 -66 -43 -131 -63 -194h-105c73 220 167 476 258 697h165c75 -230 176 -508 257 -697h-114zM351 613h-28c-43 -107 -85 -219 -125 -332h264c-40 110 -78 226 -111 332zM194 871h70c0 -52 24 -63 73 -63c47 0 73 11 73 63h66
c0 -91 -48 -132 -141 -132c-91 0 -141 41 -141 132z" />
    <glyph glyph-name="Acircumflex" unicode="&#xc2;" horiz-adv-x="675" 
d="M567 0c-23 58 -50 124 -75 194h-323c-22 -66 -43 -131 -63 -194h-105c73 220 167 476 258 697h165c75 -230 176 -508 257 -697h-114zM351 613h-28c-43 -107 -85 -219 -125 -332h264c-40 110 -78 226 -111 332zM336 831l-75 -84h-94l122 129h97l126 -129h-98z" />
    <glyph glyph-name="Adieresis" unicode="&#xc4;" horiz-adv-x="675" 
d="M567 0c-23 58 -50 124 -75 194h-323c-22 -66 -43 -131 -63 -194h-105c73 220 167 476 258 697h165c75 -230 176 -508 257 -697h-114zM351 613h-28c-43 -107 -85 -219 -125 -332h264c-40 110 -78 226 -111 332zM235 855c38 0 50 -6 50 -47c0 -45 -12 -52 -50 -52
c-39 0 -51 7 -51 52c0 41 12 47 51 47zM436 855c38 0 50 -6 50 -47c0 -45 -12 -52 -50 -52c-39 0 -51 7 -51 52c0 41 12 47 51 47z" />
    <glyph glyph-name="Agrave" unicode="&#xc0;" horiz-adv-x="675" 
d="M567 0c-23 58 -50 124 -75 194h-323c-22 -66 -43 -131 -63 -194h-105c73 220 167 476 258 697h165c75 -230 176 -508 257 -697h-114zM351 613h-28c-43 -107 -85 -219 -125 -332h264c-40 110 -78 226 -111 332zM422 747h-97l-159 129h115z" />
    <glyph glyph-name="Amacron" unicode="&#x100;" horiz-adv-x="675" 
d="M567 0c-23 58 -50 124 -75 194h-323c-22 -66 -43 -131 -63 -194h-105c73 220 167 476 258 697h165c75 -230 176 -508 257 -697h-114zM351 613h-28c-43 -107 -85 -219 -125 -332h264c-40 110 -78 226 -111 332zM204 762v77h265v-77h-265z" />
    <glyph glyph-name="Aogonek" unicode="&#x104;" horiz-adv-x="675" 
d="M567 0c-23 58 -50 124 -75 194h-323c-22 -66 -43 -131 -63 -194h-105c73 220 167 476 258 697h165c75 -230 176 -508 257 -697h-38c-58 -38 -71 -61 -71 -98c0 -29 13 -43 65 -43c33 0 67 13 87 29l32 -56c-32 -24 -86 -35 -128 -35c-101 0 -130 30 -130 89
c0 46 30 88 92 114h-23zM351 613h-28c-43 -107 -85 -219 -125 -332h264c-40 110 -78 226 -111 332z" />
    <glyph glyph-name="Aring" unicode="&#xc5;" horiz-adv-x="675" 
d="M339 882c75 0 114 -29 114 -96c0 -49 -20 -77 -59 -89h30c75 -230 176 -508 257 -697h-114c-23 58 -50 124 -75 194h-323c-22 -66 -43 -131 -63 -194h-105c73 220 167 476 258 697h25c-39 12 -59 40 -59 89c0 67 31 96 114 96zM351 613h-28c-43 -107 -85 -219 -125 -332
h264c-40 110 -78 226 -111 332zM339 831c-42 0 -54 -16 -54 -47c0 -30 12 -48 54 -48c43 0 55 18 55 48c0 31 -12 47 -55 47z" />
    <glyph glyph-name="Atilde" unicode="&#xc3;" horiz-adv-x="675" 
d="M567 0c-23 58 -50 124 -75 194h-323c-22 -66 -43 -131 -63 -194h-105c73 220 167 476 258 697h165c75 -230 176 -508 257 -697h-114zM351 613h-28c-43 -107 -85 -219 -125 -332h264c-40 110 -78 226 -111 332zM466 873l51 -41c-20 -55 -60 -92 -115 -92s-97 61 -144 61
c-20 0 -38 -15 -55 -55l-45 44c28 50 57 79 104 79c61 0 99 -57 146 -57c24 0 42 14 58 61z" />
    <glyph glyph-name="Cacute" unicode="&#x106;" horiz-adv-x="597" 
d="M58 355c0 285 104 359 323 359c63 0 144 -11 197 -26l-25 -91c-40 15 -109 24 -160 24c-164 0 -225 -32 -225 -267c0 -234 61 -274 225 -274c51 0 120 9 160 23l25 -91c-54 -16 -134 -26 -197 -26c-219 0 -323 85 -323 369zM252 747l132 129h114l-158 -129h-88z" />
    <glyph glyph-name="Ccaron" unicode="&#x10c;" horiz-adv-x="597" 
d="M58 355c0 285 104 359 323 359c63 0 144 -11 197 -26l-25 -91c-40 15 -109 24 -160 24c-164 0 -225 -32 -225 -267c0 -234 61 -274 225 -274c51 0 120 9 160 23l25 -91c-54 -16 -134 -26 -197 -26c-219 0 -323 85 -323 369zM363 792l76 84h94l-122 -129h-97l-126 129h97z
" />
    <glyph glyph-name="Ccircumflex" unicode="&#x108;" horiz-adv-x="597" 
d="M58 355c0 285 104 359 323 359c63 0 144 -11 197 -26l-25 -91c-40 15 -109 24 -160 24c-164 0 -225 -32 -225 -267c0 -234 61 -274 225 -274c51 0 120 9 160 23l25 -91c-54 -16 -134 -26 -197 -26c-219 0 -323 85 -323 369zM372 831l-75 -84h-94l122 129h97l126 -129h-98
z" />
    <glyph glyph-name="Cdotaccent" unicode="&#x10a;" horiz-adv-x="597" 
d="M58 355c0 285 104 359 323 359c63 0 144 -11 197 -26l-25 -91c-40 15 -109 24 -160 24c-164 0 -225 -32 -225 -267c0 -234 61 -274 225 -274c51 0 120 9 160 23l25 -91c-54 -16 -134 -26 -197 -26c-219 0 -323 85 -323 369zM371 857c38 0 50 -6 50 -47
c0 -45 -12 -53 -50 -53c-39 0 -51 8 -51 53c0 41 12 47 51 47z" />
    <glyph glyph-name="Ccedilla" unicode="&#xc7;" horiz-adv-x="597" 
d="M58 355c0 285 104 359 323 359c63 0 144 -11 197 -26l-25 -91c-40 15 -109 24 -160 24c-164 0 -225 -32 -225 -267c0 -234 61 -274 225 -274c51 0 120 9 160 23l25 -91c-54 -16 -134 -26 -197 -26v-30c84 0 114 -17 114 -77c0 -63 -36 -82 -131 -82c-48 0 -77 5 -102 18
l20 48c19 -9 48 -14 79 -14c37 0 50 5 50 30c0 27 -25 33 -108 28l31 81c-187 12 -276 104 -276 367z" />
    <glyph glyph-name="Dcroat" unicode="&#x110;" horiz-adv-x="720" 
d="M41 323v73h54v301h240c219 0 326 -76 326 -346s-106 -351 -326 -351h-240v323h-54zM553 350c0 224 -58 258 -224 258h-133v-212h161v-73h-161v-236h133c166 0 224 50 224 263z" />
    <glyph glyph-name="Dcaron" unicode="&#x10e;" horiz-adv-x="720" 
d="M95 697h240c219 0 326 -76 326 -346s-106 -351 -326 -351h-240v697zM553 350c0 224 -58 260 -224 260h-133v-523h133c166 0 224 50 224 263zM335 792l76 84h94l-122 -129h-97l-126 129h97z" />
    <glyph glyph-name="Eacute" unicode="&#xc9;" horiz-adv-x="615" 
d="M95 697h491v-87h-390v-198h277v-86h-277v-239h390v-87h-491v697zM257 747l132 129h114l-158 -129h-88z" />
    <glyph glyph-name="Ebreve" unicode="&#x114;" horiz-adv-x="615" 
d="M95 697h491v-87h-390v-198h277v-86h-277v-239h390v-87h-491v697zM205 871h70c0 -52 24 -63 73 -63c47 0 73 11 73 63h66c0 -91 -48 -132 -141 -132c-91 0 -141 41 -141 132z" />
    <glyph glyph-name="Ecaron" unicode="&#x11a;" horiz-adv-x="615" 
d="M95 697h491v-87h-390v-198h277v-86h-277v-239h390v-87h-491v697zM352 792l76 84h94l-122 -129h-97l-126 129h97z" />
    <glyph glyph-name="Ecircumflex" unicode="&#xca;" horiz-adv-x="615" 
d="M95 697h491v-87h-390v-198h277v-86h-277v-239h390v-87h-491v697zM346 831l-75 -84h-94l122 129h97l126 -129h-98z" />
    <glyph glyph-name="Edieresis" unicode="&#xcb;" horiz-adv-x="615" 
d="M95 697h491v-87h-390v-198h277v-86h-277v-239h390v-87h-491v697zM248 855c38 0 50 -6 50 -47c0 -45 -12 -52 -50 -52c-39 0 -51 7 -51 52c0 41 12 47 51 47zM449 855c38 0 50 -6 50 -47c0 -45 -12 -52 -50 -52c-39 0 -51 7 -51 52c0 41 12 47 51 47z" />
    <glyph glyph-name="Edotaccent" unicode="&#x116;" horiz-adv-x="615" 
d="M95 697h491v-87h-390v-198h277v-86h-277v-239h390v-87h-491v697zM363 857c38 0 50 -6 50 -47c0 -45 -12 -53 -50 -53c-39 0 -51 8 -51 53c0 41 12 47 51 47z" />
    <glyph glyph-name="Egrave" unicode="&#xc8;" horiz-adv-x="615" 
d="M95 697h491v-87h-390v-198h277v-86h-277v-239h390v-87h-491v697zM464 747h-97l-159 129h115z" />
    <glyph glyph-name="Emacron" unicode="&#x112;" horiz-adv-x="615" 
d="M95 697h491v-87h-390v-198h277v-86h-277v-239h390v-87h-491v697zM208 762v77h265v-77h-265z" />
    <glyph glyph-name="Eogonek" unicode="&#x118;" horiz-adv-x="615" 
d="M95 697h491v-87h-390v-198h277v-86h-277v-239h390v-87h-38c-58 -38 -71 -61 -71 -98c0 -29 13 -43 65 -43c33 0 67 13 87 29l32 -56c-32 -24 -86 -35 -128 -35c-101 0 -130 30 -130 89c0 46 30 88 92 114h-400v697z" />
    <glyph glyph-name="Gbreve" unicode="&#x11e;" horiz-adv-x="689" 
d="M508 91v215h-167v85h270v-379c-55 -17 -159 -26 -230 -26c-219 0 -323 85 -323 369c0 285 111 359 332 359c63 0 149 -11 203 -26l-25 -90c-40 15 -121 24 -172 24c-167 0 -228 -33 -228 -268c0 -234 61 -276 225 -276c43 0 89 7 115 13zM234 871h70c0 -52 24 -63 73 -63
c47 0 73 11 73 63h66c0 -91 -48 -132 -141 -132c-91 0 -141 41 -141 132z" />
    <glyph glyph-name="Gcircumflex" unicode="&#x11c;" horiz-adv-x="689" 
d="M508 91v215h-167v85h270v-379c-55 -17 -159 -26 -230 -26c-219 0 -323 85 -323 369c0 285 111 359 332 359c63 0 149 -11 203 -26l-25 -90c-40 15 -121 24 -172 24c-167 0 -228 -33 -228 -268c0 -234 61 -276 225 -276c43 0 89 7 115 13zM374 831l-75 -84h-94l122 129h97
l126 -129h-98z" />
    <glyph glyph-name="Gcommaaccent" unicode="&#x122;" horiz-adv-x="689" 
d="M508 91v215h-167v85h270v-379c-55 -17 -159 -26 -230 -26c-219 0 -323 85 -323 369c0 285 111 359 332 359c63 0 149 -11 203 -26l-25 -90c-40 15 -121 24 -172 24c-167 0 -228 -33 -228 -268c0 -234 61 -276 225 -276c43 0 89 7 115 13zM455 -51l-82 -167h-72l48 167
h106z" />
    <glyph glyph-name="Gdotaccent" unicode="&#x120;" horiz-adv-x="689" 
d="M508 91v215h-167v85h270v-379c-55 -17 -159 -26 -230 -26c-219 0 -323 85 -323 369c0 285 111 359 332 359c63 0 149 -11 203 -26l-25 -90c-40 15 -121 24 -172 24c-167 0 -228 -33 -228 -268c0 -234 61 -276 225 -276c43 0 89 7 115 13zM382 857c38 0 50 -6 50 -47
c0 -45 -12 -53 -50 -53c-39 0 -51 8 -51 53c0 41 12 47 51 47z" />
    <glyph glyph-name="Hcircumflex" unicode="&#x124;" horiz-adv-x="725" 
d="M196 325v-325h-101v697h101v-279h334v279h101v-697h-101v325h-334zM355 831l-75 -84h-94l122 129h97l126 -129h-98z" />
    <glyph glyph-name="Hbar" unicode="&#x126;" horiz-adv-x="725" 
d="M31 530v81h64v86h101v-86h334v86h101v-86h65v-81h-65v-530h-101v325h-334v-325h-101v530h-64zM196 418h334v112h-334v-112z" />
    <glyph glyph-name="Iacute" unicode="&#xcd;" horiz-adv-x="290" 
d="M95 697h101v-697h-101v697zM71 747l132 129h114l-158 -129h-88z" />
    <glyph glyph-name="Ibreve" unicode="&#x12c;" horiz-adv-x="290" 
d="M95 697h101v-697h-101v697zM7 871h70c0 -52 24 -63 73 -63c47 0 73 11 73 63h66c0 -91 -48 -132 -141 -132c-91 0 -141 41 -141 132z" />
    <glyph glyph-name="Icircumflex" unicode="&#xce;" horiz-adv-x="290" 
d="M95 697h101v-697h-101v697zM143 831l-75 -84h-94l122 129h97l126 -129h-98z" />
    <glyph glyph-name="Idieresis" unicode="&#xcf;" horiz-adv-x="290" 
d="M95 697h101v-697h-101v697zM47 855c38 0 50 -6 50 -47c0 -45 -12 -52 -50 -52c-39 0 -51 7 -51 52c0 41 12 47 51 47zM248 855c38 0 50 -6 50 -47c0 -45 -12 -52 -50 -52c-39 0 -51 7 -51 52c0 41 12 47 51 47z" />
    <glyph glyph-name="Idotaccent" unicode="&#x130;" horiz-adv-x="290" 
d="M95 697h101v-697h-101v697zM147 857c38 0 50 -6 50 -47c0 -45 -12 -53 -50 -53c-39 0 -51 8 -51 53c0 41 12 47 51 47z" />
    <glyph glyph-name="Igrave" unicode="&#xcc;" horiz-adv-x="290" 
d="M95 697h101v-697h-101v697zM224 747h-97l-159 129h115z" />
    <glyph glyph-name="Imacron" unicode="&#x12a;" horiz-adv-x="290" 
d="M95 697h101v-697h-101v697zM14 762v77h265v-77h-265z" />
    <glyph glyph-name="Iogonek" unicode="&#x12e;" horiz-adv-x="290" 
d="M95 697h101v-697h-36c-58 -38 -71 -61 -71 -98c0 -29 13 -43 65 -43c33 0 67 13 87 29l32 -56c-32 -24 -86 -35 -128 -35c-101 0 -130 30 -130 89c0 46 30 88 92 114h-12v697z" />
    <glyph glyph-name="Itilde" unicode="&#x128;" horiz-adv-x="290" 
d="M95 697h101v-697h-101v697zM275 873l51 -41c-20 -55 -60 -92 -115 -92s-97 61 -144 61c-20 0 -38 -15 -55 -55l-45 44c28 50 57 79 104 79c61 0 99 -57 146 -57c24 0 42 14 58 61z" />
    <glyph glyph-name="Jcircumflex" unicode="&#x134;" horiz-adv-x="451" 
d="M357 697v-505c0 -169 -99 -206 -200 -206c-51 0 -107 13 -147 29l25 92c30 -14 78 -24 115 -24c52 0 104 20 104 118v496h103zM300 831l-75 -84h-94l122 129h97l126 -129h-98z" />
    <glyph glyph-name="Kcommaaccent" unicode="&#x136;" horiz-adv-x="639" 
d="M196 697v-697h-101v697h101zM649 0h-129c-154 231 -278 352 -323 368c48 31 167 149 301 329h128c-142 -180 -252 -291 -291 -320c37 -23 161 -146 314 -377zM395 -51l-82 -167h-72l48 167h106z" />
    <glyph glyph-name="Lacute" unicode="&#x139;" horiz-adv-x="548" 
d="M95 697h101v-608h345v-89h-446v697zM96 747l132 129h114l-158 -129h-88z" />
    <glyph glyph-name="Lcaron" unicode="&#x13d;" horiz-adv-x="548" 
d="M95 697h101v-608h345v-89h-446v697zM296 722h92l-56 -192h-57z" />
    <glyph glyph-name="Lcommaaccent" unicode="&#x13b;" horiz-adv-x="548" 
d="M95 697h101v-608h345v-89h-446v697zM380 -51l-82 -167h-72l48 167h106z" />
    <glyph glyph-name="Ldot" unicode="&#x13f;" horiz-adv-x="548" 
d="M95 697h101v-608h345v-89h-446v697zM334 442c38 0 50 -6 50 -47c0 -45 -12 -53 -50 -53s-51 8 -51 53c0 41 13 47 51 47z" />
    <glyph glyph-name="Lslash" unicode="&#x141;" horiz-adv-x="548" 
d="M358 541v-100l-162 -145v-207h345v-89h-446v208l-71 -63v99l71 64v389h101v-301z" />
    <glyph glyph-name="Nacute" unicode="&#x143;" horiz-adv-x="752" 
d="M195 574v-574h-101v697h136c112 -172 224 -362 325 -547v547h102v-697h-124c-102 189 -217 384 -338 574zM300 747l132 129h114l-158 -129h-88z" />
    <glyph glyph-name="Ncaron" unicode="&#x147;" horiz-adv-x="752" 
d="M195 574v-574h-101v697h136c112 -172 224 -362 325 -547v547h102v-697h-124c-102 189 -217 384 -338 574zM387 792l76 84h94l-122 -129h-97l-126 129h97z" />
    <glyph glyph-name="Ncommaaccent" unicode="&#x145;" horiz-adv-x="752" 
d="M195 574v-574h-101v697h136c112 -172 224 -362 325 -547v547h102v-697h-124c-102 189 -217 384 -338 574zM436 -51l-82 -167h-72l48 167h106z" />
    <glyph glyph-name="Ntilde" unicode="&#xd1;" horiz-adv-x="752" 
d="M195 574v-574h-101v697h136c112 -172 224 -362 325 -547v547h102v-697h-124c-102 189 -217 384 -338 574zM513 873l51 -41c-20 -55 -60 -92 -115 -92s-97 61 -144 61c-20 0 -38 -15 -55 -55l-45 44c28 50 57 79 104 79c61 0 99 -57 146 -57c24 0 42 14 58 61z" />
    <glyph glyph-name="Oacute" unicode="&#xd3;" horiz-adv-x="764" 
d="M382 714c219 0 324 -77 324 -361c0 -287 -104 -367 -324 -367c-219 0 -324 80 -324 367c0 284 105 361 324 361zM382 77c166 0 216 48 216 274c0 234 -50 273 -216 273c-165 0 -214 -39 -214 -273c0 -226 49 -274 214 -274zM257 747l132 129h114l-158 -129h-88z" />
    <glyph glyph-name="Obreve" unicode="&#x14e;" horiz-adv-x="764" 
d="M382 714c219 0 324 -77 324 -361c0 -287 -104 -367 -324 -367c-219 0 -324 80 -324 367c0 284 105 361 324 361zM382 77c166 0 216 48 216 274c0 234 -50 273 -216 273c-165 0 -214 -39 -214 -273c0 -226 49 -274 214 -274zM240 871h70c0 -52 24 -63 73 -63
c47 0 73 11 73 63h66c0 -91 -48 -132 -141 -132c-91 0 -141 41 -141 132z" />
    <glyph glyph-name="Ocircumflex" unicode="&#xd4;" horiz-adv-x="764" 
d="M382 714c219 0 324 -77 324 -361c0 -287 -104 -367 -324 -367c-219 0 -324 80 -324 367c0 284 105 361 324 361zM382 77c166 0 216 48 216 274c0 234 -50 273 -216 273c-165 0 -214 -39 -214 -273c0 -226 49 -274 214 -274zM377 831l-75 -84h-94l122 129h97l126 -129h-98
z" />
    <glyph glyph-name="Odieresis" unicode="&#xd6;" horiz-adv-x="764" 
d="M382 714c219 0 324 -77 324 -361c0 -287 -104 -367 -324 -367c-219 0 -324 80 -324 367c0 284 105 361 324 361zM382 77c166 0 216 48 216 274c0 234 -50 273 -216 273c-165 0 -214 -39 -214 -273c0 -226 49 -274 214 -274zM281 855c38 0 50 -6 50 -47
c0 -45 -12 -52 -50 -52c-39 0 -51 7 -51 52c0 41 12 47 51 47zM482 855c38 0 50 -6 50 -47c0 -45 -12 -52 -50 -52c-39 0 -51 7 -51 52c0 41 12 47 51 47z" />
    <glyph glyph-name="Ograve" unicode="&#xd2;" horiz-adv-x="764" 
d="M382 714c219 0 324 -77 324 -361c0 -287 -104 -367 -324 -367c-219 0 -324 80 -324 367c0 284 105 361 324 361zM382 77c166 0 216 48 216 274c0 234 -50 273 -216 273c-165 0 -214 -39 -214 -273c0 -226 49 -274 214 -274zM474 747h-97l-159 129h115z" />
    <glyph glyph-name="Ohungarumlaut" unicode="&#x150;" horiz-adv-x="764" 
d="M382 714c219 0 324 -77 324 -361c0 -287 -104 -367 -324 -367c-219 0 -324 80 -324 367c0 284 105 361 324 361zM382 77c166 0 216 48 216 274c0 234 -50 273 -216 273c-165 0 -214 -39 -214 -273c0 -226 49 -274 214 -274zM320 876h92l-111 -129h-69zM481 876h92
l-110 -129h-70z" />
    <glyph glyph-name="Omacron" unicode="&#x14c;" horiz-adv-x="764" 
d="M382 714c219 0 324 -77 324 -361c0 -287 -104 -367 -324 -367c-219 0 -324 80 -324 367c0 284 105 361 324 361zM382 77c166 0 216 48 216 274c0 234 -50 273 -216 273c-165 0 -214 -39 -214 -273c0 -226 49 -274 214 -274zM249 762v77h265v-77h-265z" />
    <glyph glyph-name="Otilde" unicode="&#xd5;" horiz-adv-x="764" 
d="M382 714c219 0 324 -77 324 -361c0 -287 -104 -367 -324 -367c-219 0 -324 80 -324 367c0 284 105 361 324 361zM382 77c166 0 216 48 216 274c0 234 -50 273 -216 273c-165 0 -214 -39 -214 -273c0 -226 49 -274 214 -274zM508 873l51 -41c-20 -55 -60 -92 -115 -92
s-97 61 -144 61c-20 0 -38 -15 -55 -55l-45 44c28 50 57 79 104 79c61 0 99 -57 146 -57c24 0 42 14 58 61z" />
    <glyph glyph-name="Racute" unicode="&#x154;" horiz-adv-x="691" 
d="M94 697h337c151 0 196 -93 196 -203c0 -99 -46 -185 -192 -187c49 -17 125 -117 239 -307h-127c-110 193 -188 284 -237 284h-114v-284h-102v697zM416 611h-220v-241h206c69 0 112 34 112 116s-36 125 -98 125zM238 747l132 129h114l-158 -129h-88z" />
    <glyph glyph-name="Rcaron" unicode="&#x158;" horiz-adv-x="691" 
d="M94 697h337c151 0 196 -93 196 -203c0 -99 -46 -185 -192 -187c49 -17 125 -117 239 -307h-127c-110 193 -188 284 -237 284h-114v-284h-102v697zM416 611h-220v-241h206c69 0 112 34 112 116s-36 125 -98 125zM345 792l76 84h94l-122 -129h-97l-126 129h97z" />
    <glyph glyph-name="Rcommaaccent" unicode="&#x156;" horiz-adv-x="691" 
d="M94 697h337c151 0 196 -93 196 -203c0 -99 -46 -185 -192 -187c49 -17 125 -117 239 -307h-127c-110 193 -188 284 -237 284h-114v-284h-102v697zM416 611h-220v-241h206c69 0 112 34 112 116s-36 125 -98 125zM414 -51l-82 -167h-72l48 167h106z" />
    <glyph glyph-name="Sacute" unicode="&#x15a;" horiz-adv-x="623" 
d="M345 714c68 0 148 -12 202 -29l-24 -89c-36 14 -114 25 -178 25c-117 0 -180 -26 -180 -114c0 -61 33 -93 165 -104c164 -15 237 -75 237 -205c0 -156 -106 -212 -291 -212c-70 0 -153 12 -208 30l25 88c43 -14 119 -25 181 -25c117 0 185 25 185 114
c0 61 -32 105 -168 117c-161 13 -235 60 -235 188c0 157 106 216 289 216zM224 747l132 129h114l-158 -129h-88z" />
    <glyph glyph-name="Scaron" unicode="&#x160;" horiz-adv-x="623" 
d="M345 714c68 0 148 -12 202 -29l-24 -89c-36 14 -114 25 -178 25c-117 0 -180 -26 -180 -114c0 -61 33 -93 165 -104c164 -15 237 -75 237 -205c0 -156 -106 -212 -291 -212c-70 0 -153 12 -208 30l25 88c43 -14 119 -25 181 -25c117 0 185 25 185 114
c0 61 -32 105 -168 117c-161 13 -235 60 -235 188c0 157 106 216 289 216zM325 792l76 84h94l-122 -129h-97l-126 129h97z" />
    <glyph glyph-name="Scedilla" unicode="&#x15e;" horiz-adv-x="623" 
d="M345 714c68 0 148 -12 202 -29l-24 -89c-36 14 -114 25 -178 25c-117 0 -180 -26 -180 -114c0 -61 33 -93 165 -104c164 -15 237 -75 237 -205c0 -142 -87 -200 -241 -210v-32c84 0 114 -17 114 -77c0 -63 -36 -82 -131 -82c-48 0 -77 5 -102 18l20 48
c19 -9 48 -14 79 -14c37 0 50 5 50 30c0 27 -25 33 -108 28l30 79h-2c-70 0 -153 12 -208 30l25 88c43 -14 119 -25 181 -25c117 0 185 25 185 114c0 61 -32 105 -168 117c-161 13 -235 60 -235 188c0 157 106 216 289 216z" />
    <glyph glyph-name="Scedilla" unicode="&#xf6c1;" horiz-adv-x="623" 
d="M345 714c68 0 148 -12 202 -29l-24 -89c-36 14 -114 25 -178 25c-117 0 -180 -26 -180 -114c0 -61 33 -93 165 -104c164 -15 237 -75 237 -205c0 -142 -87 -200 -241 -210v-32c84 0 114 -17 114 -77c0 -63 -36 -82 -131 -82c-48 0 -77 5 -102 18l20 48
c19 -9 48 -14 79 -14c37 0 50 5 50 30c0 27 -25 33 -108 28l30 79h-2c-70 0 -153 12 -208 30l25 88c43 -14 119 -25 181 -25c117 0 185 25 185 114c0 61 -32 105 -168 117c-161 13 -235 60 -235 188c0 157 106 216 289 216z" />
    <glyph glyph-name="Scircumflex" unicode="&#x15c;" horiz-adv-x="623" 
d="M345 714c68 0 148 -12 202 -29l-24 -89c-36 14 -114 25 -178 25c-117 0 -180 -26 -180 -114c0 -61 33 -93 165 -104c164 -15 237 -75 237 -205c0 -156 -106 -212 -291 -212c-70 0 -153 12 -208 30l25 88c43 -14 119 -25 181 -25c117 0 185 25 185 114
c0 61 -32 105 -168 117c-161 13 -235 60 -235 188c0 157 106 216 289 216zM326 831l-75 -84h-94l122 129h97l126 -129h-98z" />
    <glyph glyph-name="Scommaaccent" unicode="&#x218;" horiz-adv-x="623" 
d="M345 714c68 0 148 -12 202 -29l-24 -89c-36 14 -114 25 -178 25c-117 0 -180 -26 -180 -114c0 -61 33 -93 165 -104c164 -15 237 -75 237 -205c0 -156 -106 -212 -291 -212c-70 0 -153 12 -208 30l25 88c43 -14 119 -25 181 -25c117 0 185 25 185 114
c0 61 -32 105 -168 117c-161 13 -235 60 -235 188c0 157 106 216 289 216zM382 -51l-82 -167h-72l48 167h106z" />
    <glyph glyph-name="Tbar" unicode="&#x166;" horiz-adv-x="588" 
d="M158 243v77h85v287h-239v90h580v-90h-238v-287h77v-77h-77v-243h-103v243h-85z" />
    <glyph glyph-name="Tcaron" unicode="&#x164;" horiz-adv-x="588" 
d="M346 610v-610h-103v610h-239v87h580v-87h-238zM300 792l76 84h94l-122 -129h-97l-126 129h97z" />
    <glyph glyph-name="Tcommaaccent" unicode="&#x162;" horiz-adv-x="588" 
d="M346 610v-610h-103v610h-239v87h580v-87h-238zM371 -51l-82 -167h-72l48 167h106z" />
    <glyph glyph-name="Tcommaaccent" unicode="&#x21a;" horiz-adv-x="588" 
d="M346 610v-610h-103v610h-239v87h580v-87h-238zM371 -51l-82 -167h-72l48 167h106z" />
    <glyph glyph-name="Uacute" unicode="&#xda;" horiz-adv-x="740" 
d="M657 697v-471c0 -197 -105 -240 -287 -240c-181 0 -287 43 -287 240v471h103v-437c0 -145 43 -182 184 -182c142 0 185 41 185 182v437h102zM272 747l132 129h114l-158 -129h-88z" />
    <glyph glyph-name="Ubreve" unicode="&#x16c;" horiz-adv-x="740" 
d="M657 697v-471c0 -197 -105 -240 -287 -240c-181 0 -287 43 -287 240v471h103v-437c0 -145 43 -182 184 -182c142 0 185 41 185 182v437h102zM229 871h70c0 -52 24 -63 73 -63c47 0 73 11 73 63h66c0 -91 -48 -132 -141 -132c-91 0 -141 41 -141 132z" />
    <glyph glyph-name="Ucircumflex" unicode="&#xdb;" horiz-adv-x="740" 
d="M657 697v-471c0 -197 -105 -240 -287 -240c-181 0 -287 43 -287 240v471h103v-437c0 -145 43 -182 184 -182c142 0 185 41 185 182v437h102zM365 831l-75 -84h-94l122 129h97l126 -129h-98z" />
    <glyph glyph-name="Udieresis" unicode="&#xdc;" horiz-adv-x="740" 
d="M657 697v-471c0 -197 -105 -240 -287 -240c-181 0 -287 43 -287 240v471h103v-437c0 -145 43 -182 184 -182c142 0 185 41 185 182v437h102zM267 855c38 0 50 -6 50 -47c0 -45 -12 -52 -50 -52c-39 0 -51 7 -51 52c0 41 12 47 51 47zM468 855c38 0 50 -6 50 -47
c0 -45 -12 -52 -50 -52c-39 0 -51 7 -51 52c0 41 12 47 51 47z" />
    <glyph glyph-name="Ugrave" unicode="&#xd9;" horiz-adv-x="740" 
d="M657 697v-471c0 -197 -105 -240 -287 -240c-181 0 -287 43 -287 240v471h103v-437c0 -145 43 -182 184 -182c142 0 185 41 185 182v437h102zM480 747h-97l-159 129h115z" />
    <glyph glyph-name="Uhungarumlaut" unicode="&#x170;" horiz-adv-x="740" 
d="M657 697v-471c0 -197 -105 -240 -287 -240c-181 0 -287 43 -287 240v471h103v-437c0 -145 43 -182 184 -182c142 0 185 41 185 182v437h102zM301 876h92l-111 -129h-69zM462 876h92l-110 -129h-70z" />
    <glyph glyph-name="Umacron" unicode="&#x16a;" horiz-adv-x="740" 
d="M657 697v-471c0 -197 -105 -240 -287 -240c-181 0 -287 43 -287 240v471h103v-437c0 -145 43 -182 184 -182c142 0 185 41 185 182v437h102zM234 762v77h265v-77h-265z" />
    <glyph glyph-name="Uogonek" unicode="&#x172;" horiz-adv-x="740" 
d="M657 697v-471c0 -173 -81 -227 -223 -238c-43 -31 -53 -53 -53 -86c0 -29 13 -43 65 -43c33 0 67 13 87 29l32 -56c-32 -24 -86 -35 -128 -35c-101 0 -130 30 -130 89c0 38 21 74 64 100h-1c-181 0 -287 43 -287 240v471h103v-437c0 -145 43 -182 184 -182
c142 0 185 41 185 182v437h102z" />
    <glyph glyph-name="Uring" unicode="&#x16e;" horiz-adv-x="740" 
d="M657 697v-471c0 -197 -105 -240 -287 -240c-181 0 -287 43 -287 240v471h103v-437c0 -145 43 -182 184 -182c142 0 185 41 185 182v437h102zM368 882c75 0 114 -29 114 -96c0 -68 -39 -96 -114 -96s-114 28 -114 96c0 67 31 96 114 96zM368 831c-42 0 -54 -16 -54 -47
c0 -30 12 -48 54 -48c43 0 55 18 55 48c0 31 -12 47 -55 47z" />
    <glyph glyph-name="Utilde" unicode="&#x168;" horiz-adv-x="740" 
d="M657 697v-471c0 -197 -105 -240 -287 -240c-181 0 -287 43 -287 240v471h103v-437c0 -145 43 -182 184 -182c142 0 185 41 185 182v437h102zM500 873l51 -41c-20 -55 -60 -92 -115 -92s-97 61 -144 61c-20 0 -38 -15 -55 -55l-45 44c28 50 57 79 104 79
c61 0 99 -57 146 -57c24 0 42 14 58 61z" />
    <glyph glyph-name="Wcircumflex" unicode="&#x174;" horiz-adv-x="940" 
d="M478 536c-31 -156 -88 -354 -143 -536h-129c-59 228 -136 507 -204 697h112c57 -170 114 -369 163 -578c48 160 119 412 152 578h98c44 -164 111 -412 142 -578c68 207 117 383 162 578h104c-55 -221 -129 -477 -204 -697h-130c-35 184 -84 381 -123 536zM473 831
l-75 -84h-94l122 129h97l126 -129h-98z" />
    <glyph glyph-name="Wacute" unicode="&#x1e82;" horiz-adv-x="940" 
d="M478 536c-31 -156 -88 -354 -143 -536h-129c-59 228 -136 507 -204 697h112c57 -170 114 -369 163 -578c48 160 119 412 152 578h98c44 -164 111 -412 142 -578c68 207 117 383 162 578h104c-55 -221 -129 -477 -204 -697h-130c-35 184 -84 381 -123 536zM373 747
l132 129h114l-158 -129h-88z" />
    <glyph glyph-name="Wgrave" unicode="&#x1e80;" horiz-adv-x="940" 
d="M478 536c-31 -156 -88 -354 -143 -536h-129c-59 228 -136 507 -204 697h112c57 -170 114 -369 163 -578c48 160 119 412 152 578h98c44 -164 111 -412 142 -578c68 207 117 383 162 578h104c-55 -221 -129 -477 -204 -697h-130c-35 184 -84 381 -123 536zM571 747h-97
l-159 129h115z" />
    <glyph glyph-name="Wdieresis" unicode="&#x1e84;" horiz-adv-x="940" 
d="M478 536c-31 -156 -88 -354 -143 -536h-129c-59 228 -136 507 -204 697h112c57 -170 114 -369 163 -578c48 160 119 412 152 578h98c44 -164 111 -412 142 -578c68 207 117 383 162 578h104c-55 -221 -129 -477 -204 -697h-130c-35 184 -84 381 -123 536zM378 855
c38 0 50 -6 50 -47c0 -45 -12 -52 -50 -52c-39 0 -51 7 -51 52c0 41 12 47 51 47zM579 855c38 0 50 -6 50 -47c0 -45 -12 -52 -50 -52c-39 0 -51 7 -51 52c0 41 12 47 51 47z" />
    <glyph glyph-name="Yacute" unicode="&#xdd;" horiz-adv-x="622" 
d="M110 697c68 -85 141 -185 209 -286c73 96 144 196 202 286h121c-83 -122 -179 -255 -277 -379v-318h-102v318c-89 128 -191 265 -285 379h132zM238 747l132 129h114l-158 -129h-88z" />
    <glyph glyph-name="Ycircumflex" unicode="&#x176;" horiz-adv-x="622" 
d="M110 697c68 -85 141 -185 209 -286c73 96 144 196 202 286h121c-83 -122 -179 -255 -277 -379v-318h-102v318c-89 128 -191 265 -285 379h132zM313 831l-75 -84h-94l122 129h97l126 -129h-98z" />
    <glyph glyph-name="Ydieresis" unicode="&#x178;" horiz-adv-x="622" 
d="M110 697c68 -85 141 -185 209 -286c73 96 144 196 202 286h121c-83 -122 -179 -255 -277 -379v-318h-102v318c-89 128 -191 265 -285 379h132zM218 855c38 0 50 -6 50 -47c0 -45 -12 -52 -50 -52c-39 0 -51 7 -51 52c0 41 12 47 51 47zM419 855c38 0 50 -6 50 -47
c0 -45 -12 -52 -50 -52c-39 0 -51 7 -51 52c0 41 12 47 51 47z" />
    <glyph glyph-name="Ygrave" unicode="&#x1ef2;" horiz-adv-x="622" 
d="M110 697c68 -85 141 -185 209 -286c73 96 144 196 202 286h121c-83 -122 -179 -255 -277 -379v-318h-102v318c-89 128 -191 265 -285 379h132zM416 747h-97l-159 129h115z" />
    <glyph glyph-name="Zacute" unicode="&#x179;" horiz-adv-x="615" 
d="M19 0v31c138 177 302 406 420 579h-395v87h550v-28c-122 -187 -291 -423 -420 -582h407v-87h-562zM222 747l132 129h114l-158 -129h-88z" />
    <glyph glyph-name="Zcaron" unicode="&#x17d;" horiz-adv-x="615" 
d="M19 0v31c138 177 302 406 420 579h-395v87h550v-28c-122 -187 -291 -423 -420 -582h407v-87h-562zM325 792l76 84h94l-122 -129h-97l-126 129h97z" />
    <glyph glyph-name="Zdotaccent" unicode="&#x17b;" horiz-adv-x="615" 
d="M19 0v31c138 177 302 406 420 579h-395v87h550v-28c-122 -187 -291 -423 -420 -582h407v-87h-562zM313 857c38 0 50 -6 50 -47c0 -45 -12 -53 -50 -53c-39 0 -51 8 -51 53c0 41 12 47 51 47z" />
    <glyph glyph-name="AEacute" unicode="&#x1fc;" horiz-adv-x="965" 
d="M362 697h574v-87h-390v-198h235v-85h-235v-240h390v-87h-491v194h-327c-45 -66 -88 -131 -127 -194h-122c147 220 327 476 493 697zM445 613h-31c-79 -107 -160 -219 -238 -332h269v332zM456 747l132 129h114l-158 -129h-88z" />
    <glyph glyph-name="Oslashacute" unicode="&#x1fe;" horiz-adv-x="764" 
d="M278 747l132 129h114l-158 -129h-88zM628 697h106l-80 -93c35 -56 52 -137 52 -251c0 -288 -105 -367 -324 -367c-92 0 -163 14 -215 51l-32 -37h-104l81 93c-37 57 -54 141 -54 260c0 284 105 361 324 361c92 0 164 -15 216 -53zM382 624c-159 0 -214 -38 -214 -255
c0 -76 5 -143 21 -186l345 404c-33 29 -82 37 -152 37zM382 77c159 0 216 46 216 257c0 77 -5 140 -21 181l-343 -401c32 -28 80 -37 148 -37z" />
    <glyph glyph-name="a" unicode="a" horiz-adv-x="551" 
d="M480 324v-298c-60 -25 -149 -40 -217 -40c-153 0 -210 38 -210 170c0 144 84 167 200 167c48 0 87 -5 135 -15c0 106 -27 130 -138 130c-52 0 -109 -8 -150 -24l-20 82c45 12 114 25 185 25c149 0 215 -44 215 -197zM388 83v155c-32 8 -75 11 -118 11
c-86 0 -115 -9 -115 -88c0 -85 23 -98 114 -98c42 0 85 8 119 20z" />
    <glyph glyph-name="b" unicode="b" horiz-adv-x="580" 
d="M302 521c149 0 220 -61 220 -267c0 -208 -74 -268 -236 -268c-68 0 -159 15 -214 38v698h95v-238c26 18 71 37 135 37zM286 68c103 0 137 28 137 186c0 145 -34 182 -136 182c-94 0 -120 -34 -120 -68v-282c34 -12 78 -18 119 -18z" />
    <glyph glyph-name="c" unicode="c" horiz-adv-x="468" 
d="M430 96l25 -83c-39 -17 -104 -27 -150 -27c-156 0 -248 62 -248 270c0 207 93 265 248 265c46 0 112 -10 150 -24l-25 -84c-34 15 -79 23 -121 23c-103 0 -152 -25 -152 -182c0 -149 49 -183 152 -183c44 0 87 11 121 25z" />
    <glyph glyph-name="d" unicode="d" horiz-adv-x="580" 
d="M282 521c65 0 104 -17 130 -35v236h95v-698c-55 -23 -146 -38 -213 -38c-162 0 -237 59 -237 267c0 206 78 268 225 268zM294 70c41 0 86 6 118 18v281c0 44 -47 69 -119 69c-103 0 -136 -38 -136 -184c0 -155 34 -184 137 -184z" />
    <glyph glyph-name="e" unicode="e" horiz-adv-x="549" 
d="M289 521c147 0 215 -52 215 -264v-23h-346c1 -137 48 -165 151 -165c36 0 102 10 144 24l17 -79c-51 -16 -125 -28 -172 -28c-150 0 -241 62 -241 270c0 201 83 265 232 265zM291 442c-92 0 -124 -30 -132 -131h247c-5 108 -33 131 -115 131z" />
    <glyph glyph-name="f" unicode="f" horiz-adv-x="366" 
d="M190 544v-37h173v-84h-173v-423h-94v423h-87v84h87v40c0 155 89 174 185 174c39 0 83 -8 116 -19c-8 -25 -14 -51 -22 -77c-25 8 -65 13 -95 13c-52 0 -90 -15 -90 -94z" />
    <glyph glyph-name="g" unicode="g" horiz-adv-x="580" 
d="M413 131v290c-34 12 -79 18 -119 18c-103 0 -137 -27 -137 -185c0 -146 33 -183 136 -183c65 0 120 22 120 60zM507 483v-445c0 -193 -102 -241 -261 -241c-50 0 -130 13 -171 29l22 81c41 -16 106 -27 148 -27c107 0 168 30 168 145c-27 -19 -70 -38 -134 -38
c-149 0 -222 60 -222 267s75 267 237 267c67 0 158 -15 213 -38z" />
    <glyph glyph-name="g.2" horiz-adv-x="580" 
d="M511 491v-96c0 -132 -57 -221 -224 -221c-41 0 -76 5 -103 15c-4 -11 -7 -28 -7 -38c0 -42 20 -58 139 -61c157 -4 218 -39 218 -131c0 -120 -92 -162 -261 -162c-80 0 -159 11 -208 27l22 85c38 -15 110 -29 184 -29c120 0 163 20 163 71c0 44 -20 53 -149 57
c-164 5 -197 42 -197 117c0 35 11 65 26 89c-38 28 -56 71 -56 133c0 117 71 174 237 174c67 0 161 -12 216 -30zM416 426c-34 8 -80 13 -123 13c-101 0 -135 -20 -135 -94c0 -72 35 -92 131 -92c87 0 127 35 127 99v74z" />
    <glyph glyph-name="h" unicode="h" horiz-adv-x="568" 
d="M310 521c128 0 188 -45 188 -232v-289h-95v277c0 132 -33 157 -117 157c-62 0 -119 -20 -119 -58v-376h-95v722h95v-239c29 19 85 38 143 38z" />
    <glyph glyph-name="i" unicode="i" horiz-adv-x="239" 
d="M167 507v-507h-94v507h94zM121 709c42 0 56 -6 56 -50c0 -48 -14 -56 -56 -56c-43 0 -57 8 -57 56c0 44 14 50 57 50z" />
    <glyph glyph-name="j" unicode="j" horiz-adv-x="239" 
d="M-20 -203v82c61 0 92 17 92 101v527h95v-526c0 -149 -71 -184 -187 -184zM121 709c42 0 56 -7 56 -50c0 -48 -14 -56 -56 -56c-44 0 -57 8 -57 56c0 43 13 50 57 50z" />
    <glyph glyph-name="k" unicode="k" horiz-adv-x="515" 
d="M516 0h-115c-124 165 -203 256 -234 268v-268h-94v722h94v-454c31 23 108 106 217 239h115c-107 -131 -183 -209 -212 -230c28 -16 108 -108 229 -277z" />
    <glyph glyph-name="l" unicode="l" horiz-adv-x="245" 
d="M167 722v-586c0 -49 11 -77 44 -114l-80 -44c-39 40 -58 80 -58 154v590h94z" />
    <glyph glyph-name="m" unicode="m" horiz-adv-x="870" 
d="M167 420v-420h-94v479c58 25 144 42 215 42c60 0 103 -10 133 -34c56 20 126 34 183 34c145 0 196 -53 196 -237v-284h-94v272c0 133 -27 162 -121 162c-29 0 -78 -4 -119 -17c11 -33 18 -77 18 -133v-284h-95v272c0 133 -25 162 -119 162c-34 0 -73 -5 -103 -14z" />
    <glyph glyph-name="n" unicode="n" horiz-adv-x="568" 
d="M167 420v-420h-94v479c58 25 151 42 222 42c145 0 203 -53 203 -237v-284h-94v272c0 133 -27 162 -128 162c-41 0 -74 -4 -109 -14z" />
    <glyph glyph-name="o" unicode="o" 
d="M293 -14c-160 0 -236 62 -236 270c0 207 77 265 236 265c160 0 236 -58 236 -265c0 -208 -75 -270 -236 -270zM293 441c-103 0 -136 -28 -136 -187c0 -152 33 -188 136 -188s136 36 136 188c0 159 -33 187 -136 187z" />
    <glyph glyph-name="p" unicode="p" horiz-adv-x="580" 
d="M297 -14c-65 0 -104 18 -130 35v-213h-95v674c55 24 146 39 214 39c162 0 236 -59 236 -266s-78 -269 -225 -269zM286 437c-42 0 -87 -6 -119 -18v-280c0 -46 47 -70 119 -70c103 0 137 38 137 183c0 156 -34 185 -137 185z" />
    <glyph glyph-name="q" unicode="q" horiz-adv-x="580" 
d="M277 -14c-149 0 -220 61 -220 268s75 267 237 267c67 0 158 -15 213 -39v-674h-95v216c-26 -19 -70 -38 -135 -38zM294 439c-103 0 -137 -27 -137 -186c0 -145 33 -182 135 -182c73 0 120 22 120 69v280c-34 13 -78 19 -118 19z" />
    <glyph glyph-name="r" unicode="r" horiz-adv-x="361" 
d="M303 521c17 0 35 -1 52 -3v-92c-17 3 -38 5 -59 5c-68 0 -129 -23 -129 -62v-369h-95v507h95v-37c18 26 63 51 136 51z" />
    <glyph glyph-name="s" unicode="s" horiz-adv-x="497" 
d="M405 415c-40 14 -96 26 -146 26c-72 0 -110 -12 -110 -75c0 -43 28 -60 115 -67c127 -11 182 -51 182 -149c0 -126 -74 -164 -206 -164c-52 0 -133 11 -182 27l23 79c36 -14 105 -26 156 -26c77 0 112 17 112 78c0 45 -23 66 -116 74c-117 9 -181 39 -181 140
c0 126 79 163 209 163c51 0 115 -10 169 -27c-8 -26 -17 -52 -25 -79z" />
    <glyph glyph-name="t" unicode="t" horiz-adv-x="404" 
d="M193 423v-247c0 -74 20 -106 85 -106c35 0 66 6 92 15l18 -78c-32 -11 -83 -21 -125 -21c-115 0 -165 34 -165 184v253h-87v84h87v96l95 39v-135h178v-84h-178z" />
    <glyph glyph-name="u" unicode="u" horiz-adv-x="568" 
d="M402 88v419h94v-479c-59 -25 -152 -42 -222 -42c-145 0 -203 54 -203 237v284h94v-272c0 -133 27 -162 127 -162c41 0 75 4 110 15z" />
    <glyph glyph-name="v" unicode="v" horiz-adv-x="510" 
d="M254 93c54 137 106 277 143 414h98c-50 -167 -116 -340 -185 -507h-123c-50 173 -110 360 -175 507h101c50 -120 101 -273 141 -414z" />
    <glyph glyph-name="w" unicode="w" horiz-adv-x="821" 
d="M413 386c-29 -122 -76 -278 -114 -386h-123c-47 173 -104 355 -163 507h103c45 -117 92 -272 127 -412c39 112 99 317 120 412h102c37 -109 84 -291 112 -412c50 137 97 275 129 412h100c-46 -167 -106 -346 -173 -507h-123c-25 121 -69 299 -97 386z" />
    <glyph glyph-name="x" unicode="x" horiz-adv-x="521" 
d="M502 0h-110c-34 55 -77 118 -122 182c-49 -65 -97 -126 -143 -182h-109c63 72 134 164 201 253c-67 92 -139 183 -200 254h119c41 -51 88 -113 134 -177c48 64 88 126 121 177h108c-51 -76 -112 -164 -176 -250c63 -86 125 -177 177 -257z" />
    <glyph glyph-name="y" unicode="y" horiz-adv-x="510" 
d="M195 -24c-50 180 -118 386 -183 531h101c50 -117 102 -276 141 -417c55 137 107 281 143 417h98c-51 -172 -118 -347 -190 -517c-25 -60 -58 -131 -85 -182h-107c26 48 57 113 82 168z" />
    <glyph glyph-name="z" unicode="z" horiz-adv-x="496" 
d="M27 0v26c108 134 233 305 290 397h-274v84h420v-25c-80 -126 -216 -315 -285 -398h282v-84h-433z" />
    <glyph glyph-name="ae" unicode="&#xe6;" horiz-adv-x="874" 
d="M613 521c147 0 214 -52 214 -264v-23h-345c1 -137 48 -165 151 -165c36 0 103 10 144 24l18 -79c-52 -16 -125 -28 -172 -28c-70 0 -121 13 -158 41c-43 -28 -139 -41 -202 -41c-153 0 -210 38 -210 170c0 144 85 167 200 167c48 0 87 -5 135 -15c0 106 -23 129 -138 129
c-52 0 -109 -7 -150 -23l-21 81c42 11 104 26 170 26c104 0 162 -16 193 -74c30 54 84 74 171 74zM410 92c-22 51 -24 95 -24 146c-32 8 -73 11 -116 11c-86 0 -115 -9 -115 -88c0 -78 15 -98 114 -98c43 0 108 10 141 29zM617 442c-88 0 -126 -25 -134 -131h250
c-5 108 -34 131 -116 131z" />
    <glyph glyph-name="eth" unicode="&#xf0;" horiz-adv-x="624" 
d="M262 485l-41 57l72 46c-35 38 -74 74 -113 109h132c20 -18 41 -38 62 -59l68 45l40 -57l-61 -40c86 -99 150 -216 150 -361c0 -192 -60 -242 -260 -242c-183 0 -256 62 -256 233c0 154 64 206 257 206c26 0 74 -3 110 -8c-20 42 -49 82 -83 121zM319 335
c-128 0 -157 -23 -157 -126c0 -92 26 -137 149 -137c111 0 153 16 153 166c0 30 -3 59 -11 87c-41 7 -90 10 -134 10z" />
    <glyph glyph-name="germandbls" unicode="&#xdf;" horiz-adv-x="635" 
d="M316 714c163 0 246 -55 246 -174c0 -87 -21 -157 -145 -168c132 -6 162 -82 162 -182c0 -153 -84 -204 -276 -204c-16 0 -43 1 -60 3l10 84c14 -1 37 -3 53 -3c132 0 166 36 166 127c0 98 -39 132 -153 132h-30v81h29c107 0 140 36 140 115c0 75 -38 103 -143 103
c-97 0 -147 -37 -147 -105v-523h-95v532c0 128 101 182 243 182z" />
    <glyph glyph-name="ij" unicode="&#x133;" horiz-adv-x="478" 
d="M167 507v-507h-95v507h95zM121 709c42 0 56 -7 56 -50c0 -48 -14 -56 -56 -56c-44 0 -57 8 -57 56c0 43 13 50 57 50zM357 709c43 0 57 -7 57 -50c0 -48 -14 -56 -57 -56s-57 8 -57 56c0 43 14 50 57 50zM216 -203v82c62 0 93 17 93 101v527h95v-526
c0 -149 -71 -184 -188 -184z" />
    <glyph glyph-name="oe" unicode="&#x153;" horiz-adv-x="919" 
d="M658 521c147 0 214 -52 214 -264v-23h-345c2 -137 49 -165 151 -165c37 0 103 10 144 24l18 -79c-52 -16 -125 -28 -172 -28c-91 0 -152 20 -189 81c-33 -60 -93 -81 -187 -81c-159 0 -235 62 -235 270c0 207 77 265 235 265c91 0 151 -20 186 -77c34 53 92 77 180 77z
M292 441c-102 0 -135 -28 -135 -187c0 -153 33 -188 135 -188c104 0 137 35 137 188c0 159 -33 187 -137 187zM662 442c-87 0 -125 -25 -134 -131h250c-4 108 -34 131 -116 131z" />
    <glyph glyph-name="oslash" unicode="&#xf8;" 
d="M461 507h96l-63 -73c24 -41 35 -98 35 -178c0 -208 -76 -270 -237 -270c-63 0 -113 11 -150 34l-18 -20h-94l62 73c-24 41 -35 101 -35 183c0 207 77 265 235 265c64 0 114 -9 151 -34zM292 440c-99 0 -135 -26 -135 -174c0 -45 3 -79 10 -107l218 260
c-21 16 -51 21 -93 21zM292 67c104 0 136 36 136 185c0 38 -3 69 -9 95l-218 -258c20 -17 50 -22 91 -22z" />
    <glyph glyph-name="thorn" unicode="&#xfe;" horiz-adv-x="580" 
d="M297 -14c-65 0 -104 18 -130 35v-213h-95v907h95v-208c39 9 83 14 119 14c162 0 236 -59 236 -266s-78 -269 -225 -269zM286 437c-42 0 -87 -6 -119 -18v-280c0 -46 47 -70 119 -70c103 0 137 38 137 183c0 156 -34 185 -137 185z" />
    <glyph glyph-name="aacute" unicode="&#xe1;" horiz-adv-x="551" 
d="M480 324v-298c-60 -25 -149 -40 -217 -40c-153 0 -210 38 -210 170c0 144 84 167 200 167c48 0 87 -5 135 -15c0 106 -27 130 -138 130c-52 0 -109 -8 -150 -24l-20 82c45 12 114 25 185 25c149 0 215 -44 215 -197zM388 83v155c-32 8 -75 11 -118 11
c-86 0 -115 -9 -115 -88c0 -85 23 -98 114 -98c42 0 85 8 119 20zM283 568h-90l121 129h107z" />
    <glyph glyph-name="abreve" unicode="&#x103;" horiz-adv-x="551" 
d="M480 324v-298c-60 -25 -149 -40 -217 -40c-153 0 -210 38 -210 170c0 144 84 167 200 167c48 0 87 -5 135 -15c0 106 -27 130 -138 130c-52 0 -109 -8 -150 -24l-20 82c45 12 114 25 185 25c149 0 215 -44 215 -197zM388 83v155c-32 8 -75 11 -118 11
c-86 0 -115 -9 -115 -88c0 -85 23 -98 114 -98c42 0 85 8 119 20zM131 697h70c0 -52 24 -63 73 -63c47 0 73 11 73 63h66c0 -91 -48 -132 -141 -132c-91 0 -141 41 -141 132z" />
    <glyph glyph-name="acircumflex" unicode="&#xe2;" horiz-adv-x="551" 
d="M480 324v-298c-60 -25 -149 -40 -217 -40c-153 0 -210 38 -210 170c0 144 84 167 200 167c48 0 87 -5 135 -15c0 106 -27 130 -138 130c-52 0 -109 -8 -150 -24l-20 82c45 12 114 25 185 25c149 0 215 -44 215 -197zM388 83v155c-32 8 -75 11 -118 11
c-86 0 -115 -9 -115 -88c0 -85 23 -98 114 -98c42 0 85 8 119 20zM352 568l-76 81l-74 -81h-95l122 129h97l126 -129h-100z" />
    <glyph glyph-name="adieresis" unicode="&#xe4;" horiz-adv-x="551" 
d="M480 324v-298c-60 -25 -149 -40 -217 -40c-153 0 -210 38 -210 170c0 144 84 167 200 167c48 0 87 -5 135 -15c0 106 -27 130 -138 130c-52 0 -109 -8 -150 -24l-20 82c45 12 114 25 185 25c149 0 215 -44 215 -197zM388 83v155c-32 8 -75 11 -118 11
c-86 0 -115 -9 -115 -88c0 -85 23 -98 114 -98c42 0 85 8 119 20zM169 669c38 0 50 -6 50 -47c0 -45 -12 -52 -50 -52c-39 0 -51 7 -51 52c0 41 12 47 51 47zM370 669c38 0 50 -6 50 -47c0 -45 -12 -52 -50 -52c-39 0 -51 7 -51 52c0 41 12 47 51 47z" />
    <glyph glyph-name="agrave" unicode="&#xe0;" horiz-adv-x="551" 
d="M480 324v-298c-60 -25 -149 -40 -217 -40c-153 0 -210 38 -210 170c0 144 84 167 200 167c48 0 87 -5 135 -15c0 106 -27 130 -138 130c-52 0 -109 -8 -150 -24l-20 82c45 12 114 25 185 25c149 0 215 -44 215 -197zM388 83v155c-32 8 -75 11 -118 11
c-86 0 -115 -9 -115 -88c0 -85 23 -98 114 -98c42 0 85 8 119 20zM358 568h-89l-139 129h108z" />
    <glyph glyph-name="amacron" unicode="&#x101;" horiz-adv-x="551" 
d="M480 324v-298c-60 -25 -149 -40 -217 -40c-153 0 -210 38 -210 170c0 144 84 167 200 167c48 0 87 -5 135 -15c0 106 -27 130 -138 130c-52 0 -109 -8 -150 -24l-20 82c45 12 114 25 185 25c149 0 215 -44 215 -197zM388 83v155c-32 8 -75 11 -118 11
c-86 0 -115 -9 -115 -88c0 -85 23 -98 114 -98c42 0 85 8 119 20zM140 581v74h265v-74h-265z" />
    <glyph glyph-name="aogonek" unicode="&#x105;" horiz-adv-x="551" 
d="M480 324v-298c-12 -5 -25 -10 -39 -14h1c-74 -45 -90 -70 -90 -110c0 -29 13 -43 65 -43c33 0 67 13 87 29l32 -56c-32 -24 -86 -35 -128 -35c-101 0 -130 30 -130 89c0 42 25 81 78 108c-33 -5 -65 -8 -93 -8c-153 0 -210 38 -210 170c0 144 84 167 200 167
c48 0 87 -5 135 -15c0 106 -27 130 -138 130c-52 0 -109 -8 -150 -24l-20 82c45 12 114 25 185 25c149 0 215 -44 215 -197zM388 83v155c-32 8 -75 11 -118 11c-86 0 -115 -9 -115 -88c0 -85 23 -98 114 -98c42 0 85 8 119 20z" />
    <glyph glyph-name="aring" unicode="&#xe5;" horiz-adv-x="551" 
d="M480 324v-298c-60 -25 -149 -40 -217 -40c-153 0 -210 38 -210 170c0 144 84 167 200 167c48 0 87 -5 135 -15c0 106 -27 130 -138 130c-52 0 -109 -8 -150 -24l-20 82c45 12 114 25 185 25c149 0 215 -44 215 -197zM388 83v155c-32 8 -75 11 -118 11
c-86 0 -115 -9 -115 -88c0 -85 23 -98 114 -98c42 0 85 8 119 20zM280 739c75 0 114 -28 114 -96c0 -67 -39 -96 -114 -96s-114 29 -114 96c0 68 31 96 114 96zM280 689c-42 0 -54 -16 -54 -47c0 -30 12 -48 54 -48c43 0 55 18 55 48c0 31 -12 47 -55 47z" />
    <glyph glyph-name="atilde" unicode="&#xe3;" horiz-adv-x="551" 
d="M480 324v-298c-60 -25 -149 -40 -217 -40c-153 0 -210 38 -210 170c0 144 84 167 200 167c48 0 87 -5 135 -15c0 106 -27 130 -138 130c-52 0 -109 -8 -150 -24l-20 82c45 12 114 25 185 25c149 0 215 -44 215 -197zM388 83v155c-32 8 -75 11 -118 11
c-86 0 -115 -9 -115 -88c0 -85 23 -98 114 -98c42 0 85 8 119 20zM396 695l52 -41c-21 -56 -55 -92 -112 -92c-56 0 -91 60 -139 60c-21 0 -39 -15 -56 -56l-46 45c29 51 59 81 106 81c63 0 91 -59 138 -59c25 0 40 15 57 62z" />
    <glyph glyph-name="ccedilla" unicode="&#xe7;" horiz-adv-x="468" 
d="M430 96l25 -83c-39 -17 -104 -27 -150 -27h-7v-30c84 0 114 -17 114 -77c0 -63 -36 -82 -131 -82c-48 0 -77 5 -102 18l20 48c19 -9 48 -14 79 -14c37 0 50 5 50 30c0 27 -25 33 -108 28l31 82c-123 14 -194 84 -194 267c0 207 93 265 248 265c46 0 112 -10 150 -24
l-25 -84c-34 15 -79 23 -121 23c-103 0 -152 -25 -152 -182c0 -149 49 -183 152 -183c44 0 87 11 121 25z" />
    <glyph glyph-name="cacute" unicode="&#x107;" horiz-adv-x="468" 
d="M430 96l25 -83c-39 -17 -104 -27 -150 -27c-156 0 -248 62 -248 270c0 207 93 265 248 265c46 0 112 -10 150 -24l-25 -84c-34 15 -79 23 -121 23c-103 0 -152 -25 -152 -182c0 -149 49 -183 152 -183c44 0 87 11 121 25zM288 568h-90l121 129h107z" />
    <glyph glyph-name="ccaron" unicode="&#x10d;" horiz-adv-x="468" 
d="M430 96l25 -83c-39 -17 -104 -27 -150 -27c-156 0 -248 62 -248 270c0 207 93 265 248 265c46 0 112 -10 150 -24l-25 -84c-34 15 -79 23 -121 23c-103 0 -152 -25 -152 -182c0 -149 49 -183 152 -183c44 0 87 11 121 25zM220 697l76 -81l74 81h95l-122 -129h-97
l-126 129h100z" />
    <glyph glyph-name="ccircumflex" unicode="&#x109;" horiz-adv-x="468" 
d="M430 96l25 -83c-39 -17 -104 -27 -150 -27c-156 0 -248 62 -248 270c0 207 93 265 248 265c46 0 112 -10 150 -24l-25 -84c-34 15 -79 23 -121 23c-103 0 -152 -25 -152 -182c0 -149 49 -183 152 -183c44 0 87 11 121 25zM364 568l-76 81l-74 -81h-95l122 129h97
l126 -129h-100z" />
    <glyph glyph-name="cdotaccent" unicode="&#x10b;" horiz-adv-x="468" 
d="M430 96l25 -83c-39 -17 -104 -27 -150 -27c-156 0 -248 62 -248 270c0 207 93 265 248 265c46 0 112 -10 150 -24l-25 -84c-34 15 -79 23 -121 23c-103 0 -152 -25 -152 -182c0 -149 49 -183 152 -183c44 0 87 11 121 25zM297 669c38 0 50 -6 50 -47
c0 -45 -12 -52 -50 -52s-51 7 -51 52c0 41 13 47 51 47z" />
    <glyph glyph-name="dcroat" unicode="&#x111;" horiz-adv-x="580" 
d="M314 582v72h98v68h95v-68h47v-72h-47v-558c-55 -23 -146 -38 -213 -38c-162 0 -237 59 -237 267c0 206 78 268 225 268c65 0 104 -17 130 -35v96h-98zM294 70c41 0 86 6 118 18v281c0 44 -47 69 -119 69c-103 0 -136 -38 -136 -184c0 -155 34 -184 137 -184z" />
    <glyph glyph-name="dcaron" unicode="&#x10f;" horiz-adv-x="580" 
d="M282 521c65 0 104 -17 130 -35v236h95v-698c-55 -23 -146 -38 -213 -38c-162 0 -237 59 -237 267c0 206 78 268 225 268zM294 70c41 0 86 6 118 18v281c0 44 -47 69 -119 69c-103 0 -136 -38 -136 -184c0 -155 34 -184 137 -184zM561 722h92l-56 -192h-57z" />
    <glyph glyph-name="eacute" unicode="&#xe9;" horiz-adv-x="549" 
d="M289 521c147 0 215 -52 215 -264v-23h-346c1 -137 48 -165 151 -165c36 0 102 10 144 24l17 -79c-51 -16 -125 -28 -172 -28c-150 0 -241 62 -241 270c0 201 83 265 232 265zM291 442c-92 0 -124 -30 -132 -131h247c-5 108 -33 131 -115 131zM295 568h-90l121 129h107z
" />
    <glyph glyph-name="ebreve" unicode="&#x115;" horiz-adv-x="549" 
d="M289 521c147 0 215 -52 215 -264v-23h-346c1 -137 48 -165 151 -165c36 0 102 10 144 24l17 -79c-51 -16 -125 -28 -172 -28c-150 0 -241 62 -241 270c0 201 83 265 232 265zM291 442c-92 0 -124 -30 -132 -131h247c-5 108 -33 131 -115 131zM146 697h70
c0 -52 24 -63 73 -63c47 0 73 11 73 63h66c0 -91 -48 -132 -141 -132c-91 0 -141 41 -141 132z" />
    <glyph glyph-name="ecaron" unicode="&#x11b;" horiz-adv-x="549" 
d="M289 521c147 0 215 -52 215 -264v-23h-346c1 -137 48 -165 151 -165c36 0 102 10 144 24l17 -79c-51 -16 -125 -28 -172 -28c-150 0 -241 62 -241 270c0 201 83 265 232 265zM291 442c-92 0 -124 -30 -132 -131h247c-5 108 -33 131 -115 131zM216 697l76 -81l74 81h95
l-122 -129h-97l-126 129h100z" />
    <glyph glyph-name="ecircumflex" unicode="&#xea;" horiz-adv-x="549" 
d="M289 521c147 0 215 -52 215 -264v-23h-346c1 -137 48 -165 151 -165c36 0 102 10 144 24l17 -79c-51 -16 -125 -28 -172 -28c-150 0 -241 62 -241 270c0 201 83 265 232 265zM291 442c-92 0 -124 -30 -132 -131h247c-5 108 -33 131 -115 131zM367 568l-76 81l-74 -81h-95
l122 129h97l126 -129h-100z" />
    <glyph glyph-name="edieresis" unicode="&#xeb;" horiz-adv-x="549" 
d="M289 521c147 0 215 -52 215 -264v-23h-346c1 -137 48 -165 151 -165c36 0 102 10 144 24l17 -79c-51 -16 -125 -28 -172 -28c-150 0 -241 62 -241 270c0 201 83 265 232 265zM291 442c-92 0 -124 -30 -132 -131h247c-5 108 -33 131 -115 131zM191 669c38 0 50 -6 50 -47
c0 -45 -12 -52 -50 -52c-39 0 -51 7 -51 52c0 41 12 47 51 47zM392 669c38 0 50 -6 50 -47c0 -45 -12 -52 -50 -52c-39 0 -51 7 -51 52c0 41 12 47 51 47z" />
    <glyph glyph-name="edotaccent" unicode="&#x117;" horiz-adv-x="549" 
d="M289 521c147 0 215 -52 215 -264v-23h-346c1 -137 48 -165 151 -165c36 0 102 10 144 24l17 -79c-51 -16 -125 -28 -172 -28c-150 0 -241 62 -241 270c0 201 83 265 232 265zM291 442c-92 0 -124 -30 -132 -131h247c-5 108 -33 131 -115 131zM288 669c38 0 50 -6 50 -47
c0 -45 -12 -52 -50 -52s-51 7 -51 52c0 41 13 47 51 47z" />
    <glyph glyph-name="egrave" unicode="&#xe8;" horiz-adv-x="549" 
d="M289 521c147 0 215 -52 215 -264v-23h-346c1 -137 48 -165 151 -165c36 0 102 10 144 24l17 -79c-51 -16 -125 -28 -172 -28c-150 0 -241 62 -241 270c0 201 83 265 232 265zM291 442c-92 0 -124 -30 -132 -131h247c-5 108 -33 131 -115 131zM383 568h-89l-139 129h108z
" />
    <glyph glyph-name="emacron" unicode="&#x113;" horiz-adv-x="549" 
d="M289 521c147 0 215 -52 215 -264v-23h-346c1 -137 48 -165 151 -165c36 0 102 10 144 24l17 -79c-51 -16 -125 -28 -172 -28c-150 0 -241 62 -241 270c0 201 83 265 232 265zM291 442c-92 0 -124 -30 -132 -131h247c-5 108 -33 131 -115 131zM159 581v74h265v-74h-265z
" />
    <glyph glyph-name="eogonek" unicode="&#x119;" horiz-adv-x="549" 
d="M289 521c147 0 215 -52 215 -264v-23h-346c1 -137 48 -165 151 -165c36 0 102 10 144 24l17 -79c-12 -4 -25 -7 -38 -10c-63 -40 -77 -64 -77 -102c0 -29 13 -43 65 -43c33 0 67 13 87 29l32 -56c-32 -24 -86 -35 -128 -35c-101 0 -130 30 -130 89c0 40 23 77 71 104
c-20 -3 -39 -4 -54 -4c-150 0 -241 62 -241 270c0 201 83 265 232 265zM291 442c-92 0 -124 -30 -132 -131h247c-5 108 -33 131 -115 131z" />
    <glyph glyph-name="gacute" horiz-adv-x="580" 
d="M413 131v290c-34 12 -79 18 -119 18c-103 0 -137 -27 -137 -185c0 -146 33 -183 136 -183c65 0 120 22 120 60zM507 483v-445c0 -193 -102 -241 -261 -241c-50 0 -130 13 -171 29l22 81c41 -16 106 -27 148 -27c107 0 168 30 168 145c-27 -19 -70 -38 -134 -38
c-149 0 -222 60 -222 267s75 267 237 267c67 0 158 -15 213 -38zM295 568h-90l121 129h107z" />
    <glyph glyph-name="gbreve" unicode="&#x11f;" horiz-adv-x="580" 
d="M413 131v290c-34 12 -79 18 -119 18c-103 0 -137 -27 -137 -185c0 -146 33 -183 136 -183c65 0 120 22 120 60zM507 483v-445c0 -193 -102 -241 -261 -241c-50 0 -130 13 -171 29l22 81c41 -16 106 -27 148 -27c107 0 168 30 168 145c-27 -19 -70 -38 -134 -38
c-149 0 -222 60 -222 267s75 267 237 267c67 0 158 -15 213 -38zM157 697h70c0 -52 24 -63 73 -63c47 0 73 11 73 63h66c0 -91 -48 -132 -141 -132c-91 0 -141 41 -141 132z" />
    <glyph glyph-name="gcircumflex" unicode="&#x11d;" horiz-adv-x="580" 
d="M413 131v290c-34 12 -79 18 -119 18c-103 0 -137 -27 -137 -185c0 -146 33 -183 136 -183c65 0 120 22 120 60zM507 483v-445c0 -193 -102 -241 -261 -241c-50 0 -130 13 -171 29l22 81c41 -16 106 -27 148 -27c107 0 168 30 168 145c-27 -19 -70 -38 -134 -38
c-149 0 -222 60 -222 267s75 267 237 267c67 0 158 -15 213 -38zM373 568l-76 81l-74 -81h-95l122 129h97l126 -129h-100z" />
    <glyph glyph-name="gcommaaccent" unicode="&#x123;" horiz-adv-x="580" 
d="M233 580l81 167h72l-48 -167h-105zM413 131v290c-34 12 -79 18 -119 18c-103 0 -137 -27 -137 -185c0 -146 33 -183 136 -183c65 0 120 22 120 60zM507 483v-445c0 -193 -102 -241 -261 -241c-50 0 -130 13 -171 29l22 81c41 -16 106 -27 148 -27c107 0 168 30 168 145
c-27 -19 -70 -38 -134 -38c-149 0 -222 60 -222 267s75 267 237 267c67 0 158 -15 213 -38z" />
    <glyph glyph-name="gdotaccent" unicode="&#x121;" horiz-adv-x="580" 
d="M413 131v290c-34 12 -79 18 -119 18c-103 0 -137 -27 -137 -185c0 -146 33 -183 136 -183c65 0 120 22 120 60zM507 483v-445c0 -193 -102 -241 -261 -241c-50 0 -130 13 -171 29l22 81c41 -16 106 -27 148 -27c107 0 168 30 168 145c-27 -19 -70 -38 -134 -38
c-149 0 -222 60 -222 267s75 267 237 267c67 0 158 -15 213 -38zM293 669c38 0 50 -6 50 -47c0 -45 -12 -52 -50 -52s-51 7 -51 52c0 41 13 47 51 47z" />
    <glyph glyph-name="hcircumflex" unicode="&#x125;" horiz-adv-x="568" 
d="M310 521c128 0 188 -45 188 -232v-289h-95v277c0 132 -33 157 -117 157c-62 0 -119 -20 -119 -58v-376h-95v722h95v-239c29 19 85 38 143 38zM185 831l-75 -84h-94l122 129h97l126 -129h-98z" />
    <glyph glyph-name="hbar" unicode="&#x127;" horiz-adv-x="568" 
d="M167 376v-376h-95v588h-57v69h57v65h95v-65h112v-69h-112v-105c28 20 86 37 148 37c123 0 183 -47 183 -231v-289h-95v277c0 134 -36 157 -117 157c-62 0 -119 -21 -119 -58z" />
    <glyph glyph-name="iacute" unicode="&#xed;" horiz-adv-x="239" 
d="M137 568h-90l121 129h107zM167 507v-507h-94v507h94z" />
    <glyph glyph-name="ibreve" unicode="&#x12d;" horiz-adv-x="239" 
d="M-20 697h70c0 -52 24 -63 73 -63c47 0 73 11 73 63h66c0 -91 -48 -132 -141 -132c-91 0 -141 41 -141 132zM167 507v-507h-94v507h94z" />
    <glyph glyph-name="icircumflex" unicode="&#xee;" horiz-adv-x="239" 
d="M167 507v-507h-94v507h94zM193 568l-76 81l-74 -81h-95l122 129h97l126 -129h-100z" />
    <glyph glyph-name="idieresis" unicode="&#xef;" horiz-adv-x="239" 
d="M20 669c38 0 50 -6 50 -47c0 -45 -12 -52 -50 -52c-39 0 -51 7 -51 52c0 41 12 47 51 47zM221 669c38 0 50 -6 50 -47c0 -45 -12 -52 -50 -52c-39 0 -51 7 -51 52c0 41 12 47 51 47zM167 507v-507h-94v507h94z" />
    <glyph glyph-name="igrave" unicode="&#xec;" horiz-adv-x="239" 
d="M187 568h-89l-139 129h108zM167 507v-507h-94v507h94z" />
    <glyph glyph-name="imacron" unicode="&#x12b;" horiz-adv-x="239" 
d="M-12 581v74h265v-74h-265zM167 507v-507h-94v507h94z" />
    <glyph glyph-name="iogonek" unicode="&#x12f;" horiz-adv-x="239" 
d="M167 507v-507h-26c-58 -38 -71 -61 -71 -98c0 -29 13 -43 65 -43c33 0 67 13 87 29l32 -56c-32 -24 -86 -35 -128 -35c-101 0 -130 30 -130 89c0 46 30 88 92 114h-15v507h94zM121 709c42 0 56 -6 56 -50c0 -48 -14 -56 -56 -56c-43 0 -57 8 -57 56c0 44 14 50 57 50z
" />
    <glyph glyph-name="itilde" unicode="&#x129;" horiz-adv-x="239" 
d="M245 695l52 -41c-21 -56 -55 -92 -112 -92c-56 0 -91 60 -139 60c-21 0 -39 -15 -56 -56l-46 45c29 51 59 81 106 81c63 0 91 -59 138 -59c25 0 40 15 57 62zM167 507v-507h-94v507h94z" />
    <glyph glyph-name="dotlessi" unicode="&#x131;" horiz-adv-x="239" 
d="M167 507v-507h-94v507h94z" />
    <glyph glyph-name="dotlessj" unicode="&#xf6be;" horiz-adv-x="239" 
d="M-20 -203v82c61 0 92 17 92 101v527h95v-526c0 -149 -71 -184 -187 -184z" />
    <glyph glyph-name="jcircumflex" unicode="&#x135;" horiz-adv-x="239" 
d="M195 568c-25 27 -51 53 -76 81c-24 -28 -49 -54 -74 -81h-95l122 129h97l126 -129h-100zM-20 -203v82c61 0 92 17 92 101v527h95v-526c0 -149 -71 -184 -187 -184z" />
    <glyph glyph-name="kcommaaccent" unicode="&#x137;" horiz-adv-x="515" 
d="M516 0h-115c-124 165 -203 256 -234 268v-268h-94v722h94v-454c31 23 108 106 217 239h115c-107 -131 -183 -209 -212 -230c28 -16 108 -108 229 -277zM336 -51l-82 -167h-72l48 167h106z" />
    <glyph glyph-name="lacute" unicode="&#x13a;" horiz-adv-x="245" 
d="M167 722v-586c0 -49 11 -77 44 -114l-80 -44c-39 40 -58 80 -58 154v590h94zM57 747l132 129h114l-158 -129h-88z" />
    <glyph glyph-name="lcaron" unicode="&#x13e;" horiz-adv-x="245" 
d="M167 722v-586c0 -49 11 -77 44 -114l-80 -44c-39 40 -58 80 -58 154v590h94zM225 722h92l-56 -192h-57z" />
    <glyph glyph-name="lcommaaccent" unicode="&#x13c;" horiz-adv-x="245" 
d="M167 722v-586c0 -49 11 -77 44 -114l-80 -44c-39 40 -58 80 -58 154v590h94zM216 -51l-82 -167h-72l48 167h106z" />
    <glyph glyph-name="ldot" unicode="&#x140;" horiz-adv-x="245" 
d="M167 722v-586c0 -49 11 -77 44 -114l-80 -44c-39 40 -58 80 -58 154v590h94zM252 447c38 0 50 -6 50 -47c0 -45 -12 -52 -50 -52s-51 7 -51 52c0 41 13 47 51 47z" />
    <glyph glyph-name="lslash" unicode="&#x142;" horiz-adv-x="245" 
d="M167 722v-245l73 81v-100l-73 -80v-242c0 -51 10 -78 43 -114l-79 -44c-49 49 -59 87 -59 201v96l-68 -75v99l68 75v348h95z" />
    <glyph glyph-name="nacute" unicode="&#x144;" horiz-adv-x="568" 
d="M167 420v-420h-94v479c58 25 151 42 222 42c145 0 203 -53 203 -237v-284h-94v272c0 133 -27 162 -128 162c-41 0 -74 -4 -109 -14zM268 568h-90l121 129h107z" />
    <glyph glyph-name="napostrophe" unicode="&#x149;" horiz-adv-x="568" 
d="M167 420v-420h-94v479c58 25 151 42 222 42c145 0 203 -53 203 -237v-284h-94v272c0 133 -27 162 -128 162c-41 0 -74 -4 -109 -14zM210 714l-82 -167h-72l48 167h106z" />
    <glyph glyph-name="ncaron" unicode="&#x148;" horiz-adv-x="568" 
d="M167 420v-420h-94v479c58 25 151 42 222 42c145 0 203 -53 203 -237v-284h-94v272c0 133 -27 162 -128 162c-41 0 -74 -4 -109 -14zM209 697l76 -81l74 81h95l-122 -129h-97l-126 129h100z" />
    <glyph glyph-name="ncommaaccent" unicode="&#x146;" horiz-adv-x="568" 
d="M167 420v-420h-94v479c58 25 151 42 222 42c145 0 203 -53 203 -237v-284h-94v272c0 133 -27 162 -128 162c-41 0 -74 -4 -109 -14zM343 -51l-82 -167h-72l48 167h106z" />
    <glyph glyph-name="ntilde" unicode="&#xf1;" horiz-adv-x="568" 
d="M167 420v-420h-94v479c58 25 151 42 222 42c145 0 203 -53 203 -237v-284h-94v272c0 133 -27 162 -128 162c-41 0 -74 -4 -109 -14zM407 695l52 -41c-21 -56 -55 -92 -112 -92c-56 0 -91 60 -139 60c-21 0 -39 -15 -56 -56l-46 45c29 51 59 81 106 81
c63 0 91 -59 138 -59c25 0 40 15 57 62z" />
    <glyph glyph-name="oacute" unicode="&#xf3;" 
d="M293 -14c-160 0 -236 62 -236 270c0 207 77 265 236 265c160 0 236 -58 236 -265c0 -208 -75 -270 -236 -270zM293 441c-103 0 -136 -28 -136 -187c0 -152 33 -188 136 -188s136 36 136 188c0 159 -33 187 -136 187zM297 568h-90l121 129h107z" />
    <glyph glyph-name="obreve" unicode="&#x14f;" 
d="M293 -14c-160 0 -236 62 -236 270c0 207 77 265 236 265c160 0 236 -58 236 -265c0 -208 -75 -270 -236 -270zM293 441c-103 0 -136 -28 -136 -187c0 -152 33 -188 136 -188s136 36 136 188c0 159 -33 187 -136 187zM151 697h70c0 -52 24 -63 73 -63c47 0 73 11 73 63h66
c0 -91 -48 -132 -141 -132c-91 0 -141 41 -141 132z" />
    <glyph glyph-name="ocircumflex" unicode="&#xf4;" 
d="M293 -14c-160 0 -236 62 -236 270c0 207 77 265 236 265c160 0 236 -58 236 -265c0 -208 -75 -270 -236 -270zM293 441c-103 0 -136 -28 -136 -187c0 -152 33 -188 136 -188s136 36 136 188c0 159 -33 187 -136 187zM364 568l-76 81l-74 -81h-95l122 129h97l126 -129
h-100z" />
    <glyph glyph-name="odieresis" unicode="&#xf6;" 
d="M293 -14c-160 0 -236 62 -236 270c0 207 77 265 236 265c160 0 236 -58 236 -265c0 -208 -75 -270 -236 -270zM293 441c-103 0 -136 -28 -136 -187c0 -152 33 -188 136 -188s136 36 136 188c0 159 -33 187 -136 187zM192 669c38 0 50 -6 50 -47c0 -45 -12 -52 -50 -52
c-39 0 -51 7 -51 52c0 41 12 47 51 47zM393 669c38 0 50 -6 50 -47c0 -45 -12 -52 -50 -52c-39 0 -51 7 -51 52c0 41 12 47 51 47z" />
    <glyph glyph-name="ograve" unicode="&#xf2;" 
d="M293 -14c-160 0 -236 62 -236 270c0 207 77 265 236 265c160 0 236 -58 236 -265c0 -208 -75 -270 -236 -270zM293 441c-103 0 -136 -28 -136 -187c0 -152 33 -188 136 -188s136 36 136 188c0 159 -33 187 -136 187zM390 568h-89l-139 129h108z" />
    <glyph glyph-name="ohungarumlaut" unicode="&#x151;" 
d="M293 -14c-160 0 -236 62 -236 270c0 207 77 265 236 265c160 0 236 -58 236 -265c0 -208 -75 -270 -236 -270zM293 441c-103 0 -136 -28 -136 -187c0 -152 33 -188 136 -188s136 36 136 188c0 159 -33 187 -136 187zM234 697h92l-111 -129h-69zM400 697h92l-110 -129h-70
z" />
    <glyph glyph-name="omacron" unicode="&#x14d;" 
d="M293 -14c-160 0 -236 62 -236 270c0 207 77 265 236 265c160 0 236 -58 236 -265c0 -208 -75 -270 -236 -270zM293 441c-103 0 -136 -28 -136 -187c0 -152 33 -188 136 -188s136 36 136 188c0 159 -33 187 -136 187zM159 581v74h265v-74h-265z" />
    <glyph glyph-name="otilde" unicode="&#xf5;" 
d="M293 -14c-160 0 -236 62 -236 270c0 207 77 265 236 265c160 0 236 -58 236 -265c0 -208 -75 -270 -236 -270zM293 441c-103 0 -136 -28 -136 -187c0 -152 33 -188 136 -188s136 36 136 188c0 159 -33 187 -136 187zM416 695l52 -41c-21 -56 -55 -92 -112 -92
c-56 0 -91 60 -139 60c-21 0 -39 -15 -56 -56l-46 45c29 51 59 81 106 81c63 0 91 -59 138 -59c25 0 40 15 57 62z" />
    <glyph glyph-name="racute" unicode="&#x155;" horiz-adv-x="361" 
d="M303 521c17 0 35 -1 52 -3v-92c-17 3 -38 5 -59 5c-68 0 -129 -23 -129 -62v-369h-95v507h95v-37c18 26 63 51 136 51zM232 568h-90l121 129h107z" />
    <glyph glyph-name="rcaron" unicode="&#x159;" horiz-adv-x="361" 
d="M303 521c17 0 35 -1 52 -3v-92c-17 3 -38 5 -59 5c-68 0 -129 -23 -129 -62v-369h-95v507h95v-37c18 26 63 51 136 51zM146 697l76 -81l74 81h95l-122 -129h-97l-126 129h100z" />
    <glyph glyph-name="rcommaaccent" unicode="&#x157;" horiz-adv-x="361" 
d="M303 521c17 0 35 -1 52 -3v-92c-17 3 -38 5 -59 5c-68 0 -129 -23 -129 -62v-369h-95v507h95v-37c18 26 63 51 136 51zM194 -51l-82 -167h-72l48 167h106z" />
    <glyph glyph-name="sacute" unicode="&#x15b;" horiz-adv-x="497" 
d="M405 415c-40 14 -96 26 -146 26c-72 0 -110 -12 -110 -75c0 -43 28 -60 115 -67c127 -11 182 -51 182 -149c0 -126 -74 -164 -206 -164c-52 0 -133 11 -182 27l23 79c36 -14 105 -26 156 -26c77 0 112 17 112 78c0 45 -23 66 -116 74c-117 9 -181 39 -181 140
c0 126 79 163 209 163c51 0 115 -10 169 -27c-8 -26 -17 -52 -25 -79zM248 568h-90l121 129h107z" />
    <glyph glyph-name="scaron" unicode="&#x161;" horiz-adv-x="497" 
d="M405 415c-40 14 -96 26 -146 26c-72 0 -110 -12 -110 -75c0 -43 28 -60 115 -67c127 -11 182 -51 182 -149c0 -126 -74 -164 -206 -164c-52 0 -133 11 -182 27l23 79c36 -14 105 -26 156 -26c77 0 112 17 112 78c0 45 -23 66 -116 74c-117 9 -181 39 -181 140
c0 126 79 163 209 163c51 0 115 -10 169 -27c-8 -26 -17 -52 -25 -79zM180 697l76 -81l74 81h95l-122 -129h-97l-126 129h100z" />
    <glyph glyph-name="scedilla" unicode="&#x15f;" horiz-adv-x="497" 
d="M405 415c-40 14 -96 26 -146 26c-72 0 -110 -12 -110 -75c0 -43 28 -60 115 -67c127 -11 182 -51 182 -149c0 -121 -68 -160 -189 -164v-30c84 0 114 -17 114 -77c0 -63 -36 -82 -131 -82c-48 0 -77 5 -102 18l20 48c19 -9 48 -14 79 -14c37 0 50 5 50 30
c0 27 -25 33 -108 28l31 80c-50 3 -112 13 -152 26l23 79c36 -14 105 -26 156 -26c77 0 112 17 112 78c0 45 -23 66 -116 74c-117 9 -181 39 -181 140c0 126 79 163 209 163c51 0 115 -10 169 -27c-8 -26 -17 -52 -25 -79z" />
    <glyph glyph-name="scedilla" unicode="&#xf6c2;" horiz-adv-x="497" 
d="M405 415c-40 14 -96 26 -146 26c-72 0 -110 -12 -110 -75c0 -43 28 -60 115 -67c127 -11 182 -51 182 -149c0 -121 -68 -160 -189 -164v-30c84 0 114 -17 114 -77c0 -63 -36 -82 -131 -82c-48 0 -77 5 -102 18l20 48c19 -9 48 -14 79 -14c37 0 50 5 50 30
c0 27 -25 33 -108 28l31 80c-50 3 -112 13 -152 26l23 79c36 -14 105 -26 156 -26c77 0 112 17 112 78c0 45 -23 66 -116 74c-117 9 -181 39 -181 140c0 126 79 163 209 163c51 0 115 -10 169 -27c-8 -26 -17 -52 -25 -79z" />
    <glyph glyph-name="scircumflex" unicode="&#x15d;" horiz-adv-x="497" 
d="M405 415c-40 14 -96 26 -146 26c-72 0 -110 -12 -110 -75c0 -43 28 -60 115 -67c127 -11 182 -51 182 -149c0 -126 -74 -164 -206 -164c-52 0 -133 11 -182 27l23 79c36 -14 105 -26 156 -26c77 0 112 17 112 78c0 45 -23 66 -116 74c-117 9 -181 39 -181 140
c0 126 79 163 209 163c51 0 115 -10 169 -27c-8 -26 -17 -52 -25 -79zM331 568l-76 81l-74 -81h-95l122 129h97l126 -129h-100z" />
    <glyph glyph-name="scommaaccent" unicode="&#x219;" horiz-adv-x="497" 
d="M405 415c-40 14 -96 26 -146 26c-72 0 -110 -12 -110 -75c0 -43 28 -60 115 -67c127 -11 182 -51 182 -149c0 -126 -74 -164 -206 -164c-52 0 -133 11 -182 27l23 79c36 -14 105 -26 156 -26c77 0 112 17 112 78c0 45 -23 66 -116 74c-117 9 -181 39 -181 140
c0 126 79 163 209 163c51 0 115 -10 169 -27c-8 -26 -17 -52 -25 -79zM316 -51l-82 -167h-72l48 167h106z" />
    <glyph glyph-name="tbar" unicode="&#x167;" horiz-adv-x="404" 
d="M36 223v72h62v129h-87v83h87v96l95 39v-135h178v-83h-178v-129h108v-72h-108v-47c0 -74 21 -105 86 -105c35 0 65 5 91 14l18 -78c-32 -12 -82 -21 -124 -21c-115 0 -166 34 -166 184v53h-62z" />
    <glyph glyph-name="tcaron" unicode="&#x165;" horiz-adv-x="404" 
d="M193 423v-247c0 -74 20 -106 85 -106c35 0 66 6 92 15l18 -78c-32 -11 -83 -21 -125 -21c-115 0 -165 34 -165 184v253h-87v84h87v96l95 39v-135h178v-84h-178zM289 768h92l-56 -192h-57z" />
    <glyph glyph-name="tcommaaccent" unicode="&#x163;" horiz-adv-x="404" 
d="M193 423v-247c0 -74 20 -106 85 -106c35 0 66 6 92 15l18 -78c-32 -11 -83 -21 -125 -21c-115 0 -165 34 -165 184v253h-87v84h87v96l95 39v-135h178v-84h-178zM278 -51l-82 -167h-72l48 167h106z" />
    <glyph glyph-name="tcommaaccent" unicode="&#x21b;" horiz-adv-x="404" 
d="M193 423v-247c0 -74 20 -106 85 -106c35 0 66 6 92 15l18 -78c-32 -11 -83 -21 -125 -21c-115 0 -165 34 -165 184v253h-87v84h87v96l95 39v-135h178v-84h-178zM278 -51l-82 -167h-72l48 167h106z" />
    <glyph glyph-name="uacute" unicode="&#xfa;" horiz-adv-x="568" 
d="M402 88v419h94v-479c-59 -25 -152 -42 -222 -42c-145 0 -203 54 -203 237v284h94v-272c0 -133 27 -162 127 -162c41 0 75 4 110 15zM293 568h-90l121 129h107z" />
    <glyph glyph-name="ubreve" unicode="&#x16d;" horiz-adv-x="568" 
d="M402 88v419h94v-479c-59 -25 -152 -42 -222 -42c-145 0 -203 54 -203 237v284h94v-272c0 -133 27 -162 127 -162c41 0 75 4 110 15zM142 697h70c0 -52 24 -63 73 -63c47 0 73 11 73 63h66c0 -91 -48 -132 -141 -132c-91 0 -141 41 -141 132z" />
    <glyph glyph-name="ucircumflex" unicode="&#xfb;" horiz-adv-x="568" 
d="M402 88v419h94v-479c-59 -25 -152 -42 -222 -42c-145 0 -203 54 -203 237v284h94v-272c0 -133 27 -162 127 -162c41 0 75 4 110 15zM366 568l-76 81l-74 -81h-95l122 129h97l126 -129h-100z" />
    <glyph glyph-name="udieresis" unicode="&#xfc;" horiz-adv-x="568" 
d="M402 88v419h94v-479c-59 -25 -152 -42 -222 -42c-145 0 -203 54 -203 237v284h94v-272c0 -133 27 -162 127 -162c41 0 75 4 110 15zM191 669c38 0 50 -6 50 -47c0 -45 -12 -52 -50 -52c-39 0 -51 7 -51 52c0 41 12 47 51 47zM392 669c38 0 50 -6 50 -47
c0 -45 -12 -52 -50 -52c-39 0 -51 7 -51 52c0 41 12 47 51 47z" />
    <glyph glyph-name="ugrave" unicode="&#xf9;" horiz-adv-x="568" 
d="M402 88v419h94v-479c-59 -25 -152 -42 -222 -42c-145 0 -203 54 -203 237v284h94v-272c0 -133 27 -162 127 -162c41 0 75 4 110 15zM378 568h-89l-139 129h108z" />
    <glyph glyph-name="uhungarumlaut" unicode="&#x171;" horiz-adv-x="568" 
d="M402 88v419h94v-479c-59 -25 -152 -42 -222 -42c-145 0 -203 54 -203 237v284h94v-272c0 -133 27 -162 127 -162c41 0 75 4 110 15zM221 697h92l-111 -129h-69zM387 697h92l-110 -129h-70z" />
    <glyph glyph-name="umacron" unicode="&#x16b;" horiz-adv-x="568" 
d="M402 88v419h94v-479c-59 -25 -152 -42 -222 -42c-145 0 -203 54 -203 237v284h94v-272c0 -133 27 -162 127 -162c41 0 75 4 110 15zM149 581v74h265v-74h-265z" />
    <glyph glyph-name="uogonek" unicode="&#x173;" horiz-adv-x="568" 
d="M402 88v419h94v-479c-17 -8 -37 -14 -59 -20c-69 -42 -84 -67 -84 -106c0 -29 13 -43 65 -43c33 0 67 13 87 29l32 -56c-32 -24 -86 -35 -128 -35c-101 0 -130 30 -130 89c0 41 24 80 75 106c-28 -4 -56 -6 -80 -6c-145 0 -203 54 -203 237v284h94v-272
c0 -133 27 -162 127 -162c41 0 75 4 110 15z" />
    <glyph glyph-name="uring" unicode="&#x16f;" horiz-adv-x="568" 
d="M402 88v419h94v-479c-59 -25 -152 -42 -222 -42c-145 0 -203 54 -203 237v284h94v-272c0 -133 27 -162 127 -162c41 0 75 4 110 15zM289 739c75 0 114 -28 114 -96c0 -67 -39 -96 -114 -96s-114 29 -114 96c0 68 31 96 114 96zM289 689c-42 0 -54 -16 -54 -47
c0 -30 12 -48 54 -48c43 0 55 18 55 48c0 31 -12 47 -55 47z" />
    <glyph glyph-name="utilde" unicode="&#x169;" horiz-adv-x="568" 
d="M402 88v419h94v-479c-59 -25 -152 -42 -222 -42c-145 0 -203 54 -203 237v284h94v-272c0 -133 27 -162 127 -162c41 0 75 4 110 15zM411 695l52 -41c-21 -56 -55 -92 -112 -92c-56 0 -91 60 -139 60c-21 0 -39 -15 -56 -56l-46 45c29 51 59 81 106 81
c63 0 91 -59 138 -59c25 0 40 15 57 62z" />
    <glyph glyph-name="wcircumflex" unicode="&#x175;" horiz-adv-x="821" 
d="M413 386c-29 -122 -76 -278 -114 -386h-123c-47 173 -104 355 -163 507h103c45 -117 92 -272 127 -412c39 112 99 317 120 412h102c37 -109 84 -291 112 -412c50 137 97 275 129 412h100c-46 -167 -106 -346 -173 -507h-123c-25 121 -69 299 -97 386zM486 568l-76 81
l-74 -81h-95l122 129h97l126 -129h-100z" />
    <glyph glyph-name="wacute" unicode="&#x1e83;" horiz-adv-x="784" 
 />
    <glyph glyph-name="wgrave" unicode="&#x1e81;" horiz-adv-x="821" 
d="M413 386c-29 -122 -76 -278 -114 -386h-123c-47 173 -104 355 -163 507h103c45 -117 92 -272 127 -412c39 112 99 317 120 412h102c37 -109 84 -291 112 -412c50 137 97 275 129 412h100c-46 -167 -106 -346 -173 -507h-123c-25 121 -69 299 -97 386zM518 568h-89
l-139 129h108z" />
    <glyph glyph-name="wdieresis" unicode="&#x1e85;" horiz-adv-x="821" 
d="M413 386c-29 -122 -76 -278 -114 -386h-123c-47 173 -104 355 -163 507h103c45 -117 92 -272 127 -412c39 112 99 317 120 412h102c37 -109 84 -291 112 -412c50 137 97 275 129 412h100c-46 -167 -106 -346 -173 -507h-123c-25 121 -69 299 -97 386zM310 669
c38 0 50 -6 50 -47c0 -45 -12 -52 -50 -52c-39 0 -51 7 -51 52c0 41 12 47 51 47zM511 669c38 0 50 -6 50 -47c0 -45 -12 -52 -50 -52c-39 0 -51 7 -51 52c0 41 12 47 51 47z" />
    <glyph glyph-name="yacute" unicode="&#xfd;" horiz-adv-x="510" 
d="M195 -24c-50 180 -118 386 -183 531h101c50 -117 102 -276 141 -417c55 137 107 281 143 417h98c-51 -172 -118 -347 -190 -517c-25 -60 -58 -131 -85 -182h-107c26 48 57 113 82 168zM277 568h-90l121 129h107z" />
    <glyph glyph-name="ycircumflex" unicode="&#x177;" horiz-adv-x="510" 
d="M195 -24c-50 180 -118 386 -183 531h101c50 -117 102 -276 141 -417c55 137 107 281 143 417h98c-51 -172 -118 -347 -190 -517c-25 -60 -58 -131 -85 -182h-107c26 48 57 113 82 168zM329 568l-76 81l-74 -81h-95l122 129h97l126 -129h-100z" />
    <glyph glyph-name="ydieresis" unicode="&#xff;" horiz-adv-x="510" 
d="M195 -24c-50 180 -118 386 -183 531h101c50 -117 102 -276 141 -417c55 137 107 281 143 417h98c-51 -172 -118 -347 -190 -517c-25 -60 -58 -131 -85 -182h-107c26 48 57 113 82 168zM157 669c38 0 50 -6 50 -47c0 -45 -12 -52 -50 -52c-39 0 -51 7 -51 52
c0 41 12 47 51 47zM358 669c38 0 50 -6 50 -47c0 -45 -12 -52 -50 -52c-39 0 -51 7 -51 52c0 41 12 47 51 47z" />
    <glyph glyph-name="ygrave" unicode="&#x1ef3;" horiz-adv-x="510" 
d="M195 -24c-50 180 -118 386 -183 531h101c50 -117 102 -276 141 -417c55 137 107 281 143 417h98c-51 -172 -118 -347 -190 -517c-25 -60 -58 -131 -85 -182h-107c26 48 57 113 82 168zM367 568h-89l-139 129h108z" />
    <glyph glyph-name="zacute" unicode="&#x17a;" horiz-adv-x="496" 
d="M27 0v26c108 134 233 305 290 397h-274v84h420v-25c-80 -126 -216 -315 -285 -398h282v-84h-433zM277 568h-90l121 129h107z" />
    <glyph glyph-name="zcaron" unicode="&#x17e;" horiz-adv-x="496" 
d="M27 0v26c108 134 233 305 290 397h-274v84h420v-25c-80 -126 -216 -315 -285 -398h282v-84h-433zM179 697l76 -81l74 81h95l-122 -129h-97l-126 129h100z" />
    <glyph glyph-name="zdotaccent" unicode="&#x17c;" horiz-adv-x="496" 
d="M27 0v26c108 134 233 305 290 397h-274v84h420v-25c-80 -126 -216 -315 -285 -398h282v-84h-433zM253 669c38 0 50 -6 50 -47c0 -45 -12 -52 -50 -52s-51 7 -51 52c0 41 13 47 51 47z" />
    <glyph glyph-name="aeacute" unicode="&#x1fd;" horiz-adv-x="874" 
d="M613 521c147 0 214 -52 214 -264v-23h-345c1 -137 48 -165 151 -165c36 0 103 10 144 24l18 -79c-52 -16 -125 -28 -172 -28c-70 0 -121 13 -158 41c-43 -28 -139 -41 -202 -41c-153 0 -210 38 -210 170c0 144 85 167 200 167c48 0 87 -5 135 -15c0 106 -23 129 -138 129
c-52 0 -109 -7 -150 -23l-21 81c42 11 104 26 170 26c104 0 162 -16 193 -74c30 54 84 74 171 74zM410 92c-22 51 -24 95 -24 146c-32 8 -73 11 -116 11c-86 0 -115 -9 -115 -88c0 -78 15 -98 114 -98c43 0 108 10 141 29zM617 442c-88 0 -126 -25 -134 -131h250
c-5 108 -34 131 -116 131zM417 568h-90l121 129h107z" />
    <glyph glyph-name="oslashacute" unicode="&#x1ff;" 
 />
    <glyph glyph-name="dollar" unicode="$" horiz-adv-x="623" 
d="M274 825h74v-140c62 0 137 -8 186 -23l-25 -88c-31 14 -104 23 -161 24v-206c139 -19 205 -76 205 -189c0 -125 -73 -181 -205 -195v-145h-74v142c-63 0 -141 8 -191 24l25 87c38 -13 113 -23 166 -23v217c-136 15 -202 61 -202 174c0 124 73 183 202 197v144zM169 492
c0 -57 24 -81 105 -91v193c-67 -9 -105 -38 -105 -102zM454 199c0 57 -22 88 -106 101v-203c67 9 106 36 106 102z" />
    <glyph glyph-name="cent" unicode="&#xa2;" horiz-adv-x="462" 
d="M251 754h80v-103c38 -2 88 -12 119 -23l-24 -81c-28 12 -62 18 -95 20v-364c33 2 67 10 95 22l24 -81c-32 -14 -80 -23 -119 -26v-122h-80v124c-123 14 -194 84 -194 267s72 249 194 262v105zM152 385c0 -118 32 -163 99 -176v352c-67 -12 -99 -52 -99 -176z" />
    <glyph glyph-name="sterling" unicode="&#xa3;" horiz-adv-x="604" 
d="M41 307v82h64v95c0 152 84 229 267 229c68 0 148 -12 202 -29l-24 -89c-36 15 -114 26 -178 26c-117 0 -165 -41 -165 -133v-99h194v-82h-194v-220h349v-87h-451v307h-64z" />
    <glyph glyph-name="yen" unicode="&#xa5;" horiz-adv-x="622" 
d="M73 295v77h152c-80 111 -165 224 -247 325h132c68 -85 141 -185 209 -286c73 96 144 196 202 286h121c-73 -106 -153 -218 -236 -325h146v-77h-187v-86h187v-77h-187v-132h-102v132h-190v77h190v86h-190z" />
    <glyph glyph-name="florin" unicode="&#x192;" horiz-adv-x="366" 
d="M255 544l-7 -37h175l-17 -83h-175l-96 -460c-30 -145 -136 -166 -224 -166c-40 0 -85 9 -116 22l38 79c25 -14 67 -22 98 -22c49 0 97 19 114 102l91 445h-89l17 83h89l8 40c31 155 134 174 221 174c40 0 84 -8 115 -19l-38 -77c-22 8 -64 13 -94 13
c-47 0 -96 -18 -110 -94z" />
    <glyph glyph-name="Euro" unicode="&#x20ac;" horiz-adv-x="622" 
d="M97 300v109h-87l20 73h74c26 180 117 232 299 232c63 0 144 -11 197 -26l-25 -91c-40 15 -109 24 -160 24c-126 0 -184 -20 -203 -139h270l-20 -73h-259v-109h221l-20 -72h-192c19 -123 75 -148 203 -148c51 0 120 9 160 23l25 -91c-54 -16 -134 -26 -197 -26
c-182 0 -273 58 -300 242h-93l20 72h67z" />
    <glyph glyph-name="numbersign" unicode="#" horiz-adv-x="685" 
d="M42 445l5 77h135l11 175h89l-10 -175h151l11 175h90l-11 -175h142l-5 -77h-142l-12 -177h145l-5 -76h-144l-12 -192h-90l12 192h-151l-13 -192h-89l12 192h-134l6 76h132l12 177h-135zM266 445l-11 -177h152l11 177h-152z" />
    <glyph glyph-name="currency" unicode="&#xa4;" horiz-adv-x="661" 
d="M336 84c-50 0 -90 6 -123 23l-85 -107l-76 61l86 108c-25 42 -37 101 -37 185c0 80 11 137 35 178l-83 109l85 56l76 -101c32 17 72 23 122 23c48 0 88 -6 119 -20l68 98l85 -55l-74 -105c26 -41 39 -100 39 -183c0 -85 -13 -144 -39 -186l79 -107l-83 -61l-76 104
c-31 -14 -71 -20 -118 -20zM336 535c-103 0 -138 -24 -138 -183c0 -153 35 -184 138 -184c104 0 139 31 139 184c0 159 -35 183 -139 183z" />
    <glyph glyph-name="zero" unicode="0" horiz-adv-x="624" 
d="M312 714c170 0 254 -74 254 -356c0 -286 -83 -372 -254 -372c-170 0 -255 86 -255 372c0 282 85 356 255 356zM311 77c116 0 153 54 153 281c0 234 -37 269 -153 269c-112 0 -151 -35 -151 -269c0 -227 39 -281 151 -281z" />
    <glyph glyph-name="one" unicode="1" horiz-adv-x="624" 
d="M391 0h-101v588l-156 -71l-30 82l287 125v-724z" />
    <glyph glyph-name="two" unicode="2" horiz-adv-x="624" 
d="M190 87h353v-87h-489v81c363 283 386 314 386 426c0 90 -44 115 -153 115c-59 0 -141 -12 -178 -27c-8 30 -16 59 -23 89c59 17 136 30 207 30c172 0 254 -49 254 -200c0 -143 -53 -211 -357 -427z" />
    <glyph glyph-name="three" unicode="3" horiz-adv-x="624" 
d="M391 372c132 -6 162 -82 162 -182c0 -153 -84 -204 -276 -204c-72 0 -160 13 -221 27l21 85c51 -15 126 -22 187 -22c145 0 179 33 179 124s-46 127 -154 127h-89v85h88c103 0 145 30 145 111c0 73 -34 101 -165 101c-60 0 -138 -9 -184 -24l-22 87c58 13 138 27 218 27
c195 0 259 -55 259 -174c0 -88 -24 -157 -148 -168z" />
    <glyph glyph-name="four" unicode="4" horiz-adv-x="619" 
d="M377 275v342c-81 -102 -179 -264 -222 -342h222zM475 697v-422h96v-84h-96v-191h-98v191h-351v28c70 128 200 340 304 478h145z" />
    <glyph glyph-name="five" unicode="5" horiz-adv-x="624" 
d="M201 610v-190c30 3 63 5 98 5c192 0 255 -62 255 -216c0 -171 -79 -223 -273 -223c-73 0 -151 13 -210 27l22 85c49 -15 115 -22 176 -22c142 0 175 32 175 125c0 104 -30 137 -164 137c-60 0 -129 -6 -177 -16v375h413v-87h-315z" />
    <glyph glyph-name="six" unicode="6" horiz-adv-x="624" 
d="M559 686l-25 -90c-40 15 -102 25 -160 25c-137 0 -196 -34 -205 -210c48 9 113 14 156 14c193 0 257 -62 257 -216c0 -171 -73 -223 -256 -223c-194 0 -265 82 -265 367s98 361 312 361c61 0 133 -12 186 -28zM168 324c3 -208 53 -248 158 -248c122 0 149 34 149 125
c0 99 -29 137 -147 137c-54 0 -114 -5 -160 -14z" />
    <glyph glyph-name="seven" unicode="7" horiz-adv-x="624" 
d="M593 697v-33c-101 -163 -239 -465 -307 -664h-116c78 213 197 475 287 610h-378v87h514z" />
    <glyph glyph-name="eight" unicode="8" horiz-adv-x="624" 
d="M312 70c114 0 148 35 148 127c0 96 -41 132 -148 132s-148 -36 -148 -132c0 -92 34 -127 148 -127zM312 410c95 0 134 33 134 115c0 76 -34 104 -134 104s-134 -28 -134 -104c0 -82 40 -115 134 -115zM312 -14c-176 0 -255 52 -255 204c0 100 30 176 163 182
c-125 11 -146 81 -146 168c0 117 59 174 238 174s239 -57 239 -174c0 -87 -21 -157 -146 -168c132 -6 162 -82 162 -182c0 -152 -78 -204 -255 -204z" />
    <glyph glyph-name="nine" unicode="9" horiz-adv-x="624" 
d="M180 0c100 89 193 183 242 283c-36 -5 -84 -8 -110 -8c-193 0 -257 52 -257 206c0 171 73 233 256 233c200 0 260 -50 260 -242c0 -204 -129 -353 -259 -472h-132zM319 362c44 0 93 3 134 10c8 27 11 56 11 87c0 150 -42 166 -153 166c-123 0 -149 -45 -149 -137
c0 -103 29 -126 157 -126z" />
    <glyph glyph-name="zerop" horiz-adv-x="627" 
d="M313 714c171 0 255 -74 255 -356c0 -286 -84 -372 -255 -372c-169 0 -254 86 -254 372c0 282 85 356 254 356zM313 77c115 0 153 54 153 281c0 234 -38 269 -153 269c-113 0 -152 -35 -152 -269c0 -227 39 -281 152 -281z" />
    <glyph glyph-name="onep" horiz-adv-x="368" 
d="M273 0h-101v588l-156 -71l-30 82l287 125v-724z" />
    <glyph glyph-name="twop" horiz-adv-x="598" 
d="M181 87h353v-87h-489v81c363 283 385 314 385 426c0 90 -44 115 -153 115c-59 0 -141 -12 -178 -27l-23 89c60 17 136 30 208 30c171 0 253 -49 253 -200c0 -143 -53 -211 -356 -427z" />
    <glyph glyph-name="threep" horiz-adv-x="594" 
d="M374 372c132 -6 163 -82 163 -182c0 -153 -84 -204 -277 -204c-72 0 -159 13 -221 27l21 85c51 -15 127 -22 187 -22c145 0 180 33 180 124c0 89 -46 127 -154 127h-90v85h88c104 0 145 30 145 111c0 73 -33 101 -165 101c-60 0 -138 -9 -183 -24c-8 29 -15 58 -22 87
c58 13 138 27 218 27c194 0 259 -55 259 -174c0 -88 -25 -157 -149 -168z" />
    <glyph glyph-name="fourp" horiz-adv-x="594" 
d="M371 275v342c-80 -102 -179 -264 -222 -342h222zM470 697v-422h96v-84h-96v-191h-99v191h-350v28c70 128 199 340 303 478h146z" />
    <glyph glyph-name="fivep" horiz-adv-x="608" 
d="M196 610v-190c31 3 64 5 99 5c192 0 254 -62 254 -216c0 -171 -79 -223 -272 -223c-73 0 -152 13 -210 27l22 85c49 -15 115 -22 175 -22c143 0 175 32 175 125c0 104 -29 137 -163 137c-60 0 -129 -6 -177 -16v375h413v-87h-316z" />
    <glyph glyph-name="sixp" horiz-adv-x="628" 
d="M558 686l-25 -90c-40 15 -102 25 -160 25c-137 0 -196 -34 -205 -210c48 9 113 14 156 14c193 0 257 -62 257 -216c0 -171 -73 -223 -256 -223c-194 0 -265 82 -265 367s98 361 312 361c61 0 133 -12 186 -28zM167 324c3 -208 53 -248 158 -248c122 0 149 34 149 125
c0 99 -29 137 -147 137c-54 0 -114 -5 -160 -14z" />
    <glyph glyph-name="sevenp" horiz-adv-x="511" 
d="M527 697v-33c-101 -163 -239 -465 -307 -664h-116c78 213 197 475 287 610h-378v87h514z" />
    <glyph glyph-name="eightp" horiz-adv-x="626" 
d="M313 70c114 0 149 35 149 127c0 96 -41 132 -149 132c-107 0 -147 -36 -147 -132c0 -92 33 -127 147 -127zM313 410c95 0 134 33 134 115c0 76 -34 104 -134 104s-134 -28 -134 -104c0 -82 40 -115 134 -115zM313 -14c-176 0 -255 52 -255 204c0 100 30 176 163 182
c-125 11 -146 81 -146 168c0 117 59 174 238 174s239 -57 239 -174c0 -87 -21 -157 -146 -168c132 -6 162 -82 162 -182c0 -152 -78 -204 -255 -204z" />
    <glyph glyph-name="ninep" horiz-adv-x="624" 
d="M176 0c100 89 193 183 243 283c-36 -5 -85 -8 -111 -8c-193 0 -257 52 -257 206c0 171 73 233 256 233c200 0 260 -50 260 -242c0 -204 -129 -353 -259 -472h-132zM315 362c45 0 94 3 134 10c8 27 12 56 12 87c0 150 -43 166 -154 166c-123 0 -148 -45 -148 -137
c0 -103 28 -126 156 -126z" />
    <glyph glyph-name="zeroop" horiz-adv-x="574" 
d="M290 -14c-147 0 -233 62 -233 270c0 207 87 265 233 265c148 0 227 -58 227 -265c0 -208 -78 -270 -227 -270zM290 439c-98 0 -131 -28 -131 -185c0 -150 33 -186 131 -186c100 0 124 36 124 186c0 157 -25 185 -124 185z" />
    <glyph glyph-name="oneop" horiz-adv-x="353" 
d="M282 0h-97v391l-156 -74l-31 84l284 120v-521z" />
    <glyph glyph-name="twoop" horiz-adv-x="548" 
d="M197 83h297v-83h-441v75c271 148 323 199 323 277c0 54 -31 80 -133 80c-45 0 -130 -11 -159 -24l-22 92c48 11 134 21 192 21c177 0 234 -49 234 -160c0 -96 -72 -181 -291 -278z" />
    <glyph glyph-name="threeop" horiz-adv-x="576" 
d="M246 521c195 0 259 -54 259 -173c0 -88 -24 -155 -149 -166c132 -6 163 -80 163 -180c0 -153 -84 -204 -277 -204c-71 0 -159 13 -221 27l22 85c50 -15 126 -22 187 -22c144 0 179 33 179 124c0 95 -41 125 -154 125h-90v85h89c103 0 144 28 144 109
c0 73 -32 101 -165 101c-59 0 -137 -9 -183 -24l-22 87c58 13 138 26 218 26z" />
    <glyph glyph-name="fourop" horiz-adv-x="571" 
d="M365 81v348c-81 -101 -178 -271 -221 -348h221zM463 507v-426h96v-81h-96v-192h-98v192h-350v27c70 126 199 344 303 480h145z" />
    <glyph glyph-name="fiveop" horiz-adv-x="593" 
d="M183 420v-188c30 3 63 5 98 5c192 0 255 -62 255 -215c0 -171 -79 -225 -273 -225c-73 0 -151 13 -210 28l22 85c49 -16 115 -23 176 -23c142 0 175 34 175 127c0 102 -29 137 -164 137c-60 0 -129 -6 -177 -17v373h413v-87h-315z" />
    <glyph glyph-name="sixop" horiz-adv-x="635" 
d="M555 686l-25 -90c-40 15 -102 25 -160 25c-137 0 -196 -34 -205 -210c48 9 113 14 156 14c193 0 257 -62 257 -216c0 -171 -73 -223 -256 -223c-194 0 -265 82 -265 367s98 361 312 361c61 0 133 -12 186 -28zM164 324c3 -208 53 -248 158 -248c122 0 149 34 149 125
c0 99 -29 137 -147 137c-54 0 -114 -5 -160 -14z" />
    <glyph glyph-name="sevenop" horiz-adv-x="502" 
d="M505 507v-33c-101 -163 -242 -467 -310 -666h-116c78 213 200 477 290 612h-378v87h514z" />
    <glyph glyph-name="eightop" horiz-adv-x="624" 
d="M312 70c114 0 149 35 149 127c0 96 -41 132 -149 132c-107 0 -147 -36 -147 -132c0 -92 33 -127 147 -127zM312 410c95 0 134 33 134 115c0 76 -34 104 -134 104s-134 -28 -134 -104c0 -82 40 -115 134 -115zM312 -14c-176 0 -255 52 -255 204c0 100 30 176 163 182
c-125 11 -146 81 -146 168c0 117 59 174 238 174s239 -57 239 -174c0 -87 -21 -157 -146 -168c132 -6 162 -82 162 -182c0 -152 -78 -204 -255 -204z" />
    <glyph glyph-name="nineop" horiz-adv-x="630" 
d="M182 -192c100 89 193 183 242 282c-36 -4 -84 -7 -110 -7c-193 0 -257 51 -257 205c0 171 73 233 256 233c200 0 260 -50 260 -242c0 -204 -129 -352 -259 -471h-132zM321 169c44 0 93 3 134 10c8 28 11 57 11 87c0 151 -42 166 -153 166c-123 0 -149 -45 -149 -137
c0 -102 29 -126 157 -126z" />
    <glyph glyph-name="zerooldstyle" unicode="&#xf730;" horiz-adv-x="624" 
d="M315 -14c-147 0 -233 62 -233 270c0 207 87 265 233 265c148 0 227 -58 227 -265c0 -208 -78 -270 -227 -270zM315 439c-98 0 -131 -28 -131 -185c0 -150 33 -186 131 -186c100 0 124 36 124 186c0 157 -25 185 -124 185z" />
    <glyph glyph-name="oneoldstyle" unicode="&#xf731;" horiz-adv-x="624" 
d="M422 0h-97v391l-156 -74l-31 84l284 120v-521z" />
    <glyph glyph-name="twooldstyle" unicode="&#xf732;" horiz-adv-x="624" 
d="M238 83h297v-83h-441v75c271 148 323 199 323 277c0 54 -31 80 -133 80c-45 0 -130 -11 -159 -24l-22 92c48 11 134 21 192 21c177 0 234 -49 234 -160c0 -96 -72 -181 -291 -278z" />
    <glyph glyph-name="threeoldstyle" unicode="&#xf733;" horiz-adv-x="624" 
d="M280 521c195 0 259 -54 259 -173c0 -88 -24 -155 -149 -166c132 -6 163 -80 163 -180c0 -153 -84 -204 -277 -204c-71 0 -159 13 -221 27l22 85c50 -15 126 -22 187 -22c144 0 179 33 179 124c0 95 -41 125 -154 125h-90v85h89c103 0 144 28 144 109
c0 73 -32 101 -165 101c-59 0 -137 -9 -183 -24l-22 87c58 13 138 26 218 26z" />
    <glyph glyph-name="fouroldstyle" unicode="&#xf734;" horiz-adv-x="624" 
d="M381 81v348c-81 -101 -178 -271 -221 -348h221zM479 507v-426h96v-81h-96v-192h-98v192h-350v27c70 126 199 344 303 480h145z" />
    <glyph glyph-name="fiveoldstyle" unicode="&#xf735;" horiz-adv-x="624" 
d="M200 420v-188c30 3 63 5 98 5c192 0 255 -62 255 -215c0 -171 -79 -225 -273 -225c-73 0 -151 13 -210 28l22 85c49 -16 115 -23 176 -23c142 0 175 34 175 127c0 102 -29 137 -164 137c-60 0 -129 -6 -177 -17v373h413v-87h-315z" />
    <glyph glyph-name="sixoldstyle" unicode="&#xf736;" horiz-adv-x="624" 
d="M558 686l-25 -90c-40 15 -102 25 -160 25c-137 0 -196 -34 -205 -210c48 9 113 14 156 14c193 0 257 -62 257 -216c0 -171 -73 -223 -256 -223c-194 0 -265 82 -265 367s98 361 312 361c61 0 133 -12 186 -28zM167 324c3 -208 53 -248 158 -248c122 0 149 34 149 125
c0 99 -29 137 -147 137c-54 0 -114 -5 -160 -14z" />
    <glyph glyph-name="sevenoldstyle" unicode="&#xf737;" horiz-adv-x="624" 
d="M585 507v-33c-101 -163 -242 -467 -310 -666h-116c78 213 200 477 290 612h-378v87h514z" />
    <glyph glyph-name="eightoldstyle" unicode="&#xf738;" horiz-adv-x="624" 
d="M312 70c114 0 149 35 149 127c0 96 -41 132 -149 132c-107 0 -147 -36 -147 -132c0 -92 33 -127 147 -127zM312 410c95 0 134 33 134 115c0 76 -34 104 -134 104s-134 -28 -134 -104c0 -82 40 -115 134 -115zM312 -14c-176 0 -255 52 -255 204c0 100 30 176 163 182
c-125 11 -146 81 -146 168c0 117 59 174 238 174s239 -57 239 -174c0 -87 -21 -157 -146 -168c132 -6 162 -82 162 -182c0 -152 -78 -204 -255 -204z" />
    <glyph glyph-name="nineoldstyle" unicode="&#xf739;" horiz-adv-x="624" 
d="M180 -192c100 89 193 183 242 282c-36 -4 -84 -7 -110 -7c-193 0 -257 51 -257 205c0 171 73 233 256 233c200 0 260 -50 260 -242c0 -204 -129 -352 -259 -471h-132zM319 169c44 0 93 3 134 10c8 28 11 57 11 87c0 151 -42 166 -153 166c-123 0 -149 -45 -149 -137
c0 -102 29 -126 157 -126z" />
    <glyph glyph-name="ampersand" unicode="&#x26;" horiz-adv-x="777" 
d="M739 398c0 -86 -35 -172 -92 -243c33 -44 66 -96 104 -155h-115c-18 31 -38 62 -57 89c-83 -71 -146 -103 -267 -103c-176 0 -256 45 -256 197c0 100 51 177 184 183c-125 11 -136 80 -136 167c0 116 59 181 230 181c168 0 231 -56 231 -173c0 -87 -29 -158 -154 -168
c47 -5 97 -38 178 -145c31 49 50 108 50 170h100zM312 70c100 0 148 23 216 90c-76 107 -138 166 -208 166c-106 0 -155 -33 -155 -129c0 -93 33 -127 147 -127zM328 410c87 0 134 32 134 114c0 76 -35 104 -128 104s-127 -27 -127 -103c0 -82 34 -115 121 -115z" />
    <glyph glyph-name="ampersand.2" horiz-adv-x="744" 
d="M502 94v233h-161c-112 0 -156 -30 -156 -127c0 -91 43 -124 166 -124c49 0 113 6 151 18zM735 327h-135v-297c-65 -28 -178 -44 -257 -44c-166 0 -268 51 -268 204c0 100 32 176 164 182c-123 11 -144 77 -144 166c0 119 75 176 237 176c41 0 110 -10 154 -25l-29 -87
c-35 15 -74 22 -116 22c-107 0 -138 -34 -138 -101c0 -79 38 -111 131 -111h168v95l98 38v-133h135v-85z" />
    <glyph glyph-name="onesuperior" unicode="&#xb9;" horiz-adv-x="356" 
d="M242 286h-85v327l-93 -43l-22 73l200 83v-440z" />
    <glyph glyph-name="twosuperior" unicode="&#xb2;" horiz-adv-x="405" 
d="M134 352h223v-72h-322c11 120 48 170 120 204c88 38 114 45 114 99c0 36 -23 52 -89 52c-33 0 -91 -5 -115 -15l-14 76c36 10 85 17 129 17c123 0 176 -35 176 -126c0 -73 -32 -114 -119 -145c-60 -21 -96 -40 -103 -90z" />
    <glyph glyph-name="threesuperior" unicode="&#xb3;" horiz-adv-x="399" 
d="M250 504c80 -4 103 -45 103 -110c0 -93 -60 -124 -178 -124c-44 0 -97 7 -135 18l13 68c31 -10 74 -16 115 -16c72 0 94 13 94 65c0 51 -22 61 -94 61h-40v69h39c66 0 86 11 86 57c0 41 -16 52 -87 52c-51 0 -81 -6 -109 -16l-14 68c36 10 83 17 132 17
c119 0 167 -32 167 -106c0 -59 -16 -97 -92 -103z" />
    <glyph glyph-name="percent" unicode="%" horiz-adv-x="911" 
d="M612 697h94l-411 -697h-94zM210 714c115 0 169 -45 169 -219c0 -175 -54 -226 -169 -226c-114 0 -168 51 -168 226c0 174 54 219 168 219zM210 339c63 0 83 32 83 155c0 126 -20 149 -83 149c-60 0 -83 -23 -83 -149c0 -123 23 -155 83 -155zM700 431
c115 0 168 -45 168 -219c0 -175 -53 -226 -168 -226c-114 0 -168 51 -168 226c0 174 54 219 168 219zM700 56c62 0 83 33 83 155c0 126 -21 150 -83 150c-60 0 -83 -24 -83 -150c0 -122 23 -155 83 -155z" />
    <glyph glyph-name="perthousand" unicode="&#x2030;" horiz-adv-x="1282" 
d="M612 697h94l-411 -697h-94zM210 714c115 0 169 -45 169 -219c0 -175 -54 -226 -169 -226c-114 0 -168 51 -168 226c0 174 54 219 168 219zM210 339c63 0 83 32 83 155c0 126 -20 149 -83 149c-60 0 -83 -23 -83 -149c0 -123 23 -155 83 -155zM700 431
c115 0 168 -45 168 -219c0 -175 -53 -226 -168 -226c-114 0 -168 51 -168 226c0 174 54 219 168 219zM700 56c62 0 83 33 83 155c0 126 -21 150 -83 150c-60 0 -83 -24 -83 -150c0 -122 23 -155 83 -155zM1071 431c115 0 168 -45 168 -219c0 -175 -53 -226 -168 -226
c-114 0 -168 51 -168 226c0 174 54 219 168 219zM1071 56c62 0 83 33 83 155c0 126 -21 150 -83 150c-60 0 -83 -24 -83 -150c0 -122 23 -155 83 -155z" />
    <glyph glyph-name="fraction" unicode="&#x2044;" horiz-adv-x="560" 
d="M442 697h94l-416 -697h-94z" />
    <glyph glyph-name="fraction" unicode="&#x2215;" horiz-adv-x="560" 
d="M442 697h94l-416 -697h-94z" />
    <glyph glyph-name="asciicircum" unicode="^" horiz-adv-x="501" 
d="M388 296l-140 302l-139 -302h-97l190 401h94l193 -401h-101z" />
    <glyph glyph-name="asciitilde" unicode="~" horiz-adv-x="602" 
d="M487 435l63 -49c-24 -64 -74 -108 -141 -108c-70 0 -174 87 -232 87c-24 0 -47 -15 -66 -62l-57 53c34 58 69 93 127 93c76 0 178 -85 234 -85c30 0 52 17 72 71z" />
    <glyph glyph-name="periodcentered" unicode="&#xb7;" horiz-adv-x="281" 
d="M139 366c55 0 72 -8 72 -64c0 -60 -17 -71 -72 -71c-52 0 -69 11 -69 71c0 56 17 64 69 64z" />
    <glyph glyph-name="periodcentered" unicode="&#x2219;" horiz-adv-x="281" 
d="M139 366c55 0 72 -8 72 -64c0 -60 -17 -71 -72 -71c-52 0 -69 11 -69 71c0 56 17 64 69 64z" />
    <glyph glyph-name="plus" unicode="+" horiz-adv-x="602" 
d="M59 315v89h196v197h90v-197h197v-89h-197v-196h-90v196h-196z" />
    <glyph glyph-name="multiply" unicode="&#xd7;" horiz-adv-x="602" 
d="M97 499l64 63l138 -138l139 140l64 -65l-139 -139l139 -139l-63 -63l-139 139l-138 -139l-64 64l138 139z" />
    <glyph glyph-name="plusminus" unicode="&#xb1;" horiz-adv-x="602" 
d="M59 389v89h196v197h90v-197h197v-89h-197v-197h-90v197h-196zM59 29v89h483v-89h-483z" />
    <glyph glyph-name="less" unicode="&#x3c;" horiz-adv-x="602" 
d="M515 605l-294 -245l294 -247l-51 -66l-366 288v48l365 287z" />
    <glyph glyph-name="equal" unicode="=" horiz-adv-x="602" 
d="M59 194v89h483v-89h-483zM59 431v89h483v-89h-483z" />
    <glyph glyph-name="greater" unicode="&#x3e;" horiz-adv-x="602" 
d="M98 113l294 245l-294 246l51 67l367 -288v-48l-365 -287z" />
    <glyph glyph-name="approxequal" unicode="&#x2248;" horiz-adv-x="602" 
d="M110 385l-57 53c34 58 70 93 128 93c84 0 179 -84 234 -84c29 0 53 18 71 70l64 -49c-23 -61 -73 -106 -136 -106c-81 0 -178 86 -238 86c-23 0 -46 -17 -66 -63zM110 186l-57 53c34 58 70 93 128 93c83 0 179 -85 234 -85c29 0 53 18 71 71l64 -49
c-24 -64 -74 -107 -138 -107c-81 0 -177 86 -236 86c-24 0 -47 -17 -66 -62z" />
    <glyph glyph-name="notequal" unicode="&#x2260;" horiz-adv-x="602" 
d="M398 628h100l-60 -108h104v-89h-152l-82 -148h234v-89h-281l-61 -107h-98l60 107h-103v89h150l81 148h-231v89h279z" />
    <glyph glyph-name="lessequal" unicode="&#x2264;" horiz-adv-x="602" 
d="M59 29v89h483v-89h-483zM500 633l-283 -209l283 -212l-47 -64l-360 254v41l358 253z" />
    <glyph glyph-name="greaterequal" unicode="&#x2265;" horiz-adv-x="602" 
d="M543 118v-89h-483v89h483zM385 424l-283 209l49 63l358 -253v-41l-359 -254l-48 64z" />
    <glyph glyph-name="divide" unicode="&#xf7;" horiz-adv-x="602" 
d="M59 404h483v-89h-483v89zM237 155c0 52 16 60 64 60c51 0 66 -8 66 -60c0 -56 -15 -65 -66 -65c-48 0 -64 9 -64 65zM237 567c0 52 16 60 64 60c51 0 66 -8 66 -60c0 -56 -15 -65 -66 -65c-48 0 -64 9 -64 65z" />
    <glyph glyph-name="minus" unicode="&#x2212;" horiz-adv-x="602" 
d="M59 315v89h483v-89h-483z" />
    <glyph glyph-name="partialdiff" unicode="&#x2202;" horiz-adv-x="624" 
d="M311 421c30 0 72 -3 111 -7c-49 99 -142 194 -242 283h132c129 -120 259 -268 259 -472c0 -192 -60 -242 -260 -242c-183 0 -256 62 -256 233c0 154 64 205 256 205zM464 238c0 30 -4 59 -12 87c-40 7 -89 10 -134 10c-127 0 -156 -24 -156 -126c0 -92 26 -137 149 -137
c111 0 153 15 153 166z" />
    <glyph glyph-name="product" unicode="&#x220f;" horiz-adv-x="725" 
d="M196 607v-607h-101v697h536v-697h-101v607h-334z" />
    <glyph glyph-name="summation" unicode="&#x2211;" horiz-adv-x="616" 
d="M20 0v26c76 91 157 202 235 319c-81 109 -162 227 -232 329v23h556v-87h-393c53 -80 116 -168 188 -262c-66 -93 -129 -185 -191 -261h396v-87h-559z" />
    <glyph glyph-name="radical" unicode="&#x221a;" horiz-adv-x="560" 
d="M0 416v91h146c50 -120 102 -273 141 -414c54 137 167 466 204 604h99c-50 -167 -177 -530 -247 -697h-122c-41 139 -89 290 -139 416h-82z" />
    <glyph glyph-name="infinity" unicode="&#x221e;" horiz-adv-x="773" 
d="M347 350c0 84 -34 118 -121 118c-80 0 -108 -30 -108 -118s28 -117 108 -117c87 0 121 34 121 117zM386 269c-11 -109 -84 -127 -175 -127c-123 0 -182 51 -182 208s59 210 182 210c91 0 164 -19 175 -128c11 110 84 128 176 128c122 0 182 -52 182 -209
s-60 -209 -182 -209c-92 0 -165 18 -176 127zM426 351c0 -84 34 -118 120 -118c80 0 109 30 109 118s-29 118 -109 118c-86 0 -120 -35 -120 -118z" />
    <glyph glyph-name="integral" unicode="&#x222b;" horiz-adv-x="347" 
d="M380 702l-22 -77c-25 8 -68 13 -97 13c-48 0 -91 -10 -91 -94v-565c0 -150 -91 -182 -181 -182c-43 0 -95 8 -133 23l23 79c28 -13 70 -22 104 -22c51 0 92 25 92 102v568c0 151 89 174 175 174c44 0 94 -7 130 -19z" />
    <glyph glyph-name="lozenge" unicode="&#x25ca;" horiz-adv-x="552" 
d="M528 272c-62 -150 -112 -277 -163 -428h-165c-65 150 -117 272 -176 428c59 156 111 279 176 428h165c51 -150 101 -278 163 -428zM419 273c-40 106 -94 249 -127 352h-28c-43 -104 -100 -244 -140 -352c40 -109 97 -250 140 -353h28c33 102 87 247 127 353z" />
    <glyph glyph-name="logicalnot" unicode="&#xac;" horiz-adv-x="507" 
d="M470 0h-102v327h-337v88h439v-415z" />
    <glyph glyph-name="estimated" unicode="&#x212e;" horiz-adv-x="700" 
d="M657 320h-489c3 -198 63 -241 219 -241c51 0 132 10 171 24l26 -91c-54 -15 -135 -26 -198 -26c-219 0 -328 86 -328 367c0 284 113 361 304 361c202 0 295 -97 295 -394zM362 624c-123 0 -185 -33 -193 -215h380c-5 178 -65 215 -187 215z" />
    <glyph glyph-name="bar" unicode="|" horiz-adv-x="341" 
d="M120 755h101v-1011h-101v1011z" />
    <glyph glyph-name="brokenbar" unicode="&#xa6;" horiz-adv-x="341" 
d="M120 755h101v-367h-101v367zM120 111h101v-367h-101v367z" />
    <glyph glyph-name="degree" unicode="&#xb0;" horiz-adv-x="421" 
d="M210 714c115 0 169 -45 169 -219c0 -175 -54 -226 -169 -226c-114 0 -168 51 -168 226c0 174 54 219 168 219zM210 339c63 0 83 32 83 155c0 126 -20 149 -83 149c-60 0 -83 -23 -83 -149c0 -123 23 -155 83 -155z" />
    <glyph glyph-name="ordfeminine" unicode="&#xaa;" horiz-adv-x="421" 
d="M361 577v-211c-42 -18 -106 -28 -154 -28c-107 0 -147 24 -147 119c0 101 60 117 140 117c34 0 62 -3 94 -10c0 75 -21 91 -96 91c-36 0 -76 -5 -105 -17l-14 58c32 8 80 18 130 18c104 0 152 -29 152 -137zM294 406v109c-22 6 -51 7 -82 7c-50 0 -80 -6 -80 -61
c0 -51 17 -69 80 -69c29 0 59 6 82 14z" />
    <glyph glyph-name="ordmasculine" unicode="&#xba;" horiz-adv-x="451" 
d="M225 333c-112 0 -167 45 -167 192c0 146 56 189 167 189c112 0 168 -43 168 -189c0 -147 -55 -192 -168 -192zM225 648c-70 0 -89 -18 -89 -125c0 -100 19 -125 89 -125c69 0 89 25 89 125c0 107 -20 125 -89 125z" />
    <glyph glyph-name="underscore" unicode="_" horiz-adv-x="434" 
d="M31 -147v89h372v-89h-372z" />
    <glyph glyph-name="emdash" unicode="&#x2014;" horiz-adv-x="851" 
d="M51 234v89h749v-89h-749z" />
    <glyph glyph-name="endash" unicode="&#x2013;" horiz-adv-x="561" 
d="M51 234v89h459v-89h-459z" />
    <glyph glyph-name="hyphen" unicode="-" horiz-adv-x="290" 
d="M31 234v89h228v-89h-228z" />
    <glyph glyph-name="hyphen" unicode="&#xad;" horiz-adv-x="290" 
d="M31 234v89h228v-89h-228z" />
    <glyph glyph-name="quotesingle" unicode="'" horiz-adv-x="184" 
d="M45 697h94l-19 -235h-64z" />
    <glyph glyph-name="quotedbl" unicode="&#x22;" horiz-adv-x="337" 
d="M45 697h94l-19 -235h-64zM201 697h91l-19 -235h-63z" />
    <glyph glyph-name="guillemotleft" unicode="&#xab;" horiz-adv-x="632" 
d="M355 521l-197 -213l197 -218l-54 -59l-271 274l269 274zM601 521l-197 -213l197 -218l-53 -59l-271 274l269 274z" />
    <glyph glyph-name="guilsinglleft" unicode="&#x2039;" horiz-adv-x="384" 
d="M355 521l-197 -213l197 -218l-54 -59l-271 274l269 274z" />
    <glyph glyph-name="guilsinglright" unicode="&#x203a;" horiz-adv-x="384" 
d="M31 90l197 213l-197 218l54 59l270 -275l-269 -273z" />
    <glyph glyph-name="guillemotright" unicode="&#xbb;" horiz-adv-x="632" 
d="M278 90l196 213l-196 218l53 59l271 -275l-269 -273zM31 90l197 213l-197 218l54 59l270 -275l-269 -273z" />
    <glyph glyph-name="quotesinglbase" unicode="&#x201a;" horiz-adv-x="230" 
d="M209 100l-109 -259h-80l78 259h111z" />
    <glyph glyph-name="quotedblbase" unicode="&#x201e;" horiz-adv-x="413" 
d="M390 98l-109 -260h-80l78 260h111zM212 98l-109 -260h-80l78 260h111z" />
    <glyph glyph-name="quotedblleft" unicode="&#x201c;" horiz-adv-x="413" 
d="M24 505l109 259h80l-78 -259h-111zM202 505l109 259h80l-78 -259h-111z" />
    <glyph glyph-name="quotedblright" unicode="&#x201d;" horiz-adv-x="413" 
d="M390 762l-109 -259h-80l78 259h111zM212 762l-109 -259h-80l78 259h111z" />
    <glyph glyph-name="quoteleft" unicode="&#x2018;" horiz-adv-x="236" 
d="M24 505l109 259h80l-78 -259h-111z" />
    <glyph glyph-name="quoteright" unicode="&#x2019;" horiz-adv-x="235" 
d="M212 762l-109 -260h-80l78 260h111z" />
    <glyph glyph-name="comma" unicode="," horiz-adv-x="270" 
d="M214 100l-112 -259h-86l79 259h119z" />
    <glyph glyph-name="period" unicode="." horiz-adv-x="270" 
d="M134 123c51 0 66 -8 66 -60c0 -56 -15 -65 -66 -65c-48 0 -64 9 -64 65c0 52 16 60 64 60z" />
    <glyph glyph-name="colon" unicode=":" horiz-adv-x="270" 
d="M134 123c51 0 66 -8 66 -60c0 -56 -15 -65 -66 -65c-48 0 -64 9 -64 65c0 52 16 60 64 60zM134 510c51 0 66 -8 66 -60c0 -56 -15 -65 -66 -65c-48 0 -64 9 -64 65c0 52 16 60 64 60z" />
    <glyph glyph-name="semicolon" unicode=";" horiz-adv-x="270" 
d="M214 100l-112 -259h-86l79 259h119zM134 510c51 0 66 -8 66 -60c0 -56 -15 -65 -66 -65c-48 0 -64 9 -64 65c0 52 16 60 64 60z" />
    <glyph glyph-name="ellipsis" unicode="&#x2026;" horiz-adv-x="1176" 
d="M236 123c50 0 66 -8 66 -60c0 -56 -16 -65 -66 -65c-48 0 -65 9 -65 65c0 52 17 60 65 60zM587 123c50 0 66 -8 66 -60c0 -56 -16 -65 -66 -65c-48 0 -65 9 -65 65c0 52 17 60 65 60zM938 123c51 0 66 -8 66 -60c0 -56 -15 -65 -66 -65c-47 0 -64 9 -64 65
c0 52 17 60 64 60z" />
    <glyph glyph-name="question" unicode="?" horiz-adv-x="548" 
d="M208 123c51 0 66 -8 66 -60c0 -56 -15 -65 -66 -65c-48 0 -64 9 -64 65c0 52 16 60 64 60zM262 285v-86h-97v165h67c135 0 172 31 172 134c0 94 -33 126 -167 126c-69 0 -129 -8 -180 -23l-19 87c62 15 134 26 202 26c194 0 273 -52 273 -224c0 -153 -76 -205 -251 -205z
" />
    <glyph glyph-name="questiondown" unicode="&#xbf;" horiz-adv-x="548" 
d="M342 396c-50 0 -66 8 -66 60c0 56 16 65 66 65c48 0 65 -9 65 -65c0 -52 -17 -60 -65 -60zM289 234v86h97v-165h-67c-135 0 -172 -31 -172 -134c0 -94 32 -126 167 -126c68 0 128 8 180 23l19 -87c-62 -15 -134 -26 -203 -26c-193 0 -272 52 -272 224
c0 153 76 205 251 205z" />
    <glyph glyph-name="exclam" unicode="!" horiz-adv-x="332" 
d="M103 697h124l-27 -487h-70zM166 123c50 0 66 -8 66 -60c0 -56 -16 -65 -66 -65c-48 0 -65 9 -65 65c0 52 17 60 65 60z" />
    <glyph glyph-name="exclamdown" unicode="&#xa1;" horiz-adv-x="332" 
d="M229 -178h-124l27 487h70zM167 396c-50 0 -67 8 -67 60c0 56 17 65 67 65c48 0 65 -9 65 -65c0 -52 -17 -60 -65 -60z" />
    <glyph glyph-name="parenleft" unicode="(" horiz-adv-x="279" 
d="M68 271c0 317 94 480 210 535l45 -73c-81 -34 -154 -172 -154 -462c0 -288 73 -427 154 -461l-45 -73c-116 55 -210 217 -210 534z" />
    <glyph glyph-name="parenright" unicode=")" horiz-adv-x="279" 
d="M211 271c0 -317 -95 -479 -210 -534l-45 73c81 34 154 172 154 461s-73 428 -154 462l45 73c115 -55 210 -218 210 -535z" />
    <glyph glyph-name="bracketleft" unicode="[" horiz-adv-x="303" 
d="M88 800h235v-83h-136v-895h136v-82h-235v1060z" />
    <glyph glyph-name="bracketright" unicode="]" horiz-adv-x="303" 
d="M-20 800h235v-1060h-235v82h136v895h-136v83z" />
    <glyph glyph-name="braceleft" unicode="{" horiz-adv-x="299" 
d="M138 271c33 -10 88 -80 88 -243c0 -154 41 -198 108 -219c-16 -24 -30 -48 -46 -72c-83 28 -156 103 -156 272c0 160 -50 224 -109 224v77c59 0 109 63 109 223c0 170 73 245 156 273c16 -24 30 -48 46 -73c-66 -20 -108 -65 -108 -220c0 -163 -55 -232 -88 -242z" />
    <glyph glyph-name="braceright" unicode="}" horiz-adv-x="299" 
d="M275 232c-59 0 -109 -63 -109 -223c0 -169 -73 -244 -156 -272l-45 73c65 20 107 65 107 219c0 163 55 232 88 242c-33 10 -88 80 -88 243c0 155 -41 199 -107 220l45 72c83 -28 156 -103 156 -273c0 -160 50 -223 109 -223v-78z" />
    <glyph glyph-name="slash" unicode="/" horiz-adv-x="447" 
d="M384 697h105l-357 -697h-103z" />
    <glyph glyph-name="backslash" unicode="\" horiz-adv-x="447" 
d="M-39 697h106l355 -697h-104z" />
    <glyph glyph-name="asterisk" unicode="*" horiz-adv-x="457" 
d="M30 498v78h131l-65 114l67 38l65 -114l66 114l68 -39l-66 -113h131v-78h-132l66 -114l-68 -38l-64 113l-66 -113l-68 39l65 113h-130z" />
    <glyph glyph-name="bullet" unicode="&#x2022;" 
d="M293 56c-160 0 -236 62 -236 270c0 207 77 265 236 265c160 0 236 -58 236 -265c0 -208 -75 -270 -236 -270z" />
    <glyph glyph-name="section" unicode="&#xa7;" horiz-adv-x="623" 
d="M543 685l-23 -86c-35 15 -112 25 -174 25c-115 0 -177 -29 -177 -110c0 -56 32 -85 162 -95c161 -14 245 -66 245 -185c0 -43 -17 -85 -43 -119c26 -27 38 -63 38 -110c0 -144 -108 -208 -286 -208c-67 0 -144 11 -197 28l23 87c35 -15 112 -26 174 -26
c115 0 177 30 177 111c0 56 -32 85 -162 95c-161 14 -245 65 -245 185c0 42 16 86 41 120c-25 27 -37 62 -37 109c0 144 109 208 287 208c66 0 144 -12 197 -29zM176 351c-11 -17 -17 -40 -17 -70c0 -61 39 -89 177 -99c49 -4 89 -11 119 -24c9 18 17 41 17 72
c0 60 -39 89 -177 99c-50 3 -89 10 -119 22z" />
    <glyph glyph-name="dagger" unicode="&#x2020;" horiz-adv-x="433" 
d="M30 498v78h146v148h81v-148h146v-78h-146v-240h-81v240h-146z" />
    <glyph glyph-name="daggerdbl" unicode="&#x2021;" horiz-adv-x="433" 
d="M30 498v77h145v148h82v-148h146v-77h-146v-113h146v-77h-146v-148h-82v148h-145v77h145v113h-145z" />
    <glyph glyph-name="paragraph" unicode="&#xb6;" horiz-adv-x="661" 
d="M566 0h-94v243h-91v-243h-95v243h-60c-140 0 -192 107 -192 221c0 128 44 233 195 233h337v-697z" />
    <glyph glyph-name="copyright" unicode="&#xa9;" horiz-adv-x="855" 
d="M427 714c242 0 360 -77 360 -361c0 -287 -117 -367 -360 -367c-242 0 -359 80 -359 367c0 284 117 361 359 361zM426 62c198 0 271 52 271 290c0 244 -73 287 -271 287c-195 0 -267 -43 -267 -287c0 -238 72 -290 267 -290zM556 225l21 -74c-35 -13 -91 -23 -134 -23
c-143 0 -212 48 -212 226s69 223 212 223c43 0 101 -9 134 -20l-21 -76c-28 12 -73 17 -109 17c-90 0 -121 -20 -121 -146c0 -119 31 -147 121 -147c37 0 81 9 109 20z" />
    <glyph glyph-name="publish" horiz-adv-x="855" 
d="M787 353c0 -288 -117 -367 -360 -367s-359 79 -359 367c0 284 117 361 359 361s360 -77 360 -361zM531 419c0 47 -13 74 -53 74h-119v-144h116c44 0 56 27 56 70zM624 420c0 -86 -39 -147 -125 -147h-140v-137h-87v433h225c93 0 127 -64 127 -149zM426 639
c-195 0 -267 -43 -267 -287c0 -238 72 -290 267 -290c198 0 270 52 270 290c0 244 -72 287 -270 287z" />
    <glyph glyph-name="registered" unicode="&#xae;" horiz-adv-x="568" 
d="M334 605c49 0 70 -39 70 -87c0 -60 -25 -81 -67 -81c23 -11 46 -40 65 -94h-77c-10 33 -38 82 -55 82h-24v-82h-68v262h156zM309 549h-63v-69h63c19 0 25 15 25 36c0 19 -6 33 -25 33zM283 713c156 0 230 -52 230 -240c0 -185 -73 -241 -230 -241
c-156 0 -228 56 -228 241c0 188 74 240 228 240zM283 651c-114 0 -157 -26 -157 -178c0 -143 43 -178 157 -178c118 0 160 35 160 178c0 152 -42 178 -160 178z" />
    <glyph glyph-name="trademark" unicode="&#x2122;" horiz-adv-x="776" 
d="M194 635v-292h-73v292h-110v62h292v-62h-109zM561 350h-65c-29 90 -58 181 -88 270v-277h-67v354h101c30 -90 61 -179 91 -268c30 89 60 178 89 268h96v-354h-67v277z" />
    <glyph glyph-name="at" unicode="@" horiz-adv-x="935" 
d="M425 548c-206 0 -272 -43 -272 -283c0 -233 71 -286 314 -286c244 0 318 67 318 317c0 100 -8 161 -22 201h93c14 -46 21 -105 21 -204c0 -307 -127 -397 -410 -397s-408 79 -408 369c0 289 126 365 359 365c177 0 254 -36 254 -273c0 -224 -55 -261 -213 -261
c-150 0 -205 35 -205 169c0 144 58 166 189 166c48 0 107 -5 138 -11c-2 101 -41 128 -156 128zM468 358c-90 0 -117 -10 -117 -89c0 -77 26 -96 115 -96c87 0 115 25 115 127v50c-31 5 -80 8 -113 8z" />
    <glyph glyph-name="at.2" horiz-adv-x="938" 
d="M672 435v-299c-58 -25 -148 -40 -214 -40c-150 0 -206 35 -206 169c0 146 83 166 191 166c49 0 92 -6 138 -15c0 106 -22 132 -145 132c-218 0 -280 -43 -280 -283c0 -233 70 -286 313 -286c249 0 319 59 319 286c0 70 -7 132 -22 171h90c14 -45 21 -105 21 -171
c0 -293 -121 -369 -408 -369c-283 0 -408 79 -408 369c0 289 124 365 380 365c167 0 231 -41 231 -195zM581 193v155c-37 7 -66 10 -113 10c-75 0 -118 -9 -118 -88c0 -72 26 -97 113 -97c43 0 84 7 118 20z" />
    <glyph glyph-name="Asmall" unicode="&#xf761;" horiz-adv-x="548" 
d="M431 0c-17 40 -35 87 -53 137h-223c-16 -47 -30 -94 -42 -137h-99c47 160 119 346 185 507h155c49 -167 115 -369 179 -507h-102zM284 427h-23c-28 -70 -56 -144 -82 -218h174c-26 75 -49 149 -69 218z" />
    <glyph glyph-name="Bsmall" unicode="&#xf762;" horiz-adv-x="565" 
d="M343 78c49 0 66 21 66 71c0 56 -23 82 -69 82h-173v-153h176zM336 305c47 0 62 25 62 64c0 45 -15 60 -62 60h-169v-124h169zM389 271c96 -3 121 -58 121 -130c0 -98 -53 -141 -144 -141h-294v507h287c113 0 138 -52 138 -121c0 -64 -16 -108 -108 -115z" />
    <glyph glyph-name="Csmall" unicode="&#xf763;" horiz-adv-x="468" 
d="M430 96l25 -83c-39 -17 -104 -27 -150 -27c-156 0 -248 62 -248 270c0 207 93 265 248 265c46 0 112 -10 150 -24l-25 -84c-34 15 -79 23 -121 23c-103 0 -152 -25 -152 -182c0 -149 49 -183 152 -183c44 0 87 11 121 25z" />
    <glyph glyph-name="Dsmall" unicode="&#xf764;" horiz-adv-x="570" 
d="M72 0v507h195c159 0 245 -54 245 -251c0 -198 -85 -256 -245 -256h-195zM265 429h-98v-351h98c103 0 147 31 147 176c0 150 -44 175 -147 175z" />
    <glyph glyph-name="Esmall" unicode="&#xf765;" horiz-adv-x="498" 
d="M394 306v-76h-227v-150h289v-80h-384v507h384v-81h-289v-120h227z" />
    <glyph glyph-name="Fsmall" unicode="&#xf766;" horiz-adv-x="465" 
d="M72 0v507h384v-81h-289v-144h227v-77h-227v-205h-95z" />
    <glyph glyph-name="Gsmall" unicode="&#xf767;" horiz-adv-x="561" 
d="M406 83v128h-125v76h213v-266c-45 -18 -124 -35 -184 -35c-157 0 -253 62 -253 270c0 207 103 265 258 265c45 0 120 -10 162 -24l-27 -82c-40 16 -91 22 -136 22c-102 0 -157 -29 -157 -183c0 -150 56 -185 157 -185c31 0 67 5 92 14z" />
    <glyph glyph-name="Hsmall" unicode="&#xf768;" horiz-adv-x="571" 
d="M403 231h-236v-231h-95v507h95v-195h236v195h95v-507h-95v231z" />
    <glyph glyph-name="Ismall" unicode="&#xf769;" horiz-adv-x="239" 
d="M167 507v-507h-94v507h94z" />
    <glyph glyph-name="Jsmall" unicode="&#xf76a;" horiz-adv-x="386" 
d="M314 507v-338c0 -151 -91 -183 -181 -183c-46 0 -96 8 -133 23l22 83c28 -12 70 -21 104 -21c47 0 93 16 93 102v334h95z" />
    <glyph glyph-name="Ksmall" unicode="&#xf76b;" horiz-adv-x="515" 
d="M516 0h-115c-124 165 -203 256 -234 268v-268h-94v507h94v-239c31 23 108 106 217 239h115c-107 -131 -183 -209 -212 -230c28 -16 108 -108 229 -277z" />
    <glyph glyph-name="Lsmall" unicode="&#xf76c;" horiz-adv-x="416" 
d="M415 0h-343v507h95v-422h248v-85z" />
    <glyph glyph-name="Msmall" unicode="&#xf76d;" horiz-adv-x="719" 
d="M364 168c45 118 91 228 143 339h139v-507h-93v409c-55 -117 -115 -262 -156 -376h-78c-43 116 -101 262 -152 376v-409h-94v507h144c53 -112 101 -223 147 -339z" />
    <glyph glyph-name="Nsmall" unicode="&#xf76e;" horiz-adv-x="574" 
d="M407 153v354h94v-507h-94c-74 127 -158 261 -240 366v-366h-95v507h94c82 -107 171 -231 241 -354z" />
    <glyph glyph-name="Osmall" unicode="&#xf76f;" 
d="M293 -14c-160 0 -236 62 -236 270c0 207 77 265 236 265c160 0 236 -58 236 -265c0 -208 -75 -270 -236 -270zM293 440c-103 0 -136 -27 -136 -186c0 -152 33 -187 136 -187s136 35 136 187c0 159 -33 186 -136 186z" />
    <glyph glyph-name="Psmall" unicode="&#xf770;" horiz-adv-x="554" 
d="M338 429h-171v-162h163c52 0 77 16 77 79c0 60 -21 83 -69 83zM355 193h-188v-193h-95v507h278c112 0 158 -52 158 -161c0 -98 -44 -153 -153 -153z" />
    <glyph glyph-name="Qsmall" unicode="&#xf771;" 
d="M288 -14c-153 0 -231 62 -231 270c0 207 77 265 236 265c160 0 236 -58 236 -265c0 -156 -38 -226 -129 -252c45 -9 106 -68 193 -186h-113c-75 110 -146 168 -192 168zM293 441c-103 0 -136 -28 -136 -187c0 -152 33 -188 136 -188s136 36 136 188
c0 159 -33 187 -136 187z" />
    <glyph glyph-name="Rsmall" unicode="&#xf772;" horiz-adv-x="556" 
d="M347 507c122 0 157 -68 157 -148c0 -72 -34 -133 -143 -135c49 -12 80 -40 188 -224h-112c-92 169 -133 197 -188 197h-82v-197h-95v507h275zM167 274h160c54 0 78 26 78 78c0 57 -26 75 -75 75h-163v-153z" />
    <glyph glyph-name="Ssmall" unicode="&#xf773;" horiz-adv-x="497" 
d="M405 415c-40 14 -96 26 -146 26c-72 0 -110 -12 -110 -75c0 -43 28 -60 115 -67c127 -11 182 -51 182 -149c0 -126 -74 -164 -206 -164c-52 0 -133 11 -182 27l23 79c36 -14 105 -26 156 -26c77 0 112 17 112 78c0 45 -23 66 -116 74c-117 9 -181 39 -181 140
c0 126 79 163 209 163c51 0 115 -10 169 -27c-8 -26 -17 -52 -25 -79z" />
    <glyph glyph-name="Tsmall" unicode="&#xf774;" horiz-adv-x="483" 
d="M289 423v-423h-95v423h-187v84h468v-84h-186z" />
    <glyph glyph-name="Usmall" unicode="&#xf775;" horiz-adv-x="564" 
d="M282 73c94 0 116 33 116 114v320h95v-313c0 -157 -56 -208 -211 -208c-154 0 -211 51 -211 208v313h94v-320c0 -81 23 -114 117 -114z" />
    <glyph glyph-name="Vsmall" unicode="&#xf776;" horiz-adv-x="516" 
d="M258 93c55 137 106 277 143 414h99c-50 -167 -116 -340 -186 -507h-122c-50 173 -110 360 -175 507h101c49 -120 101 -273 140 -414z" />
    <glyph glyph-name="Wsmall" unicode="&#xf777;" horiz-adv-x="821" 
d="M413 386c-29 -122 -76 -278 -114 -386h-123c-47 173 -104 355 -163 507h103c45 -117 92 -272 127 -412c39 112 99 317 120 412h102c37 -109 84 -291 112 -412c50 137 97 275 129 412h100c-46 -167 -106 -346 -173 -507h-123c-25 121 -69 299 -97 386z" />
    <glyph glyph-name="Xsmall" unicode="&#xf778;" horiz-adv-x="521" 
d="M502 0h-110c-34 55 -77 118 -122 182c-49 -65 -97 -126 -143 -182h-109c63 72 134 164 201 253c-67 92 -139 183 -200 254h119c41 -51 88 -113 134 -177c48 64 88 126 121 177h108c-51 -76 -112 -164 -176 -250c63 -86 125 -177 177 -257z" />
    <glyph glyph-name="Ysmall" unicode="&#xf779;" horiz-adv-x="480" 
d="M245 311c47 56 102 134 143 196h108c-63 -92 -138 -191 -207 -274v-233h-94v233c-63 89 -141 193 -211 274h113c50 -59 101 -129 148 -196z" />
    <glyph glyph-name="Zsmall" unicode="&#xf77a;" horiz-adv-x="496" 
d="M27 0v26c108 134 233 305 290 397h-274v84h420v-25c-80 -126 -216 -315 -285 -398h282v-84h-433z" />
    <glyph glyph-name="AEsmall" unicode="&#xf7e6;" horiz-adv-x="784" 
d="M680 306v-76h-227v-150h289v-80h-384v138h-231c-32 -48 -63 -95 -90 -138h-107c102 160 238 346 361 507h451v-81h-289v-120h227zM336 431c-52 -70 -108 -146 -160 -221h182v221h-22z" />
    <glyph glyph-name="OEsmall" unicode="&#xf6fa;" horiz-adv-x="836" 
d="M794 0h-394c-30 -9 -66 -14 -108 -14c-159 0 -235 62 -235 270c0 205 76 264 234 264c41 0 81 -4 111 -13h392v-81h-299c18 -29 29 -67 33 -120h204v-76h-204c-1 -68 -13 -116 -35 -150h301v-80zM292 441c-102 0 -135 -28 -135 -187c0 -153 33 -188 135 -188
c104 0 137 35 137 188c0 159 -33 187 -137 187z" />
    <glyph glyph-name="Ethsmall" unicode="&#xf7f0;" horiz-adv-x="570" 
d="M20 230v75h53v202h194c159 0 246 -54 246 -251c0 -198 -86 -256 -246 -256h-194v230h-53zM265 429h-98v-124h109v-75h-109v-152h98c103 0 148 31 148 176c0 150 -45 175 -148 175z" />
    <glyph glyph-name="IJsmall" horiz-adv-x="625" 
d="M167 507v-507h-94v507h94zM553 507v-338c0 -151 -91 -183 -181 -183c-46 0 -96 8 -133 23l22 83c28 -12 70 -21 104 -21c47 0 93 16 93 102v334h95z" />
    <glyph glyph-name="Oslashsmall" unicode="&#xf7f8;" 
d="M461 507h96l-63 -73c24 -41 35 -98 35 -178c0 -208 -76 -270 -237 -270c-63 0 -113 11 -150 34l-18 -20h-94l62 73c-24 41 -35 101 -35 183c0 207 77 265 235 265c64 0 114 -9 151 -34zM292 440c-99 0 -135 -26 -135 -174c0 -45 3 -79 10 -107l218 260
c-21 16 -51 21 -93 21zM292 67c104 0 136 36 136 185c0 38 -3 69 -9 95l-218 -258c20 -17 50 -22 91 -22z" />
    <glyph glyph-name="Thornsmall" unicode="&#xf7fe;" horiz-adv-x="554" 
d="M167 101v-101h-95v507h95v-92h183c112 0 158 -52 158 -161c0 -98 -44 -153 -153 -153h-188zM338 337h-171v-162h163c52 0 77 16 77 79c0 60 -21 83 -69 83z" />
    <glyph glyph-name="Aacutesmall" unicode="&#xf7e1;" horiz-adv-x="548" 
d="M283 568h-90l121 129h107zM431 0c-17 40 -35 87 -53 137h-223c-16 -47 -30 -94 -42 -137h-99c47 160 119 346 185 507h155c49 -167 115 -369 179 -507h-102zM284 427h-23c-28 -70 -56 -144 -82 -218h174c-26 75 -49 149 -69 218z" />
    <glyph glyph-name="Abrevesmall" horiz-adv-x="548" 
d="M134 697h70c0 -52 24 -63 73 -63c47 0 73 11 73 63h66c0 -91 -48 -132 -141 -132c-91 0 -141 41 -141 132zM431 0c-17 40 -35 87 -53 137h-223c-16 -47 -30 -94 -42 -137h-99c47 160 119 346 185 507h155c49 -167 115 -369 179 -507h-102zM284 427h-23
c-28 -70 -56 -144 -82 -218h174c-26 75 -49 149 -69 218z" />
    <glyph glyph-name="Acircumflexsmall" unicode="&#xf7e2;" horiz-adv-x="548" 
d="M431 0c-17 40 -35 87 -53 137h-223c-16 -47 -30 -94 -42 -137h-99c47 160 119 346 185 507h155c49 -167 115 -369 179 -507h-102zM284 427h-23c-28 -70 -56 -144 -82 -218h174c-26 75 -49 149 -69 218zM349 568l-76 81l-74 -81h-95l122 129h97l126 -129h-100z" />
    <glyph glyph-name="Adieresissmall" unicode="&#xf7e4;" horiz-adv-x="548" 
d="M431 0c-17 40 -35 87 -53 137h-223c-16 -47 -30 -94 -42 -137h-99c47 160 119 346 185 507h155c49 -167 115 -369 179 -507h-102zM284 427h-23c-28 -70 -56 -144 -82 -218h174c-26 75 -49 149 -69 218zM173 669c38 0 50 -6 50 -47c0 -45 -12 -52 -50 -52
c-39 0 -51 7 -51 52c0 41 12 47 51 47zM374 669c38 0 50 -6 50 -47c0 -45 -12 -52 -50 -52c-39 0 -51 7 -51 52c0 41 12 47 51 47z" />
    <glyph glyph-name="Agravesmall" unicode="&#xf7e0;" horiz-adv-x="548" 
d="M367 568h-89l-139 129h108zM431 0c-17 40 -35 87 -53 137h-223c-16 -47 -30 -94 -42 -137h-99c47 160 119 346 185 507h155c49 -167 115 -369 179 -507h-102zM284 427h-23c-28 -70 -56 -144 -82 -218h174c-26 75 -49 149 -69 218z" />
    <glyph glyph-name="Amacronsmall" horiz-adv-x="548" 
d="M431 0c-17 40 -35 87 -53 137h-223c-16 -47 -30 -94 -42 -137h-99c47 160 119 346 185 507h155c49 -167 115 -369 179 -507h-102zM284 427h-23c-28 -70 -56 -144 -82 -218h174c-26 75 -49 149 -69 218zM140 581v74h265v-74h-265z" />
    <glyph glyph-name="Aogoneksmall" horiz-adv-x="548" 
d="M431 0c-17 40 -35 87 -53 137h-223c-16 -47 -30 -94 -42 -137h-99c47 160 119 346 185 507h155c49 -167 115 -369 179 -507h-41c-58 -38 -71 -61 -71 -98c0 -29 13 -43 65 -43c33 0 67 13 87 29l32 -56c-32 -24 -86 -35 -128 -35c-101 0 -130 30 -130 89
c0 46 30 88 92 114h-8zM284 427h-23c-28 -70 -56 -144 -82 -218h174c-26 75 -49 149 -69 218z" />
    <glyph glyph-name="Aringsmall" unicode="&#xf7e5;" horiz-adv-x="548" 
d="M272 739c75 0 114 -28 114 -96c0 -67 -39 -96 -114 -96s-114 29 -114 96c0 68 31 96 114 96zM272 689c-42 0 -54 -16 -54 -47c0 -30 12 -48 54 -48c43 0 55 18 55 48c0 31 -12 47 -55 47zM431 0c-17 40 -35 87 -53 137h-223c-16 -47 -30 -94 -42 -137h-99
c47 160 119 346 185 507h155c49 -167 115 -369 179 -507h-102zM284 427h-23c-28 -70 -56 -144 -82 -218h174c-26 75 -49 149 -69 218z" />
    <glyph glyph-name="Atildesmall" unicode="&#xf7e3;" horiz-adv-x="548" 
d="M399 695l52 -41c-21 -56 -55 -92 -112 -92c-56 0 -91 60 -139 60c-21 0 -39 -15 -56 -56l-46 45c29 51 59 81 106 81c63 0 91 -59 138 -59c25 0 40 15 57 62zM431 0c-17 40 -35 87 -53 137h-223c-16 -47 -30 -94 -42 -137h-99c47 160 119 346 185 507h155
c49 -167 115 -369 179 -507h-102zM284 427h-23c-28 -70 -56 -144 -82 -218h174c-26 75 -49 149 -69 218z" />
    <glyph glyph-name="Ccedillasmall" unicode="&#xf7e7;" horiz-adv-x="468" 
d="M430 96l25 -83c-39 -17 -104 -27 -150 -27v-30c84 0 114 -17 114 -77c0 -63 -36 -82 -131 -82c-48 0 -77 5 -102 18l20 48c19 -9 48 -14 79 -14c37 0 50 5 50 30c0 27 -25 33 -108 28l31 81c-127 12 -201 81 -201 268c0 207 93 265 248 265c46 0 112 -10 150 -24l-25 -84
c-34 15 -79 23 -121 23c-103 0 -152 -25 -152 -182c0 -149 49 -183 152 -183c44 0 87 11 121 25z" />
    <glyph glyph-name="Cacutesmall" horiz-adv-x="468" 
d="M430 96l25 -83c-39 -17 -104 -27 -150 -27c-156 0 -248 62 -248 270c0 207 93 265 248 265c46 0 112 -10 150 -24l-25 -84c-34 15 -79 23 -121 23c-103 0 -152 -25 -152 -182c0 -149 49 -183 152 -183c44 0 87 11 121 25zM292 568h-90l121 129h107z" />
    <glyph glyph-name="Ccircumflexsmall" horiz-adv-x="468" 
d="M430 96l25 -83c-39 -17 -104 -27 -150 -27c-156 0 -248 62 -248 270c0 207 93 265 248 265c46 0 112 -10 150 -24l-25 -84c-34 15 -79 23 -121 23c-103 0 -152 -25 -152 -182c0 -149 49 -183 152 -183c44 0 87 11 121 25zM364 568l-76 81l-74 -81h-95l122 129h97
l126 -129h-100z" />
    <glyph glyph-name="Ccaronsmall" horiz-adv-x="468" 
d="M430 96l25 -83c-39 -17 -104 -27 -150 -27c-156 0 -248 62 -248 270c0 207 93 265 248 265c46 0 112 -10 150 -24l-25 -84c-34 15 -79 23 -121 23c-103 0 -152 -25 -152 -182c0 -149 49 -183 152 -183c44 0 87 11 121 25zM220 697l76 -81l74 81h95l-122 -129h-97
l-126 129h100z" />
    <glyph glyph-name="Cdotaccentsmall" horiz-adv-x="468" 
d="M430 96l25 -83c-39 -17 -104 -27 -150 -27c-156 0 -248 62 -248 270c0 207 93 265 248 265c46 0 112 -10 150 -24l-25 -84c-34 15 -79 23 -121 23c-103 0 -152 -25 -152 -182c0 -149 49 -183 152 -183c44 0 87 11 121 25zM297 669c38 0 50 -6 50 -47
c0 -45 -12 -52 -50 -52s-51 7 -51 52c0 41 13 47 51 47z" />
    <glyph glyph-name="Dcroatsmall" horiz-adv-x="570" 
d="M20 230v75h53v202h194c159 0 246 -54 246 -251c0 -198 -86 -256 -246 -256h-194v230h-53zM265 429h-98v-124h109v-75h-109v-152h98c103 0 148 31 148 176c0 150 -45 175 -148 175z" />
    <glyph glyph-name="Dcaronsmall" horiz-adv-x="570" 
d="M197 697l76 -81l74 81h95l-122 -129h-97l-126 129h100zM72 0v507h195c159 0 245 -54 245 -251c0 -198 -85 -256 -245 -256h-195zM265 429h-98v-351h98c103 0 147 31 147 176c0 150 -44 175 -147 175z" />
    <glyph glyph-name="Dmacronsmall" horiz-adv-x="570" 
d="M72 0v507h195c159 0 245 -54 245 -251c0 -198 -85 -256 -245 -256h-195zM265 429h-98v-351h98c103 0 147 31 147 176c0 150 -44 175 -147 175zM131 581v74h265v-74h-265z" />
    <glyph glyph-name="Eacutesmall" unicode="&#xf7e9;" horiz-adv-x="498" 
d="M277 568h-90l121 129h107zM394 306v-76h-227v-150h289v-80h-384v507h384v-81h-289v-120h227z" />
    <glyph glyph-name="Ebrevesmall" horiz-adv-x="498" 
d="M134 697h70c0 -52 24 -63 73 -63c47 0 73 11 73 63h66c0 -91 -48 -132 -141 -132c-91 0 -141 41 -141 132zM394 306v-76h-227v-150h289v-80h-384v507h384v-81h-289v-120h227z" />
    <glyph glyph-name="Ecaronsmall" horiz-adv-x="498" 
d="M212 697l76 -81l74 81h95l-122 -129h-97l-126 129h100zM394 306v-76h-227v-150h289v-80h-384v507h384v-81h-289v-120h227z" />
    <glyph glyph-name="Ecircumflexsmall" unicode="&#xf7ea;" horiz-adv-x="498" 
d="M394 306v-76h-227v-150h289v-80h-384v507h384v-81h-289v-120h227zM351 568l-76 81l-74 -81h-95l122 129h97l126 -129h-100z" />
    <glyph glyph-name="Edieresissmall" unicode="&#xf7eb;" horiz-adv-x="498" 
d="M394 306v-76h-227v-150h289v-80h-384v507h384v-81h-289v-120h227zM178 669c38 0 50 -6 50 -47c0 -45 -12 -52 -50 -52c-39 0 -51 7 -51 52c0 41 12 47 51 47zM379 669c38 0 50 -6 50 -47c0 -45 -12 -52 -50 -52c-39 0 -51 7 -51 52c0 41 12 47 51 47z" />
    <glyph glyph-name="Edotaccentsmall" horiz-adv-x="498" 
d="M394 306v-76h-227v-150h289v-80h-384v507h384v-81h-289v-120h227zM279 669c38 0 50 -6 50 -47c0 -45 -12 -52 -50 -52s-51 7 -51 52c0 41 13 47 51 47z" />
    <glyph glyph-name="Egravesmall" unicode="&#xf7e8;" horiz-adv-x="498" 
d="M373 568h-89l-139 129h108zM394 306v-76h-227v-150h289v-80h-384v507h384v-81h-289v-120h227z" />
    <glyph glyph-name="Emacronsmall" horiz-adv-x="498" 
d="M394 306v-76h-227v-150h289v-80h-384v507h384v-81h-289v-120h227zM135 581v74h265v-74h-265z" />
    <glyph glyph-name="Eogoneksmall" horiz-adv-x="498" 
d="M394 306v-76h-227v-150h289v-80h-54c-58 -38 -71 -61 -71 -98c0 -29 13 -43 65 -43c33 0 67 13 87 29l32 -56c-32 -24 -86 -35 -128 -35c-101 0 -130 30 -130 89c0 46 30 88 92 114h-277v507h384v-81h-289v-120h227z" />
    <glyph glyph-name="Gacutesmall" horiz-adv-x="561" 
d="M299 568h-90l121 129h107zM406 83v128h-125v76h213v-266c-45 -18 -124 -35 -184 -35c-157 0 -253 62 -253 270c0 207 103 265 258 265c45 0 120 -10 162 -24l-27 -82c-40 16 -91 22 -136 22c-102 0 -157 -29 -157 -183c0 -150 56 -185 157 -185c31 0 67 5 92 14z" />
    <glyph glyph-name="Gbrevesmall" horiz-adv-x="561" 
d="M166 697h70c0 -52 24 -63 73 -63c47 0 73 11 73 63h66c0 -91 -48 -132 -141 -132c-91 0 -141 41 -141 132zM406 83v128h-125v76h213v-266c-45 -18 -124 -35 -184 -35c-157 0 -253 62 -253 270c0 207 103 265 258 265c45 0 120 -10 162 -24l-27 -82c-40 16 -91 22 -136 22
c-102 0 -157 -29 -157 -183c0 -150 56 -185 157 -185c31 0 67 5 92 14z" />
    <glyph glyph-name="Gcircumflexsmall" horiz-adv-x="561" 
d="M406 83v128h-125v76h213v-266c-45 -18 -124 -35 -184 -35c-157 0 -253 62 -253 270c0 207 103 265 258 265c45 0 120 -10 162 -24l-27 -82c-40 16 -91 22 -136 22c-102 0 -157 -29 -157 -183c0 -150 56 -185 157 -185c31 0 67 5 92 14zM381 568l-76 81l-74 -81h-95
l122 129h97l126 -129h-100z" />
    <glyph glyph-name="Gcommaaccentsmall" horiz-adv-x="561" 
d="M406 83v128h-125v76h213v-266c-45 -18 -124 -35 -184 -35c-157 0 -253 62 -253 270c0 207 103 265 258 265c45 0 120 -10 162 -24l-27 -82c-40 16 -91 22 -136 22c-102 0 -157 -29 -157 -183c0 -150 56 -185 157 -185c31 0 67 5 92 14zM366 -51l-82 -167h-72l48 167h106z
" />
    <glyph glyph-name="Gdotaccentsmall" horiz-adv-x="561" 
d="M406 83v128h-125v76h213v-266c-45 -18 -124 -35 -184 -35c-157 0 -253 62 -253 270c0 207 103 265 258 265c45 0 120 -10 162 -24l-27 -82c-40 16 -91 22 -136 22c-102 0 -157 -29 -157 -183c0 -150 56 -185 157 -185c31 0 67 5 92 14zM304 669c38 0 50 -6 50 -47
c0 -45 -12 -52 -50 -52s-51 7 -51 52c0 41 13 47 51 47z" />
    <glyph glyph-name="Hcircumflexsmall" horiz-adv-x="571" 
d="M403 231h-236v-231h-95v507h95v-195h236v195h95v-507h-95v231zM361 568l-76 81l-74 -81h-95l122 129h97l126 -129h-100z" />
    <glyph glyph-name="Hbarsmall" horiz-adv-x="571" 
d="M11 385v68h62v54h94v-54h237v54h94v-54h62v-68h-62v-385h-94v231h-237v-231h-94v385h-62zM167 313h237v72h-237v-72z" />
    <glyph glyph-name="Iacutesmall" unicode="&#xf7ed;" horiz-adv-x="239" 
d="M137 568h-90l121 129h107zM167 507v-507h-94v507h94z" />
    <glyph glyph-name="Ibrevesmall" horiz-adv-x="239" 
d="M-21 697h70c0 -52 24 -63 73 -63c47 0 73 11 73 63h66c0 -91 -48 -132 -141 -132c-91 0 -141 41 -141 132zM167 507v-507h-94v507h94z" />
    <glyph glyph-name="Icircumflexsmall" unicode="&#xf7ee;" horiz-adv-x="239" 
d="M167 507v-507h-94v507h94zM193 568l-76 81l-74 -81h-95l122 129h97l126 -129h-100z" />
    <glyph glyph-name="Idieresissmall" unicode="&#xf7ef;" horiz-adv-x="239" 
d="M20 669c38 0 50 -6 50 -47c0 -45 -12 -52 -50 -52c-39 0 -51 7 -51 52c0 41 12 47 51 47zM221 669c38 0 50 -6 50 -47c0 -45 -12 -52 -50 -52c-39 0 -51 7 -51 52c0 41 12 47 51 47zM167 507v-507h-94v507h94z" />
    <glyph glyph-name="Igravesmall" unicode="&#xf7ec;" horiz-adv-x="239" 
d="M187 568h-89l-139 129h108zM167 507v-507h-94v507h94z" />
    <glyph glyph-name="Imacronsmall" horiz-adv-x="239" 
d="M167 507v-507h-94v507h94zM-12 581v74h265v-74h-265z" />
    <glyph glyph-name="Iogoneksmall" horiz-adv-x="239" 
d="M167 507v-507h-30c-58 -38 -71 -61 -71 -98c0 -29 13 -43 65 -43c33 0 67 13 87 29l32 -56c-32 -24 -86 -35 -128 -35c-101 0 -130 30 -130 89c0 46 30 88 92 114h-11v507h94z" />
    <glyph glyph-name="Itildesmall" horiz-adv-x="239" 
d="M248 695l52 -41c-21 -56 -55 -92 -112 -92c-56 0 -91 60 -139 60c-21 0 -39 -15 -56 -56l-46 45c29 51 59 81 106 81c63 0 91 -59 138 -59c25 0 40 15 57 62zM167 507v-507h-94v507h94z" />
    <glyph glyph-name="Dotlessismall" horiz-adv-x="239" 
d="M167 507v-507h-94v507h94z" />
    <glyph glyph-name="Jcircumflexsmall" horiz-adv-x="386" 
d="M314 507v-338c0 -151 -91 -183 -181 -183c-46 0 -96 8 -133 23l22 83c28 -12 70 -21 104 -21c47 0 93 16 93 102v334h95zM337 568l-76 81l-74 -81h-95l122 129h97l126 -129h-100z" />
    <glyph glyph-name="Kcommaaccentsmall" horiz-adv-x="515" 
d="M516 0h-115c-124 165 -203 256 -234 268v-268h-94v507h94v-239c31 23 108 106 217 239h115c-107 -131 -183 -209 -212 -230c28 -16 108 -108 229 -277zM347 -51l-82 -167h-72l48 167h106z" />
    <glyph glyph-name="Lacutesmall" horiz-adv-x="416" 
d="M178 568h-90l121 129h107zM415 0h-343v507h95v-422h248v-85z" />
    <glyph glyph-name="Lcaronsmall" horiz-adv-x="416" 
d="M415 0h-343v507h95v-422h248v-85zM252 544h92l-56 -192h-57z" />
    <glyph glyph-name="Lcommaaccentsmall" horiz-adv-x="416" 
d="M415 0h-343v507h95v-422h248v-85zM299 -51l-82 -167h-72l48 167h106z" />
    <glyph glyph-name="Ldotsmall" horiz-adv-x="416" 
d="M415 0h-343v507h95v-422h248v-85zM285 362c38 0 50 -6 50 -47c0 -45 -12 -52 -50 -52s-51 7 -51 52c0 41 13 47 51 47z" />
    <glyph glyph-name="Lslashsmall" unicode="&#xf6f9;" horiz-adv-x="416" 
d="M415 0h-343v139l-45 -41v88l45 41v280h95v-198l98 89v-89l-98 -89v-135h248v-85z" />
    <glyph glyph-name="Nacutesmall" horiz-adv-x="574" 
d="M301 568h-90l121 129h107zM407 153v354h94v-507h-94c-74 127 -158 261 -240 366v-366h-95v507h94c82 -107 171 -231 241 -354z" />
    <glyph glyph-name="Ncaronsmall" horiz-adv-x="574" 
d="M219 697l76 -81l74 81h95l-122 -129h-97l-126 129h100zM407 153v354h94v-507h-94c-74 127 -158 261 -240 366v-366h-95v507h94c82 -107 171 -231 241 -354z" />
    <glyph glyph-name="Ncommaaccentsmall" horiz-adv-x="574" 
d="M407 153v354h94v-507h-94c-74 127 -158 261 -240 366v-366h-95v507h94c82 -107 171 -231 241 -354zM349 -51l-82 -167h-72l48 167h106z" />
    <glyph glyph-name="Ntildesmall" unicode="&#xf7f1;" horiz-adv-x="574" 
d="M418 695l52 -41c-21 -56 -55 -92 -112 -92c-56 0 -91 60 -139 60c-21 0 -39 -15 -56 -56l-46 45c29 51 59 81 106 81c63 0 91 -59 138 -59c25 0 40 15 57 62zM407 153v354h94v-507h-94c-74 127 -158 261 -240 366v-366h-95v507h94c82 -107 171 -231 241 -354z" />
    <glyph glyph-name="Oacutesmall" unicode="&#xf7f3;" 
d="M293 -14c-160 0 -236 62 -236 270c0 207 77 265 236 265c160 0 236 -58 236 -265c0 -208 -75 -270 -236 -270zM293 441c-103 0 -136 -28 -136 -187c0 -152 33 -188 136 -188s136 36 136 188c0 159 -33 187 -136 187zM297 568h-90l121 129h107z" />
    <glyph glyph-name="Obrevesmall" 
d="M293 -14c-160 0 -236 62 -236 270c0 207 77 265 236 265c160 0 236 -58 236 -265c0 -208 -75 -270 -236 -270zM293 440c-103 0 -136 -27 -136 -186c0 -152 33 -187 136 -187s136 35 136 187c0 159 -33 186 -136 186zM152 697h70c0 -52 24 -63 72 -63s74 11 74 63h66
c0 -91 -49 -132 -142 -132c-90 0 -140 41 -140 132z" />
    <glyph glyph-name="Ocircumflexsmall" unicode="&#xf7f4;" 
d="M293 -14c-160 0 -236 62 -236 270c0 207 77 265 236 265c160 0 236 -58 236 -265c0 -208 -75 -270 -236 -270zM293 441c-103 0 -136 -28 -136 -187c0 -152 33 -188 136 -188s136 36 136 188c0 159 -33 187 -136 187zM364 568l-76 81l-74 -81h-95l122 129h97l126 -129
h-100z" />
    <glyph glyph-name="Odieresissmall" unicode="&#xf7f6;" 
d="M293 -14c-160 0 -236 62 -236 270c0 207 77 265 236 265c160 0 236 -58 236 -265c0 -208 -75 -270 -236 -270zM293 441c-103 0 -136 -28 -136 -187c0 -152 33 -188 136 -188s136 36 136 188c0 159 -33 187 -136 187zM192 669c38 0 50 -6 50 -47c0 -45 -12 -52 -50 -52
c-39 0 -51 7 -51 52c0 41 12 47 51 47zM393 669c38 0 50 -6 50 -47c0 -45 -12 -52 -50 -52c-39 0 -51 7 -51 52c0 41 12 47 51 47z" />
    <glyph glyph-name="Ogravesmall" unicode="&#xf7f2;" 
d="M293 -14c-160 0 -236 62 -236 270c0 207 77 265 236 265c160 0 236 -58 236 -265c0 -208 -75 -270 -236 -270zM293 441c-103 0 -136 -28 -136 -187c0 -152 33 -188 136 -188s136 36 136 188c0 159 -33 187 -136 187zM390 568h-89l-139 129h108z" />
    <glyph glyph-name="Ohungarumlautsmall" 
d="M293 -14c-160 0 -236 62 -236 270c0 207 77 265 236 265c160 0 236 -58 236 -265c0 -208 -75 -270 -236 -270zM293 440c-103 0 -136 -27 -136 -186c0 -152 33 -187 136 -187s136 35 136 187c0 159 -33 186 -136 186zM236 697h92l-111 -129h-69zM402 697h92l-110 -129h-70
z" />
    <glyph glyph-name="Omacronsmall" 
d="M293 -14c-160 0 -236 62 -236 270c0 207 77 265 236 265c160 0 236 -58 236 -265c0 -208 -75 -270 -236 -270zM293 440c-103 0 -136 -27 -136 -186c0 -152 33 -187 136 -187s136 35 136 187c0 159 -33 186 -136 186zM161 581v74h265v-74h-265z" />
    <glyph glyph-name="Otildesmall" unicode="&#xf7f5;" 
d="M293 -14c-160 0 -236 62 -236 270c0 207 77 265 236 265c160 0 236 -58 236 -265c0 -208 -75 -270 -236 -270zM293 440c-103 0 -136 -27 -136 -186c0 -152 33 -187 136 -187s136 35 136 187c0 159 -33 186 -136 186zM418 695l52 -41c-21 -56 -55 -92 -112 -92
c-56 0 -91 60 -139 60c-21 0 -39 -15 -56 -56l-46 45c29 51 59 81 106 81c63 0 91 -59 138 -59c25 0 40 15 57 62z" />
    <glyph glyph-name="Racutesmall" horiz-adv-x="556" 
d="M265 568h-90l121 129h107zM347 507c122 0 157 -68 157 -148c0 -72 -34 -133 -143 -135c49 -12 80 -40 188 -224h-112c-92 169 -133 197 -188 197h-82v-197h-95v507h275zM167 274h160c54 0 78 26 78 78c0 57 -26 75 -75 75h-163v-153z" />
    <glyph glyph-name="Rcaronsmall" horiz-adv-x="556" 
d="M210 697l76 -81l74 81h95l-122 -129h-97l-126 129h100zM347 507c122 0 157 -68 157 -148c0 -72 -34 -133 -143 -135c49 -12 80 -40 188 -224h-112c-92 169 -133 197 -188 197h-82v-197h-95v507h275zM167 274h160c54 0 78 26 78 78c0 57 -26 75 -75 75h-163v-153z" />
    <glyph glyph-name="Rcommaaccentsmall" horiz-adv-x="556" 
d="M347 507c122 0 157 -68 157 -148c0 -72 -34 -133 -143 -135c49 -12 80 -40 188 -224h-112c-92 169 -133 197 -188 197h-82v-197h-95v507h275zM167 274h160c54 0 78 26 78 78c0 57 -26 75 -75 75h-163v-153zM346 -51l-82 -167h-72l48 167h106z" />
    <glyph glyph-name="Sacutesmall" horiz-adv-x="497" 
d="M405 415c-40 14 -96 26 -146 26c-72 0 -110 -12 -110 -75c0 -43 28 -60 115 -67c127 -11 182 -51 182 -149c0 -126 -74 -164 -206 -164c-52 0 -133 11 -182 27l23 79c36 -14 105 -26 156 -26c77 0 112 17 112 78c0 45 -23 66 -116 74c-117 9 -181 39 -181 140
c0 126 79 163 209 163c51 0 115 -10 169 -27c-8 -26 -17 -52 -25 -79zM248 568h-90l121 129h107z" />
    <glyph glyph-name="Scaronsmall" unicode="&#xf6fd;" horiz-adv-x="497" 
d="M405 415c-40 14 -96 26 -146 26c-72 0 -110 -12 -110 -75c0 -43 28 -60 115 -67c127 -11 182 -51 182 -149c0 -126 -74 -164 -206 -164c-52 0 -133 11 -182 27l23 79c36 -14 105 -26 156 -26c77 0 112 17 112 78c0 45 -23 66 -116 74c-117 9 -181 39 -181 140
c0 126 79 163 209 163c51 0 115 -10 169 -27c-8 -26 -17 -52 -25 -79zM180 697l76 -81l74 81h95l-122 -129h-97l-126 129h100z" />
    <glyph glyph-name="Scedillasmall" horiz-adv-x="497" 
d="M405 415c-40 14 -96 26 -146 26c-72 0 -110 -12 -110 -75c0 -43 28 -60 115 -67c127 -11 182 -51 182 -149c0 -121 -68 -160 -189 -164v-30c84 0 114 -17 114 -77c0 -63 -36 -82 -131 -82c-48 0 -77 5 -102 18l20 48c19 -9 48 -14 79 -14c37 0 50 5 50 30
c0 27 -25 33 -108 28l31 80c-50 3 -112 13 -152 26l23 79c36 -14 105 -26 156 -26c77 0 112 17 112 78c0 45 -23 66 -116 74c-117 9 -181 39 -181 140c0 126 79 163 209 163c51 0 115 -10 169 -27c-8 -26 -17 -52 -25 -79z" />
    <glyph glyph-name="Scircumflexsmall" horiz-adv-x="497" 
d="M405 415c-40 14 -96 26 -146 26c-72 0 -110 -12 -110 -75c0 -43 28 -60 115 -67c127 -11 182 -51 182 -149c0 -126 -74 -164 -206 -164c-52 0 -133 11 -182 27l23 79c36 -14 105 -26 156 -26c77 0 112 17 112 78c0 45 -23 66 -116 74c-117 9 -181 39 -181 140
c0 126 79 163 209 163c51 0 115 -10 169 -27c-8 -26 -17 -52 -25 -79zM331 568l-76 81l-74 -81h-95l122 129h97l126 -129h-100z" />
    <glyph glyph-name="Scommaaccentsmall" horiz-adv-x="497" 
d="M405 415c-40 14 -96 26 -146 26c-72 0 -110 -12 -110 -75c0 -43 28 -60 115 -67c127 -11 182 -51 182 -149c0 -126 -74 -164 -206 -164c-52 0 -133 11 -182 27l23 79c36 -14 105 -26 156 -26c77 0 112 17 112 78c0 45 -23 66 -116 74c-117 9 -181 39 -181 140
c0 126 79 163 209 163c51 0 115 -10 169 -27c-8 -26 -17 -52 -25 -79zM316 -51l-82 -167h-72l48 167h106z" />
    <glyph glyph-name="Tbarsmall" horiz-adv-x="483" 
d="M110 198v74h84v151h-187v84h468v-84h-187v-151h87v-74h-87v-198h-94v198h-84z" />
    <glyph glyph-name="Tcaronsmall" horiz-adv-x="483" 
d="M170 697l76 -81l74 81h95l-122 -129h-97l-126 129h100zM289 423v-423h-95v423h-187v84h468v-84h-186z" />
    <glyph glyph-name="Tcommaaccentsmall" horiz-adv-x="483" 
d="M289 423v-423h-95v423h-187v84h468v-84h-186zM303 -51l-82 -167h-72l48 167h106z" />
    <glyph glyph-name="Uacutesmall" unicode="&#xf7fa;" horiz-adv-x="564" 
d="M277 568h-90l121 129h107zM282 73c94 0 116 33 116 114v320h95v-313c0 -157 -56 -208 -211 -208c-154 0 -211 51 -211 208v313h94v-320c0 -81 23 -114 117 -114z" />
    <glyph glyph-name="Ubrevesmall" horiz-adv-x="564" 
d="M144 697h70c0 -52 24 -63 73 -63c47 0 73 11 73 63h66c0 -91 -48 -132 -141 -132c-91 0 -141 41 -141 132zM282 73c94 0 116 33 116 114v320h95v-313c0 -157 -56 -208 -211 -208c-154 0 -211 51 -211 208v313h94v-320c0 -81 23 -114 117 -114z" />
    <glyph glyph-name="Ucircumflexsmall" unicode="&#xf7fb;" horiz-adv-x="564" 
d="M282 73c94 0 116 33 116 114v320h95v-313c0 -157 -56 -208 -211 -208c-154 0 -211 51 -211 208v313h94v-320c0 -81 23 -114 117 -114zM352 568l-76 81l-74 -81h-95l122 129h97l126 -129h-100z" />
    <glyph glyph-name="Udieresissmall" unicode="&#xf7fc;" horiz-adv-x="564" 
d="M282 73c94 0 116 33 116 114v320h95v-313c0 -157 -56 -208 -211 -208c-154 0 -211 51 -211 208v313h94v-320c0 -81 23 -114 117 -114zM183 669c38 0 50 -6 50 -47c0 -45 -12 -52 -50 -52c-39 0 -51 7 -51 52c0 41 12 47 51 47zM384 669c38 0 50 -6 50 -47
c0 -45 -12 -52 -50 -52c-39 0 -51 7 -51 52c0 41 12 47 51 47z" />
    <glyph glyph-name="Ugravesmall" unicode="&#xf7f9;" horiz-adv-x="564" 
d="M381 568h-89l-139 129h108zM282 73c94 0 116 33 116 114v320h95v-313c0 -157 -56 -208 -211 -208c-154 0 -211 51 -211 208v313h94v-320c0 -81 23 -114 117 -114z" />
    <glyph glyph-name="Uhungarumlautsmall" horiz-adv-x="564" 
d="M282 73c94 0 116 33 116 114v320h95v-313c0 -157 -56 -208 -211 -208c-154 0 -211 51 -211 208v313h94v-320c0 -81 23 -114 117 -114zM229 697h92l-111 -129h-69zM395 697h92l-110 -129h-70z" />
    <glyph glyph-name="Umacronsmall" horiz-adv-x="564" 
d="M282 73c94 0 116 33 116 114v320h95v-313c0 -157 -56 -208 -211 -208c-154 0 -211 51 -211 208v313h94v-320c0 -81 23 -114 117 -114zM153 581v74h265v-74h-265z" />
    <glyph glyph-name="Uogoneksmall" horiz-adv-x="564" 
d="M282 73c94 0 116 33 116 114v320h95v-313c0 -128 -37 -186 -135 -202c-47 -33 -58 -56 -58 -90c0 -29 13 -43 65 -43c33 0 67 13 87 29l32 -56c-32 -24 -86 -35 -128 -35c-101 0 -130 30 -130 89c0 38 21 74 64 100h-8c-154 0 -211 51 -211 208v313h94v-320
c0 -81 23 -114 117 -114z" />
    <glyph glyph-name="Uringsmall" horiz-adv-x="564" 
d="M283 739c75 0 114 -28 114 -96c0 -67 -39 -96 -114 -96s-114 29 -114 96c0 68 31 96 114 96zM283 689c-42 0 -54 -16 -54 -47c0 -30 12 -48 54 -48c43 0 55 18 55 48c0 31 -12 47 -55 47zM282 73c94 0 116 33 116 114v320h95v-313c0 -157 -56 -208 -211 -208
c-154 0 -211 51 -211 208v313h94v-320c0 -81 23 -114 117 -114z" />
    <glyph glyph-name="Utildesmall" horiz-adv-x="564" 
d="M407 695l52 -41c-21 -56 -55 -92 -112 -92c-56 0 -91 60 -139 60c-21 0 -39 -15 -56 -56l-46 45c29 51 59 81 106 81c63 0 91 -59 138 -59c25 0 40 15 57 62zM282 73c94 0 116 33 116 114v320h95v-313c0 -157 -56 -208 -211 -208c-154 0 -211 51 -211 208v313h94v-320
c0 -81 23 -114 117 -114z" />
    <glyph glyph-name="Wcircumflexsmall" horiz-adv-x="821" 
d="M413 386c-29 -122 -76 -278 -114 -386h-123c-47 173 -104 355 -163 507h103c45 -117 92 -272 127 -412c39 112 99 317 120 412h102c37 -109 84 -291 112 -412c50 137 97 275 129 412h100c-46 -167 -106 -346 -173 -507h-123c-25 121 -69 299 -97 386zM486 568l-76 81
l-74 -81h-95l122 129h97l126 -129h-100z" />
    <glyph glyph-name="Yacutesmall" unicode="&#xf7fd;" horiz-adv-x="480" 
d="M257 568h-90l121 129h107zM245 311c47 56 102 134 143 196h108c-63 -92 -138 -191 -207 -274v-233h-94v233c-63 89 -141 193 -211 274h113c50 -59 101 -129 148 -196z" />
    <glyph glyph-name="Ycircumflexsmall" horiz-adv-x="480" 
d="M245 311c47 56 102 134 143 196h108c-63 -92 -138 -191 -207 -274v-233h-94v233c-63 89 -141 193 -211 274h113c50 -59 101 -129 148 -196zM321 568l-76 81l-74 -81h-95l122 129h97l126 -129h-100z" />
    <glyph glyph-name="Ydieresissmall" unicode="&#xf7ff;" horiz-adv-x="480" 
d="M245 311c47 56 102 134 143 196h108c-63 -92 -138 -191 -207 -274v-233h-94v233c-63 89 -141 193 -211 274h113c50 -59 101 -129 148 -196zM145 669c38 0 50 -6 50 -47c0 -45 -12 -52 -50 -52c-39 0 -51 7 -51 52c0 41 12 47 51 47zM346 669c38 0 50 -6 50 -47
c0 -45 -12 -52 -50 -52c-39 0 -51 7 -51 52c0 41 12 47 51 47z" />
    <glyph glyph-name="Zacutesmall" horiz-adv-x="496" 
d="M27 0v26c108 134 233 305 290 397h-274v84h420v-25c-80 -126 -216 -315 -285 -398h282v-84h-433zM257 568h-90l121 129h107z" />
    <glyph glyph-name="Zcaronsmall" unicode="&#xf6ff;" horiz-adv-x="496" 
d="M27 0v26c108 134 233 305 290 397h-274v84h420v-25c-80 -126 -216 -315 -285 -398h282v-84h-433zM179 697l76 -81l74 81h95l-122 -129h-97l-126 129h100z" />
    <glyph glyph-name="Zdotaccentsmall" horiz-adv-x="496" 
d="M27 0v26c108 134 233 305 290 397h-274v84h420v-25c-80 -126 -216 -315 -285 -398h282v-84h-433zM253 669c38 0 50 -6 50 -47c0 -45 -12 -52 -50 -52s-51 7 -51 52c0 41 13 47 51 47z" />
    <glyph glyph-name="AEacutesmall" horiz-adv-x="784" 
d="M482 568h-90l121 129h107zM680 306v-76h-227v-150h289v-80h-384v138h-231c-32 -48 -63 -95 -90 -138h-107c102 160 238 346 361 507h451v-81h-289v-120h227zM336 431c-52 -70 -108 -146 -160 -221h182v221h-22z" />
    <glyph glyph-name="Oslashacuteismall" 
d="M284 568h-90l121 129h107zM461 507h96l-63 -73c24 -41 35 -98 35 -178c0 -208 -76 -270 -237 -270c-63 0 -113 11 -150 34l-18 -20h-94l62 73c-24 41 -35 101 -35 183c0 207 77 265 235 265c64 0 114 -9 151 -34zM292 440c-99 0 -135 -26 -135 -174c0 -45 3 -79 10 -107
l218 260c-21 16 -51 21 -93 21zM292 67c104 0 136 36 136 185c0 38 -3 69 -9 95l-218 -258c20 -17 50 -22 91 -22z" />
    <glyph glyph-name="Germandblssmall" horiz-adv-x="993" 
d="M926 494l-25 -79c-43 16 -100 25 -150 25c-69 0 -106 -11 -106 -74c0 -43 28 -60 115 -67c127 -11 182 -51 182 -149c0 -125 -76 -164 -206 -164c-52 0 -133 11 -182 27l23 79c36 -14 105 -26 156 -26c77 0 112 17 112 78c0 45 -23 66 -116 74c-117 9 -181 39 -181 140
c0 125 81 163 209 163c51 0 115 -10 169 -27zM430 494l-25 -79c-40 14 -96 26 -146 26c-72 0 -110 -12 -110 -75c0 -43 28 -60 115 -67c127 -11 182 -51 182 -149c0 -126 -74 -164 -206 -164c-52 0 -133 11 -182 27l23 79c36 -14 105 -26 156 -26c77 0 112 17 112 78
c0 45 -23 66 -116 74c-117 9 -181 39 -181 140c0 126 79 163 209 163c51 0 115 -10 169 -27z" />
    <glyph glyph-name="zerosmall" horiz-adv-x="553" 
d="M276 -14c-140 0 -216 62 -216 270c0 207 77 265 216 265c140 0 217 -58 217 -265c0 -208 -76 -270 -217 -270zM276 441c-83 0 -116 -28 -116 -187c0 -152 33 -188 116 -188c84 0 117 36 117 188c0 159 -33 187 -117 187z" />
    <glyph glyph-name="onesmall" horiz-adv-x="553" 
d="M372 0h-95v393l-156 -76l-30 79l281 125v-521z" />
    <glyph glyph-name="twosmall" horiz-adv-x="553" 
d="M207 80h272v-80h-414v73c278 176 302 204 302 276c0 55 -28 82 -122 82c-42 0 -119 -9 -148 -22l-24 91c48 11 124 21 181 21c162 0 220 -49 220 -160c0 -96 -48 -161 -267 -281z" />
    <glyph glyph-name="threesmall" horiz-adv-x="553" 
d="M347 270c106 -5 136 -61 136 -134c0 -115 -76 -150 -240 -150c-65 0 -128 8 -176 20l22 85c39 -14 87 -22 141 -22c124 0 153 36 153 84c0 60 -38 81 -132 81h-76v75h76c91 0 123 21 123 65c0 48 -30 64 -142 64c-52 0 -103 -8 -139 -21l-21 84c46 12 114 20 174 20
c166 0 226 -38 226 -127c0 -66 -25 -116 -125 -124z" />
    <glyph glyph-name="foursmall" horiz-adv-x="553" 
d="M331 208v229c-61 -77 -136 -178 -169 -229h169zM288 507h138v-299h95v-79h-95v-129h-95v129h-294v31c57 90 164 238 251 347z" />
    <glyph glyph-name="fivesmall" horiz-adv-x="553" 
d="M189 425v-118c24 2 56 4 86 4c153 0 213 -47 213 -160c0 -127 -80 -165 -241 -165c-56 0 -137 6 -185 20l21 80c40 -12 111 -19 160 -19c105 0 147 27 147 81c0 66 -36 90 -136 90c-48 0 -121 -5 -160 -12v281h374v-82h-279z" />
    <glyph glyph-name="sixsmall" horiz-adv-x="553" 
d="M515 148c0 -125 -70 -162 -222 -162c-159 0 -231 52 -231 269c0 204 95 266 269 266c58 0 114 -9 166 -23l-23 -81c-38 12 -91 22 -142 22c-121 0 -170 -23 -175 -140c45 7 106 12 145 12c155 0 213 -43 213 -163zM417 150c0 71 -27 90 -128 90c-47 0 -96 -4 -132 -11
c2 -143 49 -166 134 -166c102 0 126 24 126 87z" />
    <glyph glyph-name="sevensmall" horiz-adv-x="553" 
d="M519 507v-22c-99 -137 -201 -333 -265 -485h-110c71 154 167 321 238 423h-327v84h464z" />
    <glyph glyph-name="eightsmall" horiz-adv-x="553" 
d="M276 65c108 0 137 21 137 85c0 62 -43 83 -137 83c-93 0 -136 -21 -136 -83c0 -64 29 -85 136 -85zM276 -14c-164 0 -234 35 -234 150c0 73 31 129 136 134c-99 8 -122 58 -122 124c0 89 54 127 220 127s220 -38 220 -127c0 -66 -23 -116 -122 -124
c105 -5 136 -61 136 -134c0 -115 -70 -150 -234 -150zM276 310c86 0 126 15 126 68c0 49 -29 66 -126 66c-96 0 -125 -17 -125 -66c0 -53 39 -68 125 -68z" />
    <glyph glyph-name="ninesmall" horiz-adv-x="553" 
d="M255 189c-154 0 -209 43 -209 162c0 124 69 171 227 171c172 0 234 -55 234 -199c0 -142 -115 -235 -230 -323h-133c101 72 208 162 229 199c-42 -5 -82 -10 -118 -10zM407 325c0 90 -36 120 -132 120c-108 0 -130 -31 -130 -95c0 -70 20 -84 126 -84c42 0 88 5 123 10
c8 17 12 30 13 49z" />
    <glyph glyph-name="dollarsmall" horiz-adv-x="538" 
d="M236 617h64v-105c46 0 106 -8 149 -20l-22 -76c-27 10 -84 17 -127 19v-141c112 -15 165 -57 165 -148c0 -96 -66 -142 -165 -153v-109h-64v109c-48 0 -113 6 -157 19l25 78c33 -10 91 -18 132 -19v150c-108 11 -163 48 -163 139c0 97 64 141 163 151v106zM162 364
c0 -37 19 -55 74 -63v133c-46 -5 -74 -26 -74 -70zM377 144c0 37 -17 59 -77 69v-141c46 5 77 27 77 72z" />
    <glyph glyph-name="centsmall" horiz-adv-x="445" 
d="M204 521h61v-75c30 -2 71 -10 94 -18l-21 -68c-24 11 -49 14 -73 16v-237c22 2 50 8 73 17l21 -67c-26 -11 -64 -18 -94 -20v-83h-61v85c-94 11 -150 59 -150 188c0 127 57 175 150 185v77zM135 258c0 -79 24 -108 69 -116v231c-45 -6 -69 -33 -69 -115z" />
    <glyph glyph-name="sterlingsmall" horiz-adv-x="513" 
d="M40 211v74h53v65c0 112 70 171 223 171c55 0 120 -8 166 -22l-22 -79c-31 11 -95 19 -144 19c-96 0 -128 -32 -128 -98v-56h152v-74h-152v-129h279v-82h-374v211h-53z" />
    <glyph glyph-name="yensmall" horiz-adv-x="480" 
d="M54 222v55h111c-56 78 -120 160 -180 230h111c51 -59 101 -129 149 -196c47 56 103 134 144 196h106c-54 -77 -114 -157 -173 -230h102v-55h-135v-65h135v-54h-135v-103h-94v103h-141v54h141v65h-141z" />
    <glyph glyph-name="Eurosmall" horiz-adv-x="474" 
d="M425 89l25 -76c-39 -17 -102 -27 -148 -27c-153 0 -245 62 -245 270c0 207 93 265 245 265c46 0 110 -10 148 -24l-25 -77c-33 15 -76 22 -118 22c-73 0 -118 -16 -138 -82h208v-63h-219c-1 -13 -1 -29 -1 -43s0 -26 1 -37h219v-63h-208c18 -69 64 -88 138 -88
c43 0 85 8 118 23z" />
    <glyph glyph-name="numbersignsmall" horiz-adv-x="578" 
d="M41 320l5 71h106l8 116h84l-7 -116h112l7 116h85l-8 -116h114l-5 -71h-113l-8 -121h116l-5 -69h-115l-9 -130h-84l8 130h-112l-8 -130h-85l9 130h-105l5 69h104l8 121h-107zM232 320l-8 -121h112l8 121h-112z" />
    <glyph glyph-name="slashsmall" horiz-adv-x="427" 
d="M323 507h108l-332 -507h-106z" />
    <glyph glyph-name="barsmall" horiz-adv-x="341" 
d="M120 640h101v-775h-101v775z" />
    <glyph glyph-name="backslashsmall" horiz-adv-x="427" 
d="M-6 507h107l330 -507h-106z" />
    <glyph glyph-name="parenleftsmall" horiz-adv-x="321" 
d="M68 250c0 249 91 363 202 406l44 -73c-78 -26 -147 -105 -147 -333c0 -227 69 -306 147 -333l-44 -72c-111 43 -202 156 -202 405z" />
    <glyph glyph-name="parenrightsmall" horiz-adv-x="321" 
d="M253 250c0 -250 -92 -363 -203 -406l-44 72c78 27 148 105 148 334c0 227 -70 306 -148 333l44 72c111 -43 203 -156 203 -405z" />
    <glyph glyph-name="bracketleftsmall" horiz-adv-x="351" 
d="M88 647h235v-83h-136v-626h136v-82h-235v791z" />
    <glyph glyph-name="bracketrightsmall" horiz-adv-x="351" 
d="M28 647h235v-791h-235v82h136v626h-136v83z" />
    <glyph glyph-name="braceleftsmall" horiz-adv-x="338" 
d="M32 211v76c56 0 103 25 103 152c0 135 67 197 149 216l37 -70c-62 -16 -98 -45 -98 -168c0 -128 -54 -161 -88 -168c34 -7 88 -40 88 -169c0 -122 35 -150 98 -167l-37 -70c-82 19 -149 82 -149 217c0 126 -47 151 -103 151z" />
    <glyph glyph-name="bracerightsmall" horiz-adv-x="338" 
d="M306 286v-75c-56 0 -102 -26 -102 -152c0 -135 -67 -197 -149 -216l-38 70c62 16 98 44 98 167c0 129 55 161 89 169c-34 7 -89 40 -89 169c0 122 -35 150 -98 167l38 69c82 -19 149 -81 149 -216c0 -126 46 -152 102 -152z" />
    <glyph glyph-name="atsmall" horiz-adv-x="729" 
d="M333 457c-146 0 -193 -30 -193 -201c0 -165 51 -202 224 -202c172 0 226 47 226 225c0 71 -7 117 -19 152h83c12 -35 17 -96 17 -154c0 -228 -97 -293 -307 -293c-211 0 -307 56 -307 273c0 215 97 269 271 269c133 0 190 -25 190 -202c0 -166 -41 -194 -161 -194
c-114 0 -155 22 -155 125c0 104 44 126 144 126c32 0 71 -2 95 -6c-4 63 -32 82 -108 82zM364 319c-61 0 -79 -8 -79 -60s18 -64 78 -64c58 0 78 17 78 87v32c-23 2 -57 5 -77 5z" />
    <glyph glyph-name="percentsmall" horiz-adv-x="773" 
d="M522 507h90l-364 -507h-89zM173 521c101 0 145 -33 145 -162c0 -132 -44 -169 -145 -169s-145 37 -145 169c0 129 44 162 145 162zM173 248c57 0 69 26 69 109c0 87 -12 107 -69 107c-54 0 -69 -20 -69 -107c0 -83 15 -109 69 -109zM600 318c101 0 145 -34 145 -163
c0 -131 -44 -169 -145 -169s-145 38 -145 169c0 129 44 163 145 163zM600 44c57 0 69 27 69 109c0 87 -12 107 -69 107c-54 0 -69 -20 -69 -107c0 -82 15 -109 69 -109z" />
    <glyph glyph-name="sectionsmall" horiz-adv-x="468" 
d="M399 502l-21 -64c-27 9 -81 17 -123 17c-84 0 -116 -19 -116 -52c0 -30 21 -43 106 -49c113 -8 174 -37 174 -112c0 -24 -11 -50 -29 -70c18 -16 25 -39 25 -65c0 -87 -77 -121 -203 -121c-47 0 -105 8 -144 18l21 65c27 -10 81 -18 123 -18c83 0 116 19 116 53
c0 29 -21 43 -106 49c-113 8 -174 37 -174 112c0 25 10 50 27 71c-16 16 -23 37 -23 64c0 87 77 121 203 121c45 0 102 -7 144 -19zM141 305c-5 -10 -10 -21 -10 -37c0 -30 32 -46 107 -51c34 -3 65 -7 89 -14c4 9 10 22 10 34c0 31 -32 46 -109 53c-35 3 -64 7 -87 15z" />
    <glyph glyph-name="daggersmall" horiz-adv-x="433" 
d="M30 430v77h146v148h81v-148h146v-77h-146v-241h-81v241h-146z" />
    <glyph glyph-name="summationsmall" horiz-adv-x="496" 
d="M462 423h-273c25 -41 71 -107 116 -168c-53 -74 -93 -131 -127 -171h282v-84h-433v26c60 74 115 151 169 229c-52 74 -114 164 -154 227v25h420v-84z" />
    <glyph glyph-name="questionsmall" unicode="&#xf73f;" horiz-adv-x="474" 
d="M263 187h-102c97 68 140 128 140 188c0 42 -15 67 -101 67c-40 0 -93 -6 -127 -17l-18 81c37 9 106 17 150 17c147 0 203 -41 203 -131c0 -71 -40 -136 -145 -205zM220 123c50 0 66 -8 66 -60c0 -56 -16 -65 -66 -65c-48 0 -65 9 -65 65c0 52 17 60 65 60z" />
    <glyph glyph-name="exclamsmall" unicode="&#xf721;" horiz-adv-x="329" 
d="M106 507h116l-23 -317h-71zM164 122c50 0 66 -8 66 -60c0 -56 -16 -66 -66 -66c-48 0 -65 10 -65 66c0 52 17 60 65 60z" />
    <glyph glyph-name="questiondownsmall" unicode="&#xf7bf;" horiz-adv-x="474" 
d="M200 332h101c-97 -68 -139 -128 -139 -188c0 -42 15 -67 101 -67c40 0 93 6 127 17l18 -81c-38 -9 -102 -17 -150 -17c-147 0 -203 41 -203 131c0 71 40 136 145 205zM243 396c-51 0 -66 8 -66 60c0 56 15 65 66 65c48 0 64 -9 64 -65c0 -52 -16 -60 -64 -60z" />
    <glyph glyph-name="exclamdownsmall" unicode="&#xf7a1;" horiz-adv-x="329" 
d="M223 0h-116l23 318h70zM164 385c-50 0 -66 8 -66 60c0 56 16 66 66 66c48 0 65 -10 65 -66c0 -52 -17 -60 -65 -60z" />
    <glyph glyph-name="degreesmall" horiz-adv-x="346" 
d="M173 521c101 0 145 -33 145 -162c0 -132 -44 -169 -145 -169s-145 37 -145 169c0 129 44 162 145 162zM173 248c57 0 69 26 69 109c0 87 -12 107 -69 107c-54 0 -69 -20 -69 -107c0 -83 15 -109 69 -109z" />
    <glyph glyph-name="ampersandsmall" unicode="&#xf726;" horiz-adv-x="674" 
d="M662 0h-105c-18 29 -36 55 -53 78c-70 -55 -158 -92 -254 -92c-147 0 -217 35 -217 150c0 73 39 131 144 136c-99 8 -108 56 -108 122c0 89 50 127 216 127s214 -38 214 -127c0 -66 -30 -116 -130 -124c41 -5 88 -28 142 -82c30 36 49 75 59 111h101
c-16 -57 -52 -116 -101 -168c30 -36 60 -79 92 -131zM253 64c87 0 153 30 202 72c-58 66 -113 97 -177 97c-96 0 -145 -22 -145 -83c0 -65 31 -86 120 -86zM280 310c84 0 125 14 125 68c0 48 -23 66 -119 66s-121 -18 -121 -66c0 -54 31 -68 115 -68z" />
    <glyph glyph-name="ampersandsmall.2" horiz-adv-x="665" 
d="M197 271c-99 8 -125 50 -125 116c0 89 61 134 227 134c60 0 128 -8 174 -20l-21 -84c-40 14 -93 21 -152 21c-107 0 -129 -25 -129 -63c0 -51 37 -65 123 -65h354v-75h-130v-219c-88 -22 -151 -30 -216 -30c-164 0 -240 35 -240 150c0 73 30 130 135 135zM162 155
c0 -63 30 -86 147 -86c43 0 84 4 119 13v153h-133c-95 0 -133 -24 -133 -80z" />
    <glyph glyph-name="longs" unicode="&#x17f;" horiz-adv-x="246" 
d="M71 0v547c0 149 84 175 174 175c44 0 92 -8 127 -19l-22 -78c-25 8 -65 13 -94 13c-48 0 -91 -10 -91 -94v-544h-94z" />
    <glyph glyph-name="sp" horiz-adv-x="1074" 
d="M791 -14c-65 0 -104 18 -130 35v-213h-95v590c-99 26 -218 43 -307 43c-72 0 -110 -12 -110 -75c0 -43 28 -60 115 -67c127 -11 182 -51 182 -149c0 -126 -74 -164 -206 -164c-52 0 -133 11 -182 27l23 79c36 -14 105 -26 156 -26c77 0 112 17 112 78
c0 45 -23 66 -116 74c-117 9 -181 39 -181 140c0 126 79 163 209 163c97 0 216 -16 305 -39c55 24 146 39 214 39c162 0 236 -59 236 -266s-78 -269 -225 -269zM780 437c-42 0 -87 -6 -119 -18v-280c0 -46 47 -70 119 -70c103 0 137 38 137 183c0 156 -34 185 -137 185z" />
    <glyph glyph-name="st" horiz-adv-x="890" 
d="M585 170v253c-128 1 -276 18 -326 18c-73 0 -110 -9 -110 -75c0 -42 28 -59 115 -67c127 -11 182 -51 182 -148c0 -127 -74 -165 -206 -165c-52 0 -133 10 -182 27l23 80c36 -15 105 -27 157 -27c74 0 112 11 112 78c0 45 -24 66 -117 74c-117 10 -181 41 -181 140
c0 126 79 163 209 163c51 0 214 -14 324 -14v96l94 39v-135h178v-84h-178v-247c0 -74 21 -105 87 -105c34 0 64 5 90 14l19 -78c-33 -12 -83 -21 -125 -21c-114 0 -165 34 -165 184z" />
    <glyph glyph-name="ct" horiz-adv-x="857" 
d="M551 170v253c-90 0 -205 14 -245 14c-103 0 -149 -26 -149 -183c0 -149 46 -183 149 -183c42 0 84 8 118 23l24 -81c-39 -17 -99 -27 -146 -27c-153 0 -245 62 -245 270c0 207 93 265 245 265c48 0 159 -14 249 -14v96l95 39v-135h178v-84h-178v-247
c0 -74 21 -105 86 -105c35 0 65 5 91 14l18 -78c-32 -12 -82 -21 -125 -21c-114 0 -165 34 -165 184z" />
    <glyph glyph-name="scaronp" horiz-adv-x="1074" 
d="M791 -14c-65 0 -104 18 -130 35v-213h-95v590c-99 26 -218 43 -307 43c-72 0 -110 -12 -110 -75c0 -43 28 -60 115 -67c127 -11 182 -51 182 -149c0 -126 -74 -164 -206 -164c-52 0 -133 11 -182 27l23 79c36 -14 105 -26 156 -26c77 0 112 17 112 78
c0 45 -23 66 -116 74c-117 9 -181 39 -181 140c0 126 79 163 209 163c97 0 216 -16 305 -39c55 24 146 39 214 39c162 0 236 -59 236 -266s-78 -269 -225 -269zM780 437c-42 0 -87 -6 -119 -18v-280c0 -46 47 -70 119 -70c103 0 137 38 137 183c0 156 -34 185 -137 185z
M193 697l76 -81l74 81h95l-122 -129h-97l-126 129h100z" />
    <glyph glyph-name="scaront" horiz-adv-x="890" 
d="M585 170v253c-128 1 -276 18 -326 18c-73 0 -110 -9 -110 -75c0 -42 28 -59 115 -67c127 -11 182 -51 182 -148c0 -127 -74 -165 -206 -165c-52 0 -133 10 -182 27l23 80c36 -15 105 -27 157 -27c74 0 112 11 112 78c0 45 -24 66 -117 74c-117 10 -181 41 -181 140
c0 126 79 163 209 163c51 0 214 -14 324 -14v96l94 39v-135h178v-84h-178v-247c0 -74 21 -105 87 -105c34 0 64 5 90 14l19 -78c-33 -12 -83 -21 -125 -21c-114 0 -165 34 -165 184zM184 697l76 -81l74 81h95l-122 -129h-97l-126 129h100z" />
    <glyph glyph-name="ccaront" horiz-adv-x="857" 
d="M551 170v253c-90 0 -205 14 -245 14c-103 0 -149 -26 -149 -183c0 -149 46 -183 149 -183c42 0 84 8 118 23l24 -81c-39 -17 -99 -27 -146 -27c-153 0 -245 62 -245 270c0 207 93 265 245 265c48 0 159 -14 249 -14v96l95 39v-135h178v-84h-178v-247
c0 -74 21 -105 86 -105c35 0 65 5 91 14l18 -78c-32 -12 -82 -21 -125 -21c-114 0 -165 34 -165 184zM228 697l76 -81l74 81h95l-122 -129h-97l-126 129h100z" />
    <glyph glyph-name="onequarter" unicode="&#xbc;" horiz-adv-x="820" 
d="M526 697h96l-412 -697h-97zM712 425v-247h59v-73h-59v-105h-82v105h-228v31c59 99 134 206 198 289h112zM630 178v182c-50 -62 -93 -124 -127 -182h127zM234 726v-440h-84v327l-94 -43l-21 73z" />
    <glyph glyph-name="onehalf" unicode="&#xbd;" horiz-adv-x="820" 
d="M607 434c123 0 177 -36 177 -127c0 -63 -27 -112 -102 -140c-72 -26 -113 -42 -120 -95h223v-72h-322c12 138 60 182 152 217c58 21 82 47 82 86c0 40 -26 53 -94 53c-36 0 -88 -7 -110 -16l-14 76c36 10 85 18 128 18zM520 697h96l-412 -697h-97zM228 726v-440h-84v327
l-94 -43l-21 73z" />
    <glyph glyph-name="threequarters" unicode="&#xbe;" horiz-adv-x="820" 
d="M586 697h97l-413 -697h-96zM637 178v182c-50 -62 -93 -124 -127 -182h127zM719 425v-247h59v-73h-59v-105h-82v105h-228v31c59 98 134 206 198 289h112zM243 504c80 -4 102 -45 102 -110c0 -93 -60 -124 -177 -124c-44 0 -98 7 -136 18l13 68c31 -10 74 -16 115 -16
c73 0 95 13 95 65c0 51 -22 61 -95 61h-40v69h39c68 0 86 12 86 57c0 42 -15 52 -86 52c-51 0 -81 -6 -110 -16c-4 23 -8 46 -13 68c36 10 83 17 132 17c118 0 166 -32 166 -106c0 -59 -16 -97 -91 -103z" />
    <glyph glyph-name="acute" unicode="&#xb4;" horiz-adv-x="488" 
d="M187 568h-90l121 129h107z" />
    <glyph glyph-name="breve" unicode="&#x2d8;" horiz-adv-x="531" 
d="M96 697h70c0 -52 24 -63 73 -63c47 0 73 11 73 63h66c0 -91 -48 -132 -141 -132c-91 0 -141 41 -141 132z" />
    <glyph glyph-name="caron" unicode="&#x2c7;" horiz-adv-x="660" 
d="M273 697l76 -81l74 81h95l-122 -129h-97l-126 129h100z" />
    <glyph glyph-name="caron.alt" horiz-adv-x="334" 
d="M243 722h92l-56 -192h-57z" />
    <glyph glyph-name="cedilla" unicode="&#xb8;" horiz-adv-x="648" 
d="M329 0h42v-44c84 0 114 -17 114 -77c0 -63 -36 -82 -131 -82c-48 0 -77 5 -102 18l20 48c19 -9 48 -14 79 -14c37 0 50 5 50 30c0 27 -25 33 -108 28z" />
    <glyph glyph-name="circumflex" unicode="&#x2c6;" horiz-adv-x="670" 
d="M418 568l-76 81l-74 -81h-95l122 129h97l126 -129h-100z" />
    <glyph glyph-name="commaaccent" unicode="&#xf6c3;" horiz-adv-x="274" 
d="M239 -51l-82 -167h-72l48 167h106z" />
    <glyph glyph-name="dieresis" unicode="&#xa8;" horiz-adv-x="435" 
d="M115 669c38 0 50 -6 50 -47c0 -45 -12 -52 -50 -52c-39 0 -51 7 -51 52c0 41 12 47 51 47zM316 669c38 0 50 -6 50 -47c0 -45 -12 -52 -50 -52c-39 0 -51 7 -51 52c0 41 12 47 51 47z" />
    <glyph glyph-name="dotaccent" unicode="&#x2d9;" horiz-adv-x="435" 
d="M148 669c38 0 50 -6 50 -47c0 -45 -12 -52 -50 -52s-51 7 -51 52c0 41 13 47 51 47z" />
    <glyph glyph-name="grave" unicode="`" horiz-adv-x="488" 
d="M325 568h-89l-139 129h108z" />
    <glyph glyph-name="hungarumlaut" unicode="&#x2dd;" horiz-adv-x="590" 
d="M252 697h92l-111 -129h-69zM418 697h92l-110 -129h-70z" />
    <glyph glyph-name="macron" unicode="&#xaf;" horiz-adv-x="527" 
d="M129 581v74h265v-74h-265z" />
    <glyph glyph-name="macron" unicode="&#x2c9;" horiz-adv-x="527" 
d="M129 581v74h265v-74h-265z" />
    <glyph glyph-name="ogonek" unicode="&#x2db;" horiz-adv-x="648" 
d="M440 12h37c-74 -45 -90 -70 -90 -110c0 -29 13 -43 65 -43c33 0 67 13 87 29l32 -56c-32 -24 -86 -35 -128 -35c-101 0 -130 30 -130 89c0 53 41 102 127 126z" />
    <glyph glyph-name="ring" unicode="&#x2da;" horiz-adv-x="721" 
d="M360 739c75 0 114 -28 114 -96c0 -67 -39 -96 -114 -96s-114 29 -114 96c0 68 31 96 114 96zM360 689c-42 0 -54 -16 -54 -47c0 -30 12 -48 54 -48c43 0 55 18 55 48c0 31 -12 47 -55 47z" />
    <glyph glyph-name="tilde" unicode="&#x2dc;" horiz-adv-x="722" 
d="M444 695l52 -41c-21 -56 -55 -92 -112 -92c-56 0 -91 60 -139 60c-21 0 -39 -15 -56 -56l-46 45c29 51 59 81 106 81c63 0 91 -59 138 -59c25 0 40 15 57 62z" />
    <glyph glyph-name="Acute" unicode="&#xf6c9;" horiz-adv-x="378" 
d="M96 747l132 129h114l-158 -129h-88z" />
    <glyph glyph-name="Breve" horiz-adv-x="330" 
d="M119 871h70c0 -52 24 -63 73 -63c47 0 73 11 73 63h66c0 -91 -48 -132 -141 -132c-91 0 -141 41 -141 132z" />
    <glyph glyph-name="Caron" unicode="&#xf6ca;" horiz-adv-x="660" 
d="M352 792l76 84h94l-122 -129h-97l-126 129h97z" />
    <glyph glyph-name="Circumflex" horiz-adv-x="670" 
d="M346 831l-75 -84h-94l122 129h97l126 -129h-98z" />
    <glyph glyph-name="Dieresis" unicode="&#xf6cb;" horiz-adv-x="383" 
d="M147 855c38 0 50 -6 50 -47c0 -45 -12 -52 -50 -52c-39 0 -51 7 -51 52c0 41 12 47 51 47zM348 855c38 0 50 -6 50 -47c0 -45 -12 -52 -50 -52c-39 0 -51 7 -51 52c0 41 12 47 51 47z" />
    <glyph glyph-name="Dotaccent" horiz-adv-x="319" 
d="M151 857c38 0 50 -6 50 -47c0 -45 -12 -53 -50 -53c-39 0 -51 8 -51 53c0 41 12 47 51 47z" />
    <glyph glyph-name="Grave" unicode="&#xf6ce;" horiz-adv-x="378" 
d="M409 747h-97l-159 129h115z" />
    <glyph glyph-name="Hungarumlaut" unicode="&#xf6cf;" horiz-adv-x="625" 
d="M252 876h92l-111 -129h-69zM413 876h92l-110 -129h-70z" />
    <glyph glyph-name="Macron" unicode="&#xf6d0;" horiz-adv-x="333" 
d="M129 762v77h265v-77h-265z" />
    <glyph glyph-name="Ring" horiz-adv-x="721" 
d="M360 882c75 0 114 -29 114 -96c0 -68 -39 -96 -114 -96s-114 28 -114 96c0 67 31 96 114 96zM360 831c-42 0 -54 -16 -54 -47c0 -30 12 -48 54 -48c43 0 55 18 55 48c0 31 -12 47 -55 47z" />
    <glyph glyph-name="Tilde" horiz-adv-x="715" 
d="M528 873l51 -41c-20 -55 -60 -92 -115 -92s-97 61 -144 61c-20 0 -38 -15 -55 -55l-45 44c28 50 57 79 104 79c61 0 99 -57 146 -57c24 0 42 14 58 61z" />
    <glyph glyph-name="nbspace" unicode="&#xa0;" horiz-adv-x="276" 
 />
    <glyph glyph-name="arrowleft" unicode="&#x2190;" horiz-adv-x="739" 
d="M377 689l65 -69l-236 -205h516v-88h-516l236 -203l-64 -70l-361 318z" />
    <glyph glyph-name="arrowright" unicode="&#x2192;" horiz-adv-x="739" 
d="M533 415l-237 205l65 68l361 -316l-361 -318l-65 70l237 203h-516v88h516z" />
    <glyph glyph-name="arrowup" unicode="&#x2191;" horiz-adv-x="741" 
d="M687 363l-68 -65l-205 237v-516h-88v516l-204 -237l-70 64l319 361z" />
    <glyph glyph-name="arrowdown" unicode="&#x2193;" horiz-adv-x="741" 
d="M52 379l69 65l205 -237v516h88v-516l203 237l70 -64l-318 -361z" />
    <glyph glyph-name="arrowupleft" horiz-adv-x="709" 
d="M579 497l-312 22l365 -365l-62 -63l-365 365l23 -311l-95 -3l-30 480l478 -31z" />
    <glyph glyph-name="arrowupright" horiz-adv-x="708" 
d="M458 519l-313 -23l-2 94l478 32l-30 -480l-94 3l22 311l-364 -365l-62 63z" />
    <glyph glyph-name="arrowdownleft" horiz-adv-x="709" 
d="M267 194l312 22l2 -94l-478 -31l30 480l95 -4l-23 -311l365 365l62 -62z" />
    <glyph glyph-name="arrowdownright" horiz-adv-x="708" 
d="M145 216l313 -22l-365 364l62 63l364 -365l-22 311l94 4l30 -481l-478 32z" />
    <glyph glyph-name="afii10017" unicode="&#x410;" horiz-adv-x="675" 
d="M567 0c-23 58 -50 124 -75 194h-323c-22 -66 -43 -131 -63 -194h-105c73 220 167 476 258 697h165c75 -230 176 -508 257 -697h-114zM351 613h-28c-43 -107 -85 -219 -125 -332h264c-40 110 -78 226 -111 332z" />
    <glyph glyph-name="afii10018" unicode="&#x411;" horiz-adv-x="700" 
d="M443 85c61 0 82 46 82 118c0 77 -28 125 -86 125h-243v-243h247zM568 697v-87h-372v-199h253c140 0 186 -81 186 -209c0 -142 -65 -202 -177 -202h-364v697h474z" />
    <glyph glyph-name="afii10019" unicode="&#x412;" horiz-adv-x="700" 
d="M443 85c61 0 82 46 82 118c0 77 -28 125 -86 125h-243v-243h247zM435 411c58 0 76 45 76 102c0 63 -17 98 -76 98h-239v-200h239zM476 372c133 -6 159 -79 159 -178c0 -134 -65 -194 -177 -194h-364v697h355c139 0 169 -72 169 -166c0 -88 -17 -148 -142 -159z" />
    <glyph glyph-name="afii10020" unicode="&#x413;" horiz-adv-x="539" 
d="M196 0h-101v697h451v-87h-350v-610z" />
    <glyph glyph-name="afii10021" unicode="&#x414;" horiz-adv-x="783" 
d="M555 89v521h-242c-11 -174 -36 -359 -91 -521h333zM656 89h126l-20 -243h-89v154h-561v-154h-89c-8 81 -14 162 -21 243h106c66 169 102 370 112 608h436v-608z" />
    <glyph glyph-name="afii10022" unicode="&#x415;" horiz-adv-x="615" 
d="M95 697h491v-87h-390v-198h277v-86h-277v-239h390v-87h-491v697z" />
    <glyph glyph-name="afii10023" unicode="&#x401;" horiz-adv-x="615" 
d="M95 697h491v-87h-390v-198h277v-86h-277v-239h390v-87h-491v697zM234 855c38 0 50 -6 50 -47c0 -45 -12 -52 -50 -52c-39 0 -51 7 -51 52c0 41 12 47 51 47zM435 855c38 0 50 -6 50 -47c0 -45 -12 -52 -50 -52c-39 0 -51 7 -51 52c0 41 12 47 51 47z" />
    <glyph glyph-name="afii10024" unicode="&#x416;" horiz-adv-x="903" 
d="M115 0h-115c122 319 185 357 267 383c-35 29 -126 134 -254 314h121c102 -151 209 -277 266 -332v332h102v-332c57 54 164 181 267 332h121c-128 -180 -219 -285 -254 -314c82 -26 145 -64 267 -383h-115c-100 274 -164 328 -286 338v-338h-102v338
c-122 -11 -186 -64 -285 -338z" />
    <glyph glyph-name="afii10025" unicode="&#x417;" horiz-adv-x="639" 
d="M411 372c132 -6 162 -82 162 -182c0 -153 -94 -204 -286 -204c-72 0 -170 13 -231 27l21 86c51 -15 136 -23 197 -23c145 0 189 33 189 124c0 94 -44 127 -156 127h-107v85h105c107 0 144 32 144 111c0 73 -33 101 -175 101c-60 0 -145 -9 -191 -24l-22 87
c59 13 146 27 226 27c199 0 269 -55 269 -174c0 -88 -21 -157 -145 -168z" />
    <glyph glyph-name="afii10026" unicode="&#x418;" horiz-adv-x="752" 
d="M195 697v-574c121 191 237 385 339 574h123v-697h-100v548c-101 -184 -214 -377 -327 -548h-136v697h101z" />
    <glyph glyph-name="afii10027" unicode="&#x419;" horiz-adv-x="752" 
d="M195 697v-574c121 191 237 385 339 574h123v-697h-100v548c-101 -184 -214 -377 -327 -548h-136v697h101zM237 871h70c0 -52 24 -63 73 -63c47 0 73 11 73 63h66c0 -91 -48 -132 -141 -132c-91 0 -141 41 -141 132z" />
    <glyph glyph-name="afii10028" unicode="&#x41a;" horiz-adv-x="640" 
d="M640 0h-121c-113 277 -185 326 -323 337v-337h-101v697h101v-337c62 52 186 182 302 337h128c-142 -180 -243 -285 -282 -314c90 -26 161 -64 296 -383z" />
    <glyph glyph-name="afii10029" unicode="&#x41b;" horiz-adv-x="721" 
d="M526 610h-225c-18 -352 -96 -624 -247 -624l-20 97c105 0 160 253 171 614h422v-697h-101v610z" />
    <glyph glyph-name="afii10030" unicode="&#x41c;" horiz-adv-x="892" 
d="M450 212c62 161 137 331 212 485h136v-697h-100v568c-74 -161 -151 -341 -216 -498h-78c-64 159 -139 341 -211 498v-568h-98v697h144c74 -155 149 -325 211 -485z" />
    <glyph glyph-name="afii10031" unicode="&#x41d;" horiz-adv-x="725" 
d="M196 325v-325h-101v697h101v-279h334v279h101v-697h-101v325h-334z" />
    <glyph glyph-name="afii10032" unicode="&#x41e;" horiz-adv-x="764" 
d="M382 714c219 0 324 -77 324 -361c0 -287 -104 -367 -324 -367c-219 0 -324 80 -324 367c0 284 105 361 324 361zM382 77c166 0 216 48 216 274c0 234 -50 273 -216 273c-165 0 -214 -39 -214 -273c0 -226 49 -274 214 -274z" />
    <glyph glyph-name="afii10033" unicode="&#x41f;" horiz-adv-x="725" 
d="M196 610v-610h-101v697h536v-697h-101v610h-334z" />
    <glyph glyph-name="afii10034" unicode="&#x420;" horiz-adv-x="661" 
d="M196 330h216c69 0 103 51 103 135c0 94 -34 146 -99 146h-220v-281zM196 0h-102v697h337c151 0 196 -105 196 -233c0 -114 -53 -221 -192 -221h-239v-243z" />
    <glyph glyph-name="afii10035" unicode="&#x421;" horiz-adv-x="597" 
d="M58 355c0 285 104 359 323 359c63 0 144 -11 197 -26l-25 -91c-40 15 -109 24 -160 24c-164 0 -225 -32 -225 -267c0 -234 61 -274 225 -274c51 0 120 9 160 23l25 -91c-54 -16 -134 -26 -197 -26c-219 0 -323 85 -323 369z" />
    <glyph glyph-name="afii10036" unicode="&#x422;" horiz-adv-x="588" 
d="M346 610v-610h-103v610h-239v87h580v-87h-238z" />
    <glyph glyph-name="afii10037" unicode="&#x423;" horiz-adv-x="585" 
d="M300 283c69 138 143 296 183 414h112c-91 -232 -232 -514 -347 -697h-125c36 48 81 116 113 173c-43 130 -162 386 -246 524h119c63 -112 141 -275 191 -414z" />
    <glyph glyph-name="afii10038" unicode="&#x424;" horiz-adv-x="770" 
d="M325 697h102v-94c231 -9 294 -87 294 -253s-64 -245 -294 -254v-96h-102v96c-227 9 -287 89 -287 254s60 244 287 253v94zM619 349c0 118 -25 165 -192 169v-338c167 6 192 54 192 169zM139 349c0 -114 25 -162 186 -169v338c-161 -6 -186 -52 -186 -169z" />
    <glyph glyph-name="afii10039" unicode="&#x425;" horiz-adv-x="661" 
d="M139 697c60 -77 127 -164 198 -257c65 87 128 175 185 257h123c-76 -109 -160 -225 -246 -341c91 -123 182 -249 257 -356h-126c-61 86 -126 177 -194 270c-71 -94 -141 -185 -208 -270h-123c80 101 176 228 269 353c-90 120 -183 242 -264 344h129z" />
    <glyph glyph-name="afii10040" unicode="&#x426;" horiz-adv-x="757" 
d="M196 697v-608h334v608h101v-608h126l-20 -243h-89v154h-553v697h101z" />
    <glyph glyph-name="afii10041" unicode="&#x427;" horiz-adv-x="634" 
d="M266 197c-154 0 -254 39 -254 240v260h102v-249c0 -130 49 -156 166 -156c94 0 157 26 157 68v337h102v-697h-102v234c-27 -19 -97 -37 -171 -37z" />
    <glyph glyph-name="afii10042" unicode="&#x428;" horiz-adv-x="940" 
d="M419 697h102v-608h223v608h101v-697h-751v697h102v-608h223v608z" />
    <glyph glyph-name="afii10043" unicode="&#x429;" horiz-adv-x="971" 
d="M419 697h102v-608h223v608h101v-608h126l-21 -243h-88v154h-768v697h102v-608h223v608z" />
    <glyph glyph-name="afii10044" unicode="&#x42a;" horiz-adv-x="700" 
d="M16 697h206v-271h253c143 0 186 -92 186 -216c0 -137 -59 -210 -177 -210h-364v610h-104v87zM222 85h243c63 0 86 48 86 126c0 80 -28 130 -90 130h-239v-256z" />
    <glyph glyph-name="afii10045" unicode="&#x42b;" horiz-adv-x="902" 
d="M196 85h243c63 0 86 48 86 126c0 80 -28 130 -90 130h-239v-256zM94 697h102v-271h253c143 0 186 -92 186 -216c0 -135 -59 -210 -177 -210h-364v697zM705 697h102v-697h-102v697z" />
    <glyph glyph-name="afii10046" unicode="&#x42c;" horiz-adv-x="674" 
d="M196 85h243c63 0 86 48 86 126c0 80 -28 130 -90 130h-239v-256zM94 697h102v-271h253c143 0 186 -92 186 -216c0 -135 -59 -210 -177 -210h-364v697z" />
    <glyph glyph-name="afii10047" unicode="&#x42d;" horiz-adv-x="613" 
d="M443 327h-322v85h321c-11 182 -77 209 -225 209c-51 0 -123 -9 -162 -24l-26 90c54 16 137 27 200 27c218 0 325 -74 325 -359c0 -284 -107 -369 -325 -369c-63 0 -146 11 -200 26l26 91c39 -14 111 -24 162 -24c156 0 221 39 226 248z" />
    <glyph glyph-name="afii10048" unicode="&#x42e;" horiz-adv-x="944" 
d="M628 714c170 0 258 -74 258 -356c0 -286 -87 -372 -258 -372c-163 0 -253 79 -259 339h-173v-325h-101v697h101v-279h174c12 232 101 296 258 296zM627 77c115 0 154 54 154 281c0 234 -39 269 -154 269c-113 0 -154 -35 -154 -269c0 -227 41 -281 154 -281z" />
    <glyph glyph-name="afii10049" unicode="&#x42f;" horiz-adv-x="691" 
d="M259 697h337v-697h-102v284h-122c-86 0 -145 -37 -223 -284h-119c97 254 142 295 225 310c-146 2 -192 85 -192 184c0 110 45 203 196 203zM494 611h-210c-68 0 -108 -35 -108 -125c0 -82 43 -116 112 -116h206v241z" />
    <glyph glyph-name="afii10050" unicode="&#x490;" horiz-adv-x="539" 
d="M94 697h353l28 171h71v-258h-350v-610h-102v697z" />
    <glyph glyph-name="afii10051" unicode="&#x402;" horiz-adv-x="740" 
d="M512 -176l-60 69c63 29 130 75 130 317c0 179 -33 204 -118 204c-59 0 -116 -19 -118 -55v-359h-103v610h-239v87h580v-87h-238v-147c28 19 85 38 143 38c131 0 194 -47 194 -289c0 -263 -96 -352 -171 -388z" />
    <glyph glyph-name="afii10052" unicode="&#x403;" horiz-adv-x="548" 
d="M196 0h-101v697h451v-87h-350v-610zM233 747l132 129h114l-158 -129h-88z" />
    <glyph glyph-name="afii10053" unicode="&#x404;" horiz-adv-x="613" 
d="M491 327h-322c5 -209 70 -248 226 -248c51 0 123 10 162 24l26 -91c-54 -15 -137 -26 -200 -26c-218 0 -325 85 -325 369c0 285 107 359 325 359c63 0 146 -11 200 -27l-26 -90c-39 15 -111 24 -162 24c-148 0 -214 -27 -225 -209h321v-85z" />
    <glyph glyph-name="afii10054" unicode="&#x405;" horiz-adv-x="623" 
d="M345 714c68 0 148 -12 202 -29l-24 -89c-36 14 -114 25 -178 25c-117 0 -180 -26 -180 -114c0 -61 33 -93 165 -104c164 -15 237 -75 237 -205c0 -156 -106 -212 -291 -212c-70 0 -153 12 -208 30l25 88c43 -14 119 -25 181 -25c117 0 185 25 185 114
c0 61 -32 105 -168 117c-161 13 -235 60 -235 188c0 157 106 216 289 216z" />
    <glyph glyph-name="afii10055" unicode="&#x406;" horiz-adv-x="290" 
d="M95 697h101v-697h-101v697z" />
    <glyph glyph-name="afii10056" unicode="&#x407;" horiz-adv-x="290" 
d="M95 697h101v-697h-101v697zM45 855c38 0 50 -6 50 -47c0 -45 -12 -52 -50 -52c-39 0 -51 7 -51 52c0 41 12 47 51 47zM246 855c38 0 50 -6 50 -47c0 -45 -12 -52 -50 -52c-39 0 -51 7 -51 52c0 41 12 47 51 47z" />
    <glyph glyph-name="afii10057" unicode="&#x408;" horiz-adv-x="451" 
d="M357 697v-505c0 -169 -99 -206 -200 -206c-51 0 -107 13 -147 29l25 92c30 -14 78 -24 115 -24c52 0 104 20 104 118v496h103z" />
    <glyph glyph-name="afii10058" unicode="&#x409;" horiz-adv-x="1045" 
d="M597 85h213c63 0 86 48 86 126c0 75 -29 131 -90 131h-209v-257zM205 697h392v-272h223c143 0 186 -91 186 -215c0 -135 -59 -210 -177 -210h-334v610h-194c-19 -353 -96 -624 -248 -624l-19 97c104 0 159 253 171 614z" />
    <glyph glyph-name="afii10059" unicode="&#x40a;" horiz-adv-x="1049" 
d="M500 697h101v-274h223c143 0 186 -91 186 -214c0 -137 -59 -209 -177 -209h-333v338h-304v-338h-102v697h102v-274h304v274zM601 85h213c63 0 86 47 86 124c0 80 -28 129 -90 129h-209v-253z" />
    <glyph glyph-name="afii10060" unicode="&#x40b;" horiz-adv-x="747" 
d="M489 501c128 0 188 -45 188 -232v-269h-95v257c0 133 -34 157 -118 157c-59 0 -115 -21 -118 -55v-359h-103v610h-239v87h580v-87h-238v-147c28 19 85 38 143 38z" />
    <glyph glyph-name="afii10061" unicode="&#x40c;" horiz-adv-x="640" 
d="M640 0h-121c-113 277 -185 326 -323 337v-337h-101v697h101v-337c62 52 186 182 302 337h128c-142 -180 -243 -285 -282 -314c90 -26 161 -64 296 -383zM273 747l132 129h114l-158 -129h-88z" />
    <glyph glyph-name="afii10062" unicode="&#x40e;" horiz-adv-x="542" 
d="M235 172c-53 151 -165 392 -245 525h119c62 -112 141 -275 191 -414c68 137 142 296 183 414h112c-91 -232 -232 -514 -347 -697h-126c36 47 81 116 113 172zM165 871h70c0 -52 24 -63 73 -63c47 0 73 11 73 63h66c0 -91 -48 -132 -141 -132c-91 0 -141 41 -141 132z" />
    <glyph glyph-name="afii10065" unicode="&#x430;" horiz-adv-x="551" 
d="M480 324v-298c-60 -25 -149 -40 -217 -40c-153 0 -210 38 -210 170c0 144 84 167 200 167c48 0 87 -5 135 -15c0 106 -27 129 -138 129c-52 0 -109 -7 -150 -23l-20 82c45 12 114 25 185 25c149 0 215 -44 215 -197zM388 83v155c-32 8 -75 11 -118 11
c-86 0 -115 -9 -115 -88c0 -85 23 -98 114 -98c42 0 85 8 119 20z" />
    <glyph glyph-name="afii10066" unicode="&#x431;" horiz-adv-x="569" 
d="M157 243c0 -129 40 -175 120 -175c101 0 135 25 135 176c0 138 -33 172 -123 172c-108 0 -132 -40 -132 -173zM155 435c28 40 75 65 148 65c136 0 209 -57 209 -257c0 -199 -75 -257 -237 -257c-141 0 -217 66 -217 301c0 329 69 384 240 399c67 6 130 15 185 39v-86
c-46 -21 -107 -31 -182 -38c-115 -10 -132 -57 -146 -166z" />
    <glyph glyph-name="afii10067" unicode="&#x432;" horiz-adv-x="565" 
d="M343 78c49 0 66 21 66 71c0 56 -23 82 -69 82h-173v-153h176zM336 305c47 0 62 25 62 64c0 45 -15 60 -62 60h-169v-124h169zM389 271c96 -3 121 -58 121 -130c0 -98 -53 -141 -144 -141h-294v507h287c113 0 138 -52 138 -121c0 -64 -16 -108 -108 -115z" />
    <glyph glyph-name="afii10068" unicode="&#x433;" horiz-adv-x="412" 
d="M72 507h338v-84h-243v-423h-95v507z" />
    <glyph glyph-name="afii10069" unicode="&#x434;" horiz-adv-x="615" 
d="M6 84h87c38 126 68 271 76 423h343v-423h95l-23 -218h-74v134h-407v-134h-75zM418 423h-162c-9 -104 -34 -230 -64 -339h226v339z" />
    <glyph glyph-name="afii10070" unicode="&#x435;" horiz-adv-x="549" 
d="M289 521c147 0 215 -52 215 -264v-23h-346c1 -137 48 -165 151 -165c36 0 102 10 144 24l17 -79c-51 -16 -125 -28 -172 -28c-150 0 -241 62 -241 270c0 201 83 265 232 265zM291 442c-92 0 -124 -30 -132 -131h247c-5 108 -33 131 -115 131z" />
    <glyph glyph-name="afii10071" unicode="&#x451;" horiz-adv-x="549" 
d="M289 521c147 0 215 -52 215 -264v-23h-346c1 -137 48 -165 151 -165c36 0 102 10 144 24l17 -79c-51 -16 -125 -28 -172 -28c-150 0 -241 62 -241 270c0 201 83 265 232 265zM291 442c-92 0 -124 -30 -132 -131h247c-5 108 -33 131 -115 131zM189 669c38 0 50 -6 50 -47
c0 -45 -12 -52 -50 -52c-39 0 -51 7 -51 52c0 41 12 47 51 47zM390 669c38 0 50 -6 50 -47c0 -45 -12 -52 -50 -52c-39 0 -51 7 -51 52c0 41 12 47 51 47z" />
    <glyph glyph-name="afii10072" unicode="&#x436;" horiz-adv-x="738" 
d="M110 0h-109c111 228 160 253 209 274c-27 21 -97 102 -196 233h111c83 -109 157 -199 197 -241v241h94v-241c39 42 114 132 196 241h111c-98 -131 -169 -212 -196 -233c49 -21 99 -46 210 -274h-109c-90 185 -154 228 -212 241v-241h-94v241c-59 -13 -123 -56 -212 -241z
" />
    <glyph glyph-name="afii10073" unicode="&#x437;" horiz-adv-x="508" 
d="M316 270c105 -5 136 -61 136 -134c0 -115 -76 -150 -240 -150c-65 0 -129 8 -177 20l23 85c38 -14 87 -22 141 -22c124 0 153 36 153 84c0 60 -39 81 -132 81h-77v75h77c89 0 120 21 120 65c0 48 -30 64 -142 64c-52 0 -100 -8 -136 -21l-22 84c47 12 111 20 172 20
c166 0 226 -38 226 -127c0 -66 -23 -116 -122 -124z" />
    <glyph glyph-name="afii10074" unicode="&#x438;" horiz-adv-x="574" 
d="M407 0v354c-70 -123 -158 -248 -240 -354h-95v507h95v-368c82 106 166 240 240 368h94v-507h-94z" />
    <glyph glyph-name="afii10075" unicode="&#x439;" horiz-adv-x="574" 
d="M407 0v354c-70 -123 -158 -248 -240 -354h-95v507h95v-368c82 106 166 240 240 368h94v-507h-94zM147 697h70c0 -52 24 -63 73 -63c47 0 73 11 73 63h66c0 -91 -48 -132 -141 -132c-91 0 -141 41 -141 132z" />
    <glyph glyph-name="afii10076" unicode="&#x43a;" horiz-adv-x="515" 
d="M513 0h-112c-99 190 -168 229 -234 242v-242h-94v507h94v-244c42 40 124 133 217 244h115c-107 -131 -179 -210 -209 -231c54 -21 102 -48 223 -276z" />
    <glyph glyph-name="afii10077" unicode="&#x43b;" horiz-adv-x="548" 
d="M381 423h-150c-10 -204 -57 -437 -199 -437l-15 96c68 0 118 165 127 425h332v-507h-95v423z" />
    <glyph glyph-name="afii10078" unicode="&#x43c;" horiz-adv-x="719" 
d="M364 168c45 118 91 228 143 339h139v-507h-93v409c-55 -117 -115 -262 -156 -376h-78c-43 116 -101 262 -152 376v-409h-94v507h144c53 -112 101 -223 147 -339z" />
    <glyph glyph-name="afii10079" unicode="&#x43d;" horiz-adv-x="571" 
d="M403 231h-236v-231h-95v507h95v-195h236v195h95v-507h-95v231z" />
    <glyph glyph-name="afii10080" unicode="&#x43e;" 
d="M293 -14c-160 0 -236 62 -236 270c0 207 77 265 236 265c160 0 236 -58 236 -265c0 -208 -75 -270 -236 -270zM293 440c-103 0 -136 -27 -136 -186c0 -152 33 -187 136 -187s136 35 136 187c0 159 -33 186 -136 186z" />
    <glyph glyph-name="afii10081" unicode="&#x43f;" horiz-adv-x="571" 
d="M403 423h-236v-423h-95v507h426v-507h-95v423z" />
    <glyph glyph-name="afii10082" unicode="&#x440;" horiz-adv-x="580" 
d="M297 -14c-65 0 -104 18 -130 35v-213h-95v674c55 24 146 39 214 39c162 0 236 -59 236 -266s-78 -269 -225 -269zM286 437c-42 0 -87 -6 -119 -18v-280c0 -46 47 -70 119 -70c103 0 137 38 137 183c0 156 -34 185 -137 185z" />
    <glyph glyph-name="afii10083" unicode="&#x441;" horiz-adv-x="468" 
d="M430 96l25 -83c-39 -17 -104 -27 -150 -27c-156 0 -248 62 -248 270c0 207 93 265 248 265c46 0 112 -10 150 -24l-25 -84c-34 15 -79 23 -121 23c-103 0 -152 -25 -152 -182c0 -149 49 -183 152 -183c44 0 87 11 121 25z" />
    <glyph glyph-name="afii10084" unicode="&#x442;" horiz-adv-x="483" 
d="M289 423v-423h-95v423h-187v84h468v-84h-186z" />
    <glyph glyph-name="afii10085" unicode="&#x443;" horiz-adv-x="510" 
d="M195 -24c-50 180 -118 386 -183 531h101c50 -117 102 -276 141 -417c55 137 107 281 143 417h98c-51 -172 -118 -347 -190 -517c-25 -60 -58 -131 -85 -182h-107c26 48 57 113 82 168z" />
    <glyph glyph-name="afii10086" unicode="&#x444;" horiz-adv-x="799" 
d="M446 -13v-179h-94v179c-211 8 -295 74 -295 269c0 193 85 257 295 264v183h94v-183c210 -7 295 -71 295 -264c0 -194 -84 -260 -295 -269zM157 254c0 -139 43 -180 195 -186v370c-152 -4 -195 -39 -195 -184zM641 254c0 144 -44 179 -195 184v-370c151 6 195 47 195 186z
" />
    <glyph glyph-name="afii10087" unicode="&#x445;" horiz-adv-x="521" 
d="M502 0h-110c-34 55 -77 118 -122 182c-49 -65 -97 -126 -143 -182h-109c63 72 134 164 201 253c-67 92 -139 183 -200 254h119c41 -51 88 -113 134 -177c48 64 88 126 121 177h108c-51 -76 -112 -164 -176 -250c63 -86 125 -177 177 -257z" />
    <glyph glyph-name="afii10088" unicode="&#x446;" horiz-adv-x="608" 
d="M498 507v-423h103l-23 -218h-75v134h-431v507h95v-423h236v423h95z" />
    <glyph glyph-name="afii10089" unicode="&#x447;" horiz-adv-x="541" 
d="M230 160c-130 0 -188 45 -188 244v103h95v-92c0 -142 32 -168 118 -168c61 0 118 20 118 58v202h95v-507h-95v198c-28 -19 -85 -38 -143 -38z" />
    <glyph glyph-name="afii10090" unicode="&#x448;" horiz-adv-x="822" 
d="M655 84v423h94v-507h-677v507h95v-423h197v423h94v-423h197z" />
    <glyph glyph-name="afii10091" unicode="&#x449;" horiz-adv-x="860" 
d="M755 -134v134h-683v507h95v-423h197v423h94v-423h197v423h94v-423h103l-23 -218h-74z" />
    <glyph glyph-name="afii10092" unicode="&#x44a;" horiz-adv-x="596" 
d="M2 507h206v-193h187c107 0 156 -51 156 -154c0 -114 -49 -160 -156 -160h-282v423h-111v84zM380 76c49 0 70 22 70 83c0 58 -23 78 -71 78h-171v-161h172z" />
    <glyph glyph-name="afii10093" unicode="&#x44b;" horiz-adv-x="739" 
d="M339 76c49 0 70 22 70 83c0 58 -23 78 -71 78h-171v-161h172zM167 314h187c107 0 156 -51 156 -154c0 -114 -49 -160 -156 -160h-282v507h95v-193zM666 507v-507h-95v507h95z" />
    <glyph glyph-name="afii10094" unicode="&#x44c;" horiz-adv-x="555" 
d="M339 76c49 0 70 22 70 83c0 58 -23 78 -71 78h-171v-161h172zM167 314h187c107 0 156 -51 156 -154c0 -114 -49 -160 -156 -160h-282v507h95v-193z" />
    <glyph glyph-name="afii10095" unicode="&#x44d;" horiz-adv-x="483" 
d="M28 13l25 79c33 -14 78 -23 121 -23c97 0 146 32 151 164h-219v78h217c-11 106 -61 127 -149 127c-42 0 -88 -7 -121 -21l-25 80c38 14 104 24 150 24c152 0 247 -58 247 -265c0 -208 -94 -270 -247 -270c-46 0 -111 10 -150 27z" />
    <glyph glyph-name="afii10096" unicode="&#x44e;" horiz-adv-x="828" 
d="M542 -14c-146 0 -221 57 -227 245h-148v-231h-94v507h94v-194h149c13 161 90 208 226 208c152 0 229 -58 229 -265c0 -208 -76 -270 -229 -270zM542 441c-96 0 -130 -28 -130 -187c0 -152 34 -188 130 -188s130 36 130 188c0 159 -34 187 -130 187z" />
    <glyph glyph-name="afii10097" unicode="&#x44f;" horiz-adv-x="572" 
d="M223 507h276v-507h-95v197h-85c-74 0 -112 -30 -181 -197h-108c81 182 119 215 180 224c-109 2 -146 63 -146 135c0 80 37 148 159 148zM243 274h161v153h-164c-50 0 -74 -18 -74 -75c0 -53 24 -78 77 -78z" />
    <glyph glyph-name="afii10098" unicode="&#x491;" horiz-adv-x="412" 
d="M410 423h-243v-423h-95v507h248l24 154h66v-238z" />
    <glyph glyph-name="afii10099" unicode="&#x452;" horiz-adv-x="562" 
d="M167 588v-110c29 19 85 38 144 38c131 0 193 -50 193 -292c0 -264 -96 -365 -170 -400l-60 68c63 30 130 88 130 330c0 178 -30 204 -118 204c-60 0 -116 -19 -119 -55v-371h-94v588h-58v69h58v65h94v-65h112v-69h-112z" />
    <glyph glyph-name="afii10100" unicode="&#x453;" horiz-adv-x="412" 
d="M72 507h338v-83h-243v-424h-95v507zM260 568h-90l121 129h107z" />
    <glyph glyph-name="afii10101" unicode="&#x454;" horiz-adv-x="483" 
d="M430 92l24 -79c-39 -17 -103 -27 -149 -27c-153 0 -248 62 -248 270c0 207 95 265 247 265c46 0 113 -10 150 -24l-24 -80c-34 14 -80 21 -122 21c-88 0 -137 -21 -148 -127h217v-78h-219c4 -132 53 -164 150 -164c44 0 88 9 122 23z" />
    <glyph glyph-name="afii10102" unicode="&#x455;" horiz-adv-x="497" 
d="M405 415c-40 14 -96 26 -146 26c-72 0 -110 -12 -110 -75c0 -43 28 -60 115 -67c127 -11 182 -51 182 -149c0 -126 -74 -164 -206 -164c-52 0 -133 11 -182 27l23 79c36 -14 105 -26 156 -26c77 0 112 17 112 78c0 45 -23 66 -116 74c-117 9 -181 39 -181 140
c0 126 79 163 209 163c51 0 115 -10 169 -27c-8 -26 -17 -52 -25 -79z" />
    <glyph glyph-name="afii10103" unicode="&#x456;" horiz-adv-x="239" 
d="M167 507v-507h-94v507h94zM121 709c42 0 56 -6 56 -50c0 -48 -14 -56 -56 -56c-43 0 -57 8 -57 56c0 44 14 50 57 50z" />
    <glyph glyph-name="afii10104" unicode="&#x457;" horiz-adv-x="239" 
d="M20 669c38 0 50 -6 50 -47c0 -45 -12 -52 -50 -52c-39 0 -51 7 -51 52c0 41 12 47 51 47zM221 669c38 0 50 -6 50 -47c0 -45 -12 -52 -50 -52c-39 0 -51 7 -51 52c0 41 12 47 51 47zM167 507v-507h-94v507h94z" />
    <glyph glyph-name="afii10105" unicode="&#x458;" horiz-adv-x="239" 
d="M121 709c42 0 56 -7 56 -50c0 -48 -14 -56 -56 -56c-44 0 -57 8 -57 56c0 43 13 50 57 50zM-20 -203v82c61 0 92 17 92 101v527h95v-526c0 -149 -71 -184 -187 -184z" />
    <glyph glyph-name="afii10106" unicode="&#x459;" horiz-adv-x="870" 
d="M648 76c48 0 70 22 70 83c0 58 -23 78 -71 78h-172v-161h173zM475 507v-193h187c107 0 157 -51 157 -154c0 -114 -50 -160 -157 -160h-281v423h-150c-10 -204 -58 -437 -199 -437c-6 32 -10 64 -15 96c67 0 118 165 127 425h331z" />
    <glyph glyph-name="afii10107" unicode="&#x45a;" horiz-adv-x="893" 
d="M498 314h187c107 0 156 -51 156 -154c0 -114 -49 -160 -156 -160h-282v237h-236v-237h-95v507h95v-193h236v193h95v-193zM670 76c49 0 70 22 70 83c0 59 -23 78 -71 78h-171v-161h172z" />
    <glyph glyph-name="afii10108" unicode="&#x45b;" horiz-adv-x="568" 
d="M167 376v-376h-95v588h-57v69h57v65h95v-65h112v-69h-112v-105c28 20 86 37 148 37c123 0 183 -47 183 -231v-289h-95v277c0 134 -36 157 -117 157c-62 0 -119 -21 -119 -58z" />
    <glyph glyph-name="afii10109" unicode="&#x45c;" horiz-adv-x="515" 
d="M513 0h-112c-99 190 -168 229 -234 242v-242h-94v507h94v-244c42 40 124 133 217 244h115c-107 -131 -179 -210 -209 -231c54 -21 102 -48 223 -276zM298 568h-90l121 129h107z" />
    <glyph glyph-name="afii10110" unicode="&#x45e;" horiz-adv-x="510" 
d="M195 -24c-50 180 -118 386 -183 531h101c50 -117 102 -276 141 -417c55 137 107 281 143 417h98c-51 -172 -118 -347 -190 -517c-25 -60 -58 -131 -85 -182h-107c26 48 57 113 82 168zM115 700h70c0 -52 24 -63 73 -63c47 0 73 11 73 63h66c0 -91 -48 -132 -141 -132
c-91 0 -141 41 -141 132z" />
    <glyph glyph-name="afii10145" unicode="&#x40f;" horiz-adv-x="725" 
d="M198 697v-608h334v608h100v-697h-210l-21 -186h-70l-21 186h-214v697h102z" />
    <glyph glyph-name="afii10193" unicode="&#x45f;" horiz-adv-x="571" 
d="M498 0h-153l-21 -171h-71l-21 171h-160v507h95v-423h236v423h95v-507z" />
    <glyph glyph-name="afii61352" unicode="&#x2116;" horiz-adv-x="1135" 
d="M195 574v-574h-101v697h136c112 -172 224 -362 325 -547v547h102v-697h-124c-102 189 -217 384 -338 574zM906 316c-122 0 -173 46 -173 201s52 197 173 197c122 0 173 -42 173 -197s-51 -201 -173 -201zM906 643c-71 0 -88 -17 -88 -126c0 -106 17 -130 88 -130
c70 0 89 24 89 130c0 109 -19 126 -89 126zM759 154v79h298v-79h-298z" />
    <glyph glyph-name="Alpha" unicode="&#x391;" horiz-adv-x="675" 
d="M567 0c-23 58 -50 124 -75 194h-323c-22 -66 -43 -131 -63 -194h-105c73 220 167 476 258 697h165c75 -230 176 -508 257 -697h-114zM351 613h-28c-43 -107 -85 -219 -125 -332h264c-40 110 -78 226 -111 332z" />
    <glyph glyph-name="Beta" unicode="&#x392;" horiz-adv-x="700" 
d="M443 85c61 0 82 46 82 118c0 77 -28 125 -86 125h-243v-243h247zM435 411c58 0 76 45 76 102c0 63 -17 98 -76 98h-239v-200h239zM476 372c133 -6 159 -79 159 -178c0 -134 -65 -194 -177 -194h-364v697h355c139 0 169 -72 169 -166c0 -88 -17 -148 -142 -159z" />
    <glyph glyph-name="Gamma" unicode="&#x393;" horiz-adv-x="539" 
d="M196 0h-101v697h451v-87h-350v-610z" />
    <glyph glyph-name="Delta" unicode="&#x394;" horiz-adv-x="644" 
d="M643 0h-649c71 220 165 476 259 697h132c71 -228 172 -508 258 -697zM313 602c-71 -168 -131 -340 -187 -515h368c-64 159 -130 346 -181 515z" />
    <glyph glyph-name="Delta" unicode="&#x2206;" horiz-adv-x="644" 
d="M643 0h-649c71 220 165 476 259 697h132c71 -228 172 -508 258 -697zM313 602c-71 -168 -131 -340 -187 -515h368c-64 159 -130 346 -181 515z" />
    <glyph glyph-name="Epsilon" unicode="&#x395;" horiz-adv-x="615" 
d="M95 697h491v-87h-390v-198h277v-86h-277v-239h390v-87h-491v697z" />
    <glyph glyph-name="Zeta" unicode="&#x396;" horiz-adv-x="615" 
d="M19 0v31c138 177 302 406 420 579h-395v87h550v-28c-122 -187 -291 -423 -420 -582h407v-87h-562z" />
    <glyph glyph-name="Eta" unicode="&#x397;" horiz-adv-x="725" 
d="M196 325v-325h-101v697h101v-279h334v279h101v-697h-101v325h-334z" />
    <glyph glyph-name="Theta" unicode="&#x398;" horiz-adv-x="764" 
d="M382 714c219 0 324 -77 324 -361c0 -287 -104 -367 -324 -367c-219 0 -324 80 -324 367c0 284 105 361 324 361zM382 77c166 0 216 48 216 274c0 234 -50 273 -216 273c-165 0 -214 -39 -214 -273c0 -226 49 -274 214 -274zM259 331v77h246v-77h-246z" />
    <glyph glyph-name="Iota" unicode="&#x399;" horiz-adv-x="290" 
d="M95 697h101v-697h-101v697z" />
    <glyph glyph-name="Kappa" unicode="&#x39a;" horiz-adv-x="639" 
d="M196 697v-697h-101v697h101zM649 0h-129c-154 231 -278 352 -323 368c48 31 167 149 301 329h128c-142 -180 -252 -291 -291 -320c37 -23 161 -146 314 -377z" />
    <glyph glyph-name="Lambda" unicode="&#x39b;" horiz-adv-x="644" 
d="M315 602c-81 -194 -154 -408 -214 -602h-105c70 220 164 476 259 697h132c71 -228 172 -508 257 -697h-114c-71 169 -156 404 -215 602z" />
    <glyph glyph-name="Mu" unicode="&#x39c;" horiz-adv-x="892" 
d="M450 212c62 161 137 331 212 485h136v-697h-100v568c-74 -161 -151 -341 -216 -498h-78c-64 159 -139 341 -211 498v-568h-98v697h144c74 -155 149 -325 211 -485z" />
    <glyph glyph-name="Nu" unicode="&#x39d;" horiz-adv-x="752" 
d="M195 574v-574h-101v697h136c112 -172 224 -362 325 -547v547h102v-697h-124c-102 189 -217 384 -338 574z" />
    <glyph glyph-name="Xi" unicode="&#x39e;" horiz-adv-x="601" 
d="M35 87h531v-87h-531v87zM566 610h-531v87h531v-87zM126 325v88h349v-88h-349z" />
    <glyph glyph-name="Omicron" unicode="&#x39f;" horiz-adv-x="764" 
d="M382 714c219 0 324 -77 324 -361c0 -287 -104 -367 -324 -367c-219 0 -324 80 -324 367c0 284 105 361 324 361zM382 77c166 0 216 48 216 274c0 234 -50 273 -216 273c-165 0 -214 -39 -214 -273c0 -226 49 -274 214 -274z" />
    <glyph glyph-name="Pi" unicode="&#x3a0;" horiz-adv-x="725" 
d="M196 610v-610h-101v697h536v-697h-101v610h-334z" />
    <glyph glyph-name="Rho" unicode="&#x3a1;" horiz-adv-x="661" 
d="M196 330h216c69 0 103 51 103 135c0 94 -34 146 -99 146h-220v-281zM196 0h-102v697h337c151 0 196 -105 196 -233c0 -114 -53 -221 -192 -221h-239v-243z" />
    <glyph glyph-name="Sigma" unicode="&#x3a3;" horiz-adv-x="616" 
d="M20 0v26c76 91 157 202 235 319c-81 109 -162 227 -232 329v23h556v-87h-393c53 -80 116 -168 188 -262c-66 -93 -129 -185 -191 -261h396v-87h-559z" />
    <glyph glyph-name="Tau" unicode="&#x3a4;" horiz-adv-x="588" 
d="M346 610v-610h-103v610h-239v87h580v-87h-238z" />
    <glyph glyph-name="Upsilon" unicode="&#x3a5;" horiz-adv-x="622" 
d="M110 697c68 -85 141 -185 209 -286c73 96 144 196 202 286h121c-83 -122 -179 -255 -277 -379v-318h-102v318c-89 128 -191 265 -285 379h132z" />
    <glyph glyph-name="Phi" unicode="&#x3a6;" horiz-adv-x="770" 
d="M325 697h102v-94c231 -9 294 -87 294 -253s-64 -245 -294 -254v-96h-102v96c-227 9 -287 89 -287 254s60 244 287 253v94zM619 349c0 118 -25 165 -192 169v-338c167 6 192 54 192 169zM139 349c0 -114 25 -162 186 -169v338c-161 -6 -186 -52 -186 -169z" />
    <glyph glyph-name="Chi" unicode="&#x3a7;" horiz-adv-x="661" 
d="M522 697h123c-76 -109 -160 -225 -246 -341c90 -124 182 -250 257 -356h-126c-61 86 -126 177 -194 270c-72 -94 -142 -185 -209 -270h-123c81 101 177 227 270 352c-91 121 -183 242 -264 345h128c63 -81 130 -167 199 -258c65 88 128 176 185 258z" />
    <glyph glyph-name="Psi" unicode="&#x3a8;" horiz-adv-x="744" 
d="M29 697h104c0 -302 25 -365 186 -371v371h102v-371c167 5 192 68 192 371h102c0 -357 -64 -449 -294 -458v-239h-102v239c-227 9 -286 103 -290 458z" />
    <glyph glyph-name="Omega" unicode="&#x3a9;" horiz-adv-x="787" 
d="M764 89v-89h-302v86c107 33 134 149 134 305c0 189 -57 233 -203 233c-156 0 -202 -58 -202 -233c0 -155 26 -272 133 -305v-86h-302v89h171c-72 48 -109 159 -109 304c0 247 106 321 309 321c204 0 309 -74 309 -321c0 -145 -36 -255 -109 -304h171z" />
    <glyph glyph-name="Omega" unicode="&#x2126;" horiz-adv-x="787" 
d="M764 89v-89h-302v86c107 33 134 149 134 305c0 189 -57 233 -203 233c-156 0 -202 -58 -202 -233c0 -155 26 -272 133 -305v-86h-302v89h171c-72 48 -109 159 -109 304c0 247 106 321 309 321c204 0 309 -74 309 -321c0 -145 -36 -255 -109 -304h171z" />
    <glyph glyph-name="Alphatonos" unicode="&#x386;" horiz-adv-x="675" 
d="M567 0c-23 58 -50 124 -75 194h-323c-22 -66 -43 -131 -63 -194h-105c73 220 167 476 258 697h165c75 -230 176 -508 257 -697h-114zM351 613h-28c-43 -107 -85 -219 -125 -332h264c-40 110 -78 226 -111 332zM47 722h102l-30 -162h-54z" />
    <glyph glyph-name="Epsilontonos" unicode="&#x388;" horiz-adv-x="615" 
d="M95 697h491v-87h-390v-198h277v-86h-277v-239h390v-87h-491v697zM-56 722h102l-29 -162h-54z" />
    <glyph glyph-name="Etatonos" unicode="&#x389;" horiz-adv-x="725" 
d="M196 325v-325h-101v697h101v-279h334v279h101v-697h-101v325h-334zM-56 722h102l-29 -162h-54z" />
    <glyph glyph-name="Iotatonos" unicode="&#x38a;" horiz-adv-x="290" 
d="M95 697h101v-697h-101v697zM-57 722h102l-30 -162h-54z" />
    <glyph glyph-name="Iotadieresis" unicode="&#x3aa;" horiz-adv-x="290" 
d="M95 697h101v-697h-101v697zM47 855c38 0 50 -6 50 -47c0 -45 -12 -52 -50 -52c-39 0 -51 7 -51 52c0 41 12 47 51 47zM248 855c38 0 50 -6 50 -47c0 -45 -12 -52 -50 -52c-39 0 -51 7 -51 52c0 41 12 47 51 47z" />
    <glyph glyph-name="Omicrontonos" unicode="&#x38c;" horiz-adv-x="764" 
d="M382 714c219 0 324 -77 324 -361c0 -287 -104 -367 -324 -367c-219 0 -324 80 -324 367c0 284 105 361 324 361zM382 77c166 0 216 48 216 274c0 234 -50 273 -216 273c-165 0 -214 -39 -214 -273c0 -226 49 -274 214 -274zM-52 722h102l-29 -162h-54z" />
    <glyph glyph-name="Upsilontonos" unicode="&#x38e;" horiz-adv-x="622" 
d="M-109 722h102l-4 -25h121c68 -85 141 -185 209 -286c73 96 144 196 202 286h121c-83 -122 -179 -255 -277 -379v-318h-102v318c-87 124 -185 256 -276 368l-24 -126h-54z" />
    <glyph glyph-name="Upsilondieresis" unicode="&#x3ab;" horiz-adv-x="622" 
d="M110 697c68 -85 141 -185 209 -286c73 96 144 196 202 286h121c-83 -122 -179 -255 -277 -379v-318h-102v318c-89 128 -191 265 -285 379h132zM218 855c38 0 50 -6 50 -47c0 -45 -12 -52 -50 -52c-39 0 -51 7 -51 52c0 41 12 47 51 47zM419 855c38 0 50 -6 50 -47
c0 -45 -12 -52 -50 -52c-39 0 -51 7 -51 52c0 41 12 47 51 47z" />
    <glyph glyph-name="Omegatonos" unicode="&#x38f;" horiz-adv-x="787" 
d="M764 89v-89h-302v86c107 33 134 149 134 305c0 189 -57 233 -203 233c-156 0 -202 -58 -202 -233c0 -155 26 -272 133 -305v-86h-302v89h171c-72 48 -109 159 -109 304c0 247 106 321 309 321c204 0 309 -74 309 -321c0 -145 -36 -255 -109 -304h171zM-30 722h102
l-30 -162h-54z" />
    <glyph glyph-name="alpha" unicode="&#x3b1;" horiz-adv-x="682" 
d="M646 507c-25 -95 -71 -202 -114 -294c23 -91 52 -131 116 -131l-13 -96c-88 0 -134 44 -161 132c-56 -105 -104 -132 -197 -132c-136 0 -220 60 -220 270c0 209 84 265 220 265c142 0 187 -59 218 -185c20 49 40 114 51 171h100zM281 67c67 0 101 24 159 148
c-37 173 -48 226 -159 226c-89 0 -124 -30 -124 -187c0 -150 35 -187 124 -187z" />
    <glyph glyph-name="beta" unicode="&#x3b2;" horiz-adv-x="620" 
d="M302 714c163 0 232 -44 232 -168c0 -83 -28 -142 -127 -152c132 -6 157 -96 157 -195c0 -154 -78 -213 -249 -213c-60 0 -104 7 -147 22v-200h-95v724c0 128 87 182 229 182zM168 523v-430c47 -16 93 -23 149 -23c112 0 140 42 140 139c0 95 -32 142 -148 142h-45v80h44
c97 0 127 25 127 104c0 69 -31 93 -133 93c-97 0 -134 -37 -134 -105z" />
    <glyph glyph-name="gamma" unicode="&#x3b3;" horiz-adv-x="496" 
d="M194 -43c-51 180 -123 405 -188 550h101c49 -117 102 -276 141 -417c54 137 106 281 142 417h99c-51 -172 -124 -357 -206 -548c5 -30 7 -66 7 -103c0 -16 0 -32 -1 -48h-120c0 47 12 97 25 149z" />
    <glyph glyph-name="delta" unicode="&#x3b4;" horiz-adv-x="589" 
d="M292 -14c-162 0 -235 71 -235 233c0 114 33 193 129 235c-78 23 -98 70 -98 119c0 104 82 141 227 141c66 0 148 -13 195 -28l-24 -87c-58 22 -124 32 -185 32c-85 0 -110 -18 -110 -55s27 -47 118 -71c188 -48 223 -124 223 -278c0 -167 -84 -241 -240 -241zM276 422
c-94 -41 -120 -90 -120 -199c0 -115 44 -155 136 -155c85 0 141 26 141 155c0 106 -22 170 -157 199z" />
    <glyph glyph-name="epsilon" unicode="&#x3b5;" horiz-adv-x="488" 
d="M285 521c61 0 129 -8 175 -20l-24 -83c-40 13 -93 21 -152 21c-100 0 -129 -19 -129 -65c0 -51 37 -65 123 -65h77v-75h-77c-93 0 -132 -21 -132 -81c0 -63 30 -84 141 -84c57 0 112 7 153 22l20 -85c-48 -13 -112 -20 -177 -20c-164 0 -237 32 -237 147
c0 73 31 132 129 137c-92 8 -118 50 -118 116c0 89 62 135 228 135z" />
    <glyph glyph-name="zeta" unicode="&#x3b6;" horiz-adv-x="498" 
d="M361 610h-316v87h437v-87c-292 -253 -325 -305 -325 -410c0 -83 32 -106 146 -116c96 -7 139 -31 139 -107c0 -60 -40 -128 -69 -169h-93c36 58 58 99 58 137c0 44 -25 57 -130 64c-101 7 -153 47 -153 175c0 137 47 197 306 426z" />
    <glyph glyph-name="eta" unicode="&#x3b7;" horiz-adv-x="603" 
d="M193 443c46 46 107 78 173 78c103 0 167 -51 167 -234v-479h-94v467c0 123 -26 156 -101 156c-49 0 -96 -25 -136 -70v-361h-94v366c0 53 -11 71 -74 71l15 84c100 0 128 -17 144 -78z" />
    <glyph glyph-name="theta" unicode="&#x3b8;" horiz-adv-x="624" 
d="M312 -14c-170 0 -255 86 -255 372c0 282 85 356 255 356s254 -74 254 -356c0 -286 -83 -372 -254 -372zM311 76c111 0 151 52 153 255h-304c2 -203 43 -255 151 -255zM311 626c-104 0 -145 -30 -151 -218h303c-5 188 -46 218 -152 218z" />
    <glyph glyph-name="iota" unicode="&#x3b9;" horiz-adv-x="257" 
d="M167 507v-359c0 -51 13 -67 72 -67l-13 -95c-136 0 -154 61 -154 212v309h95z" />
    <glyph glyph-name="kappa" unicode="&#x3ba;" horiz-adv-x="515" 
d="M167 507v-247c59 49 141 143 218 247h114c-54 -71 -128 -156 -199 -229c40 -37 121 -137 223 -278h-115c-87 115 -136 183 -170 217c-26 -24 -50 -45 -71 -61v-156h-94v507h94z" />
    <glyph glyph-name="lambda" unicode="&#x3bb;" horiz-adv-x="497" 
d="M202 522c-31 89 -44 103 -111 103l10 89c119 0 163 -26 200 -153c62 -210 122 -391 189 -561h-101c-50 129 -97 265 -138 413c-57 -129 -107 -265 -146 -413h-99c56 181 127 354 196 522z" />
    <glyph glyph-name="mu" unicode="&#xb5;" horiz-adv-x="606" 
d="M419 64c-43 -48 -102 -78 -162 -78c-39 0 -76 9 -95 32c-3 -84 -10 -156 -18 -210h-91c15 108 26 262 26 370v329h95v-275c0 -123 25 -153 100 -153c49 0 96 22 136 67v361h95v-367c0 -46 12 -63 74 -63l-19 -91c-87 0 -123 18 -141 78z" />
    <glyph glyph-name="mu" unicode="&#x3bc;" horiz-adv-x="606" 
d="M419 64c-43 -48 -102 -78 -162 -78c-39 0 -76 9 -95 32c-3 -84 -10 -156 -18 -210h-91c15 108 26 262 26 370v329h95v-275c0 -123 25 -153 100 -153c49 0 96 22 136 67v361h95v-367c0 -46 12 -63 74 -63l-19 -91c-87 0 -123 18 -141 78z" />
    <glyph glyph-name="nu" unicode="&#x3bd;" horiz-adv-x="496" 
d="M247 93c55 137 106 277 143 414h99c-50 -167 -116 -340 -186 -507h-122c-50 173 -108 349 -175 496l101 25c50 -120 103 -287 140 -428z" />
    </font>
</defs>
</svg>
